{"glyphs":{"0":{"ha":860,"x_min":56,"x_max":806,"o":"m 431 -14 q 277 27 346 -14 q 158 142 208 69 q 82 313 109 216 q 56 521 56 410 q 84 729 56 632 q 163 899 113 826 q 282 1014 214 973 q 431 1056 351 1056 q 579 1014 510 1056 q 698 899 647 973 q 777 729 749 826 q 806 521 806 632 q 779 313 806 410 q 703 142 752 216 q 584 27 653 69 q 431 -14 515 -14 m 431 11 q 543 55 501 11 q 608 171 585 98 q 638 335 631 244 q 646 521 646 426 q 636 706 646 615 q 603 870 626 797 q 537 987 579 944 q 431 1031 495 1031 q 324 987 366 1031 q 259 870 283 944 q 225 706 235 797 q 216 521 216 615 q 224 335 216 426 q 253 171 231 244 q 318 55 276 98 q 431 11 361 11 z "},"1":{"ha":603,"x_min":69,"x_max":535,"o":"m 249 8 l 249 1015 l 93 1015 l 93 1042 l 382 1042 l 382 8 l 249 8 m 69 0 l 69 27 l 535 27 l 535 0 l 69 0 z "},"2":{"ha":763,"x_min":56,"x_max":715,"o":"m 56 0 l 56 90 l 372 387 q 503 567 458 467 q 547 764 547 666 q 520 895 547 838 q 446 985 493 953 q 340 1018 399 1018 q 209 985 265 1018 q 124 890 153 951 q 101 742 94 828 l 76 742 q 88 775 76 760 q 121 799 101 790 q 164 808 141 808 q 203 799 185 808 q 234 772 222 790 q 247 731 247 755 q 235 683 247 703 q 204 652 224 663 q 160 642 184 642 q 117 654 135 642 q 87 689 98 666 q 74 742 76 712 q 102 905 67 834 q 207 1015 136 975 q 382 1056 278 1056 q 548 1018 480 1056 q 651 921 616 981 q 686 792 686 861 q 673 697 686 740 q 639 619 660 654 q 590 553 617 583 q 534 497 563 524 l 135 125 l 688 125 l 688 229 l 715 229 l 715 0 l 56 0 z "},"3":{"ha":723,"x_min":35,"x_max":668,"o":"m 321 -14 q 159 15 222 -14 q 65 90 96 44 q 35 186 35 136 q 58 252 35 229 q 118 275 82 275 q 171 255 150 275 q 192 198 192 235 q 181 159 192 176 q 152 134 170 143 q 114 125 135 125 q 76 133 94 125 q 47 155 58 141 q 36 186 36 169 l 63 186 q 90 101 63 140 q 169 39 117 63 q 293 15 221 15 q 427 51 376 15 q 503 148 479 88 q 528 278 528 208 q 518 367 528 320 q 479 456 508 415 q 397 524 451 498 q 254 550 342 550 l 254 567 q 461 543 380 567 q 587 480 542 520 q 650 388 632 440 q 668 278 668 335 q 642 156 668 210 q 568 64 615 102 q 458 6 521 26 q 321 -14 394 -14 m 254 560 l 254 576 q 384 599 337 576 q 453 659 431 622 q 481 739 475 696 q 486 821 486 781 q 475 903 486 866 q 441 968 463 940 q 387 1011 419 996 q 314 1026 355 1026 q 236 1014 274 1026 q 169 980 199 1002 q 121 929 139 958 q 103 865 103 900 l 77 865 q 90 900 77 885 q 120 922 102 915 q 156 929 139 929 q 195 921 177 929 q 224 896 213 913 q 235 856 235 880 q 222 811 235 828 q 192 786 210 794 q 156 778 174 778 q 117 788 135 778 q 87 817 99 798 q 76 865 76 836 q 96 936 76 902 q 152 997 116 971 q 235 1039 188 1024 q 335 1054 282 1054 q 445 1039 393 1054 q 539 995 498 1024 q 603 922 579 966 q 626 821 626 878 q 613 722 626 769 q 561 638 599 675 q 448 581 522 601 q 254 560 374 560 z "},"4":{"ha":826,"x_min":44,"x_max":813,"o":"m 396 0 l 396 27 l 528 27 l 528 958 l 96 313 l 813 313 l 813 285 l 44 285 l 549 1042 l 660 1042 l 660 27 l 764 27 l 764 0 l 396 0 z "},"5":{"ha":694,"x_min":42,"x_max":652,"o":"m 300 -14 q 171 14 229 -14 q 77 85 113 41 q 42 179 42 129 q 66 244 42 222 q 121 265 89 265 q 174 247 147 265 q 200 188 200 229 q 189 146 200 163 q 160 120 178 129 q 121 111 142 111 q 94 116 108 111 q 69 130 80 121 q 51 151 58 138 q 44 179 44 164 l 71 179 q 88 120 71 149 q 134 66 104 90 q 205 28 165 42 q 293 14 245 14 q 402 41 360 14 q 467 114 444 69 q 498 213 490 159 q 507 319 507 267 q 483 472 507 406 q 415 576 460 538 q 309 613 371 613 q 221 599 258 613 q 160 564 184 585 q 126 524 137 543 l 101 524 q 144 579 112 549 q 228 631 176 609 q 350 652 280 652 q 509 612 441 652 q 615 498 577 572 q 652 319 652 424 q 627 192 652 252 q 555 85 601 131 q 443 13 508 39 q 300 -14 378 -14 m 93 524 l 93 1042 l 577 1042 l 577 1117 l 604 1117 l 604 917 l 120 917 l 120 524 l 93 524 z "},"6":{"ha":777,"x_min":69,"x_max":737,"o":"m 408 -14 q 227 36 303 -14 q 110 186 151 87 q 69 431 69 285 q 113 670 69 557 q 235 869 157 783 q 414 1006 313 956 q 632 1056 516 1056 l 632 1031 q 465 985 542 1031 q 332 862 388 940 q 244 686 275 784 q 213 483 213 588 l 208 390 q 219 253 208 320 q 254 132 230 185 q 317 45 278 78 q 413 13 356 13 q 506 42 469 13 q 561 120 542 72 q 589 228 581 169 q 597 347 597 288 q 574 507 597 440 q 507 608 551 573 q 401 644 463 644 q 294 612 337 644 q 230 523 251 581 q 208 390 208 466 l 185 390 q 209 537 185 471 q 287 642 233 603 q 432 681 341 681 q 538 661 485 681 q 637 602 592 642 q 709 499 682 563 q 737 347 737 436 q 698 161 737 243 q 586 33 660 80 q 408 -14 513 -14 z "},"7":{"ha":701,"x_min":56,"x_max":688,"o":"m 325 -14 q 259 12 285 -14 q 233 106 233 38 q 248 194 233 147 q 285 293 262 241 q 337 399 308 344 q 394 511 365 454 q 456 634 422 563 q 526 777 491 704 q 590 910 562 850 l 83 910 l 83 806 l 56 806 l 56 1042 l 688 1042 q 670 1006 688 1042 q 624 910 653 969 q 561 780 595 851 q 492 638 526 709 q 428 510 457 567 q 376 404 396 445 q 349 334 357 363 q 340 274 340 304 q 351 210 340 235 q 377 166 363 185 q 403 127 392 147 q 414 81 414 107 q 392 14 414 42 q 325 -14 371 -14 z "},"8":{"ha":763,"x_min":56,"x_max":708,"o":"m 382 -14 q 135 63 215 -14 q 56 264 56 139 q 121 450 56 378 q 324 535 186 522 q 144 611 206 548 q 83 778 83 675 q 117 918 83 855 q 217 1018 151 981 q 382 1056 284 1056 q 547 1018 480 1056 q 647 918 613 981 q 681 778 681 855 q 619 611 681 675 q 440 535 558 548 q 643 450 578 522 q 708 264 708 378 q 629 63 708 139 q 382 -14 550 -14 m 382 13 q 492 49 451 13 q 551 141 533 84 q 569 264 569 199 q 551 388 569 329 q 492 484 533 447 q 382 521 451 521 q 272 484 313 521 q 212 388 231 447 q 194 264 194 329 q 212 141 194 199 q 272 49 231 84 q 382 13 313 13 m 382 549 q 478 582 444 549 q 527 667 513 615 q 541 778 541 719 q 533 866 541 822 q 508 947 526 910 q 459 1006 490 984 q 382 1028 428 1028 q 305 1006 335 1028 q 256 947 274 984 q 230 866 238 910 q 222 778 222 822 q 236 667 222 719 q 285 582 251 615 q 382 549 320 549 z "},"9":{"ha":777,"x_min":41,"x_max":708,"o":"m 146 -14 l 146 11 q 313 57 237 11 q 446 180 390 102 q 534 356 503 258 q 565 558 565 453 l 569 652 q 559 789 569 722 q 524 910 548 856 q 461 996 500 964 q 365 1028 422 1028 q 272 999 308 1028 q 216 921 236 970 q 189 813 197 872 q 181 694 181 754 q 204 535 181 601 q 271 433 227 469 q 376 398 315 398 q 484 430 441 398 q 548 518 527 461 q 569 652 569 576 l 593 652 q 569 505 593 571 q 491 400 545 439 q 346 361 437 361 q 240 380 293 361 q 141 439 186 399 q 68 543 96 479 q 41 694 41 606 q 80 880 41 799 q 191 1009 118 962 q 369 1056 265 1056 q 550 1005 474 1056 q 667 856 626 955 q 708 611 708 757 q 665 372 708 485 q 543 172 621 259 q 364 36 465 85 q 146 -14 262 -14 z "},"A":{"ha":1072,"x_min":43,"x_max":1029,"o":"m 300 326 l 300 353 l 750 353 l 750 326 l 300 326 m 563 1062 l 921 27 l 1029 27 l 1029 0 l 626 0 l 626 27 l 769 27 l 496 872 l 201 27 l 349 27 l 349 0 l 43 0 l 43 27 l 170 27 l 534 1062 l 563 1062 z "},"Á":{"ha":1072,"x_min":43,"x_max":1029,"o":"m 300 326 l 300 353 l 750 353 l 750 326 l 300 326 m 563 1062 l 921 27 l 1029 27 l 1029 0 l 626 0 l 626 27 l 769 27 l 496 872 l 201 27 l 349 27 l 349 0 l 43 0 l 43 27 l 170 27 l 534 1062 l 563 1062 m 506 1167 l 490 1186 l 630 1338 q 659 1354 644 1353 q 688 1349 674 1356 q 708 1330 701 1342 q 714 1305 715 1319 q 707 1280 713 1291 q 689 1262 701 1268 l 506 1167 z "},"Ă":{"ha":1072,"x_min":43,"x_max":1029,"o":"m 300 326 l 300 353 l 750 353 l 750 326 l 300 326 m 563 1062 l 921 27 l 1029 27 l 1029 0 l 626 0 l 626 27 l 769 27 l 496 872 l 201 27 l 349 27 l 349 0 l 43 0 l 43 27 l 170 27 l 534 1062 l 563 1062 m 548 1167 q 453 1194 485 1167 q 408 1262 420 1221 q 397 1346 397 1303 l 411 1346 q 430 1289 411 1312 q 480 1255 449 1266 q 548 1243 511 1243 q 617 1255 585 1243 q 667 1289 649 1266 q 686 1346 686 1312 l 701 1346 q 689 1262 701 1303 q 644 1194 677 1221 q 548 1167 610 1167 z "},"Â":{"ha":1072,"x_min":43,"x_max":1029,"o":"m 300 326 l 300 353 l 750 353 l 750 326 l 300 326 m 563 1062 l 921 27 l 1029 27 l 1029 0 l 626 0 l 626 27 l 769 27 l 496 872 l 201 27 l 349 27 l 349 0 l 43 0 l 43 27 l 170 27 l 534 1062 l 563 1062 m 365 1179 l 351 1194 l 504 1347 l 594 1347 l 747 1194 l 733 1179 l 549 1284 l 365 1179 z "},"Ä":{"ha":1072,"x_min":43,"x_max":1029,"o":"m 300 326 l 300 353 l 750 353 l 750 326 l 300 326 m 563 1062 l 921 27 l 1029 27 l 1029 0 l 626 0 l 626 27 l 769 27 l 496 872 l 201 27 l 349 27 l 349 0 l 43 0 l 43 27 l 170 27 l 534 1062 l 563 1062 m 659 1174 q 612 1193 631 1174 q 592 1240 592 1213 q 612 1288 592 1268 q 659 1308 631 1308 q 706 1288 687 1308 q 726 1240 726 1268 q 706 1193 726 1213 q 659 1174 687 1174 m 437 1174 q 390 1193 409 1174 q 370 1240 370 1213 q 390 1288 370 1268 q 437 1308 409 1308 q 484 1288 465 1308 q 503 1240 503 1268 q 484 1193 503 1213 q 437 1174 465 1174 z "},"À":{"ha":1072,"x_min":43,"x_max":1029,"o":"m 300 326 l 300 353 l 750 353 l 750 326 l 300 326 m 563 1062 l 921 27 l 1029 27 l 1029 0 l 626 0 l 626 27 l 769 27 l 496 872 l 201 27 l 349 27 l 349 0 l 43 0 l 43 27 l 170 27 l 534 1062 l 563 1062 m 590 1167 l 408 1262 q 390 1280 397 1268 q 383 1305 383 1291 q 389 1330 383 1319 q 409 1349 396 1342 q 438 1354 422 1356 q 467 1338 453 1353 l 607 1186 l 590 1167 z "},"Ā":{"ha":1072,"x_min":43,"x_max":1029,"o":"m 300 326 l 300 353 l 750 353 l 750 326 l 300 326 m 563 1062 l 921 27 l 1029 27 l 1029 0 l 626 0 l 626 27 l 769 27 l 496 872 l 201 27 l 349 27 l 349 0 l 43 0 l 43 27 l 170 27 l 534 1062 l 563 1062 m 382 1181 l 382 1208 l 715 1208 l 715 1181 l 382 1181 z "},"Ą":{"ha":1072,"x_min":43,"x_max":1029,"o":"m 300 326 l 300 353 l 750 353 l 750 326 l 300 326 m 563 1062 l 921 27 l 1029 27 l 1029 0 l 626 0 l 626 27 l 769 27 l 496 872 l 201 27 l 349 27 l 349 0 l 43 0 l 43 27 l 170 27 l 534 1062 l 563 1062 m 840 -291 q 770 -278 805 -291 q 713 -240 736 -266 q 690 -172 690 -213 q 708 -98 690 -130 q 756 -42 726 -66 q 819 -1 785 -17 q 885 26 853 16 l 893 12 q 855 -23 872 0 q 829 -76 838 -45 q 819 -144 819 -107 q 838 -216 819 -187 q 892 -244 856 -244 q 946 -225 925 -244 q 982 -178 967 -205 l 999 -190 q 971 -233 990 -210 q 921 -274 953 -257 q 840 -291 890 -291 z "},"Å":{"ha":1072,"x_min":43,"x_max":1029,"o":"m 300 326 l 300 353 l 750 353 l 750 326 l 300 326 m 563 1062 l 921 27 l 1029 27 l 1029 0 l 626 0 l 626 27 l 769 27 l 496 872 l 201 27 l 349 27 l 349 0 l 43 0 l 43 27 l 170 27 l 534 1062 l 563 1062 m 549 1167 q 460 1202 496 1167 q 424 1291 424 1238 q 460 1381 424 1344 q 549 1417 496 1417 q 638 1381 602 1417 q 674 1291 674 1344 q 638 1202 674 1238 q 549 1167 602 1167 m 549 1194 q 591 1208 574 1194 q 615 1243 607 1221 q 622 1291 622 1265 q 615 1340 622 1318 q 591 1376 607 1363 q 549 1390 574 1390 q 507 1376 523 1390 q 483 1340 491 1363 q 476 1291 476 1318 q 483 1243 476 1265 q 507 1208 491 1221 q 549 1194 523 1194 z "},"Ã":{"ha":1072,"x_min":43,"x_max":1029,"o":"m 300 326 l 300 353 l 750 353 l 750 326 l 300 326 m 563 1062 l 921 27 l 1029 27 l 1029 0 l 626 0 l 626 27 l 769 27 l 496 872 l 201 27 l 349 27 l 349 0 l 43 0 l 43 27 l 170 27 l 534 1062 l 563 1062 m 661 1167 q 591 1183 622 1167 q 533 1222 560 1200 q 481 1260 507 1243 q 425 1276 455 1276 q 364 1256 391 1276 q 338 1181 338 1235 l 310 1181 q 332 1279 310 1240 q 388 1338 354 1318 q 456 1357 422 1357 q 527 1340 497 1357 q 581 1302 557 1324 q 628 1264 606 1281 q 678 1247 651 1247 q 742 1268 717 1247 q 766 1343 766 1289 l 793 1343 q 777 1239 793 1278 q 732 1183 761 1200 q 661 1167 702 1167 z "},"Æ":{"ha":1401,"x_min":20,"x_max":1359,"o":"m 135 0 l 729 1042 l 756 1042 l 165 0 l 135 0 m 20 0 l 20 27 l 327 27 l 327 0 l 20 0 m 342 326 l 342 353 l 743 353 l 743 326 l 342 326 m 604 0 l 604 27 l 1084 27 q 1233 62 1179 27 q 1309 160 1287 97 q 1332 313 1332 224 l 1359 313 l 1359 0 l 604 0 m 729 0 l 729 1042 l 861 1042 l 861 0 l 729 0 m 1082 387 q 1064 464 1082 433 q 1015 510 1046 494 q 944 525 983 525 l 861 525 l 861 552 l 944 552 q 1015 566 983 552 q 1064 609 1046 580 q 1082 685 1082 638 l 1109 685 l 1109 387 l 1082 387 m 1318 757 q 1297 890 1318 831 q 1227 981 1275 948 q 1097 1015 1178 1015 l 729 1015 l 729 1042 l 1345 1042 l 1345 757 l 1318 757 z "},"B":{"ha":911,"x_min":43,"x_max":835,"o":"m 43 0 l 43 27 l 460 27 q 570 59 519 27 q 651 150 621 90 q 682 292 682 209 q 651 425 682 374 q 570 499 621 476 q 460 522 519 522 l 293 522 l 293 539 l 474 539 q 654 515 572 539 q 785 436 736 490 q 835 292 835 382 q 739 68 835 135 q 474 0 642 0 l 43 0 m 168 10 l 168 1031 l 301 1031 l 301 10 l 168 10 m 293 531 l 293 549 l 446 549 q 547 569 499 549 q 625 639 594 590 q 655 770 655 688 q 625 907 655 853 q 547 988 594 961 q 446 1015 499 1015 l 43 1015 l 43 1042 l 446 1042 q 698 981 603 1042 q 793 785 793 920 q 703 590 793 650 q 446 531 614 531 l 293 531 z "},"C":{"ha":994,"x_min":77,"x_max":901,"o":"m 549 -14 q 301 56 408 -14 q 136 246 195 125 q 77 521 77 367 q 136 796 77 676 q 301 986 195 917 q 549 1056 408 1056 q 681 1032 618 1056 q 791 965 744 1008 l 863 1042 l 888 1042 l 888 757 l 860 757 q 814 898 856 838 q 705 990 771 958 q 563 1023 638 1023 q 409 981 472 1023 q 309 866 347 938 q 253 705 271 794 q 236 521 236 615 q 253 337 236 426 q 309 175 271 247 q 409 61 347 103 q 563 19 472 19 q 687 39 631 19 q 784 96 743 60 q 848 181 825 133 q 874 285 871 229 l 901 285 l 901 0 l 877 0 l 811 82 q 696 12 764 38 q 549 -14 628 -14 z "},"Ć":{"ha":994,"x_min":77,"x_max":901,"o":"m 549 -14 q 301 56 408 -14 q 136 246 195 125 q 77 521 77 367 q 136 796 77 676 q 301 986 195 917 q 549 1056 408 1056 q 681 1032 618 1056 q 791 965 744 1008 l 863 1042 l 888 1042 l 888 757 l 860 757 q 814 898 856 838 q 705 990 771 958 q 563 1023 638 1023 q 409 981 472 1023 q 309 866 347 938 q 253 705 271 794 q 236 521 236 615 q 253 337 236 426 q 309 175 271 247 q 409 61 347 103 q 563 19 472 19 q 687 39 631 19 q 784 96 743 60 q 848 181 825 133 q 874 285 871 229 l 901 285 l 901 0 l 877 0 l 811 82 q 696 12 764 38 q 549 -14 628 -14 m 508 1167 l 491 1186 l 631 1338 q 660 1354 645 1353 q 689 1349 676 1356 q 709 1330 703 1342 q 715 1305 716 1319 q 708 1280 715 1291 q 690 1262 702 1268 l 508 1167 z "},"Č":{"ha":994,"x_min":77,"x_max":901,"o":"m 549 -14 q 301 56 408 -14 q 136 246 195 125 q 77 521 77 367 q 136 796 77 676 q 301 986 195 917 q 549 1056 408 1056 q 681 1032 618 1056 q 791 965 744 1008 l 863 1042 l 888 1042 l 888 757 l 860 757 q 814 898 856 838 q 705 990 771 958 q 563 1023 638 1023 q 409 981 472 1023 q 309 866 347 938 q 253 705 271 794 q 236 521 236 615 q 253 337 236 426 q 309 175 271 247 q 409 61 347 103 q 563 19 472 19 q 687 39 631 19 q 784 96 743 60 q 848 181 825 133 q 874 285 871 229 l 901 285 l 901 0 l 877 0 l 811 82 q 696 12 764 38 q 549 -14 628 -14 m 506 1181 l 353 1334 l 367 1347 l 550 1243 l 734 1347 l 749 1334 l 596 1181 l 506 1181 z "},"Ç":{"ha":994,"x_min":77,"x_max":901,"o":"m 549 -14 q 301 56 408 -14 q 136 246 195 125 q 77 521 77 367 q 136 796 77 676 q 301 986 195 917 q 549 1056 408 1056 q 681 1032 618 1056 q 791 965 744 1008 l 863 1042 l 888 1042 l 888 757 l 860 757 q 814 898 856 838 q 705 990 771 958 q 563 1023 638 1023 q 409 981 472 1023 q 309 866 347 938 q 253 705 271 794 q 236 521 236 615 q 253 337 236 426 q 309 175 271 247 q 409 61 347 103 q 563 19 472 19 q 687 39 631 19 q 784 96 743 60 q 848 181 825 133 q 874 285 871 229 l 901 285 l 901 0 l 877 0 l 811 82 q 696 12 764 38 q 549 -14 628 -14 m 447 -347 l 447 -319 q 545 -298 508 -319 q 583 -243 583 -276 q 563 -193 583 -210 q 507 -169 542 -176 q 427 -163 472 -163 l 549 0 l 583 0 l 502 -108 q 593 -122 553 -110 q 657 -157 633 -133 q 681 -220 681 -181 q 658 -284 681 -255 q 582 -330 634 -312 q 447 -347 531 -347 z "},"Ĉ":{"ha":994,"x_min":77,"x_max":901,"o":"m 549 -14 q 301 56 408 -14 q 136 246 195 125 q 77 521 77 367 q 136 796 77 676 q 301 986 195 917 q 549 1056 408 1056 q 681 1032 618 1056 q 791 965 744 1008 l 863 1042 l 888 1042 l 888 757 l 860 757 q 814 898 856 838 q 705 990 771 958 q 563 1023 638 1023 q 409 981 472 1023 q 309 866 347 938 q 253 705 271 794 q 236 521 236 615 q 253 337 236 426 q 309 175 271 247 q 409 61 347 103 q 563 19 472 19 q 687 39 631 19 q 784 96 743 60 q 848 181 825 133 q 874 285 871 229 l 901 285 l 901 0 l 877 0 l 811 82 q 696 12 764 38 q 549 -14 628 -14 m 367 1179 l 353 1194 l 506 1347 l 596 1347 l 749 1194 l 735 1179 l 550 1284 l 367 1179 z "},"Ċ":{"ha":994,"x_min":77,"x_max":901,"o":"m 549 -14 q 301 56 408 -14 q 136 246 195 125 q 77 521 77 367 q 136 796 77 676 q 301 986 195 917 q 549 1056 408 1056 q 681 1032 618 1056 q 791 965 744 1008 l 863 1042 l 888 1042 l 888 757 l 860 757 q 814 898 856 838 q 705 990 771 958 q 563 1023 638 1023 q 409 981 472 1023 q 309 866 347 938 q 253 705 271 794 q 236 521 236 615 q 253 337 236 426 q 309 175 271 247 q 409 61 347 103 q 563 19 472 19 q 687 39 631 19 q 784 96 743 60 q 848 181 825 133 q 874 285 871 229 l 901 285 l 901 0 l 877 0 l 811 82 q 696 12 764 38 q 549 -14 628 -14 m 551 1288 q 492 1313 517 1288 q 467 1372 467 1338 q 492 1431 467 1406 q 551 1455 517 1455 q 610 1431 585 1455 q 634 1372 634 1406 q 610 1313 634 1338 q 551 1288 585 1288 z "},"D":{"ha":1008,"x_min":43,"x_max":932,"o":"m 432 1042 q 699 973 587 1042 q 871 787 810 905 q 932 521 932 669 q 896 315 932 410 q 793 149 860 220 q 635 39 726 78 q 432 0 543 0 l 43 0 l 43 27 l 168 27 l 168 1015 l 43 1015 l 43 1042 l 432 1042 m 301 27 l 432 27 q 593 68 528 27 q 698 179 658 109 q 755 338 738 249 q 772 521 772 426 q 753 704 772 615 q 693 863 733 792 q 588 974 652 933 q 432 1015 523 1015 l 301 1015 l 301 27 z "},"Ď":{"ha":1008,"x_min":43,"x_max":932,"o":"m 432 1042 q 699 973 587 1042 q 871 787 810 905 q 932 521 932 669 q 896 315 932 410 q 793 149 860 220 q 635 39 726 78 q 432 0 543 0 l 43 0 l 43 27 l 168 27 l 168 1015 l 43 1015 l 43 1042 l 432 1042 m 301 27 l 432 27 q 593 68 528 27 q 698 179 658 109 q 755 338 738 249 q 772 521 772 426 q 753 704 772 615 q 693 863 733 792 q 588 974 652 933 q 432 1015 523 1015 l 301 1015 l 301 27 m 379 1181 l 226 1334 l 241 1347 l 424 1243 l 608 1347 l 622 1334 l 469 1181 l 379 1181 z "},"Đ":{"ha":1008,"x_min":43,"x_max":932,"o":"m 60 508 l 60 534 l 490 534 l 490 508 l 60 508 m 432 1042 q 699 973 587 1042 q 871 787 810 905 q 932 521 932 669 q 896 315 932 410 q 793 149 860 220 q 635 39 726 78 q 432 0 543 0 l 43 0 l 43 27 l 168 27 l 168 1015 l 43 1015 l 43 1042 l 432 1042 m 301 27 l 432 27 q 593 68 528 27 q 698 179 658 109 q 755 338 738 249 q 772 521 772 426 q 753 704 772 615 q 693 863 733 792 q 588 974 652 933 q 432 1015 523 1015 l 301 1015 l 301 27 z "},"Ð":{"ha":1008,"x_min":43,"x_max":932,"o":"m 60 508 l 60 534 l 490 534 l 490 508 l 60 508 m 432 1042 q 699 973 587 1042 q 871 787 810 905 q 932 521 932 669 q 896 315 932 410 q 793 149 860 220 q 635 39 726 78 q 432 0 543 0 l 43 0 l 43 27 l 168 27 l 168 1015 l 43 1015 l 43 1042 l 432 1042 m 301 27 l 432 27 q 593 68 528 27 q 698 179 658 109 q 755 338 738 249 q 772 521 772 426 q 753 704 772 615 q 693 863 733 792 q 588 974 652 933 q 432 1015 523 1015 l 301 1015 l 301 27 z "},"E":{"ha":859,"x_min":43,"x_max":798,"o":"m 43 0 l 43 27 l 168 27 l 168 1015 l 43 1015 l 43 1042 l 784 1042 l 784 757 l 757 757 q 736 890 757 831 q 666 981 715 948 q 537 1015 618 1015 l 301 1015 l 301 27 l 522 27 q 672 62 617 27 q 748 160 726 97 q 771 313 771 224 l 798 313 l 798 0 l 43 0 m 521 387 q 503 464 521 433 q 454 510 485 494 q 383 525 423 525 l 267 525 l 267 552 l 383 552 q 454 566 423 552 q 503 609 485 580 q 521 685 521 638 l 548 685 l 548 387 l 521 387 z "},"É":{"ha":859,"x_min":43,"x_max":798,"o":"m 43 0 l 43 27 l 168 27 l 168 1015 l 43 1015 l 43 1042 l 784 1042 l 784 757 l 757 757 q 736 890 757 831 q 666 981 715 948 q 537 1015 618 1015 l 301 1015 l 301 27 l 522 27 q 672 62 617 27 q 748 160 726 97 q 771 313 771 224 l 798 313 l 798 0 l 43 0 m 521 387 q 503 464 521 433 q 454 510 485 494 q 383 525 423 525 l 267 525 l 267 552 l 383 552 q 454 566 423 552 q 503 609 485 580 q 521 685 521 638 l 548 685 l 548 387 l 521 387 m 409 1167 l 392 1186 l 533 1338 q 562 1354 547 1353 q 591 1349 577 1356 q 610 1330 604 1342 q 617 1305 617 1319 q 610 1280 616 1291 q 592 1262 603 1268 l 409 1167 z "},"Ĕ":{"ha":859,"x_min":43,"x_max":798,"o":"m 43 0 l 43 27 l 168 27 l 168 1015 l 43 1015 l 43 1042 l 784 1042 l 784 757 l 757 757 q 736 890 757 831 q 666 981 715 948 q 537 1015 618 1015 l 301 1015 l 301 27 l 522 27 q 672 62 617 27 q 748 160 726 97 q 771 313 771 224 l 798 313 l 798 0 l 43 0 m 521 387 q 503 464 521 433 q 454 510 485 494 q 383 525 423 525 l 267 525 l 267 552 l 383 552 q 454 566 423 552 q 503 609 485 580 q 521 685 521 638 l 548 685 l 548 387 l 521 387 m 451 1167 q 356 1194 388 1167 q 311 1262 323 1221 q 299 1346 299 1303 l 314 1346 q 333 1289 314 1312 q 383 1255 351 1266 q 451 1243 414 1243 q 520 1255 488 1243 q 570 1289 551 1266 q 589 1346 589 1312 l 604 1346 q 592 1262 604 1303 q 547 1194 580 1221 q 451 1167 513 1167 z "},"Ě":{"ha":859,"x_min":43,"x_max":798,"o":"m 43 0 l 43 27 l 168 27 l 168 1015 l 43 1015 l 43 1042 l 784 1042 l 784 757 l 757 757 q 736 890 757 831 q 666 981 715 948 q 537 1015 618 1015 l 301 1015 l 301 27 l 522 27 q 672 62 617 27 q 748 160 726 97 q 771 313 771 224 l 798 313 l 798 0 l 43 0 m 521 387 q 503 464 521 433 q 454 510 485 494 q 383 525 423 525 l 267 525 l 267 552 l 383 552 q 454 566 423 552 q 503 609 485 580 q 521 685 521 638 l 548 685 l 548 387 l 521 387 m 407 1181 l 254 1334 l 269 1347 l 451 1243 l 635 1347 l 650 1334 l 497 1181 l 407 1181 z "},"Ê":{"ha":859,"x_min":43,"x_max":798,"o":"m 43 0 l 43 27 l 168 27 l 168 1015 l 43 1015 l 43 1042 l 784 1042 l 784 757 l 757 757 q 736 890 757 831 q 666 981 715 948 q 537 1015 618 1015 l 301 1015 l 301 27 l 522 27 q 672 62 617 27 q 748 160 726 97 q 771 313 771 224 l 798 313 l 798 0 l 43 0 m 521 387 q 503 464 521 433 q 454 510 485 494 q 383 525 423 525 l 267 525 l 267 552 l 383 552 q 454 566 423 552 q 503 609 485 580 q 521 685 521 638 l 548 685 l 548 387 l 521 387 m 268 1179 l 254 1194 l 407 1347 l 497 1347 l 650 1194 l 636 1179 l 451 1284 l 268 1179 z "},"Ë":{"ha":859,"x_min":43,"x_max":798,"o":"m 43 0 l 43 27 l 168 27 l 168 1015 l 43 1015 l 43 1042 l 784 1042 l 784 757 l 757 757 q 736 890 757 831 q 666 981 715 948 q 537 1015 618 1015 l 301 1015 l 301 27 l 522 27 q 672 62 617 27 q 748 160 726 97 q 771 313 771 224 l 798 313 l 798 0 l 43 0 m 521 387 q 503 464 521 433 q 454 510 485 494 q 383 525 423 525 l 267 525 l 267 552 l 383 552 q 454 566 423 552 q 503 609 485 580 q 521 685 521 638 l 548 685 l 548 387 l 521 387 m 562 1174 q 515 1193 534 1174 q 495 1240 495 1213 q 515 1288 495 1268 q 562 1308 534 1308 q 609 1288 590 1308 q 628 1240 628 1268 q 609 1193 628 1213 q 562 1174 590 1174 m 340 1174 q 292 1193 312 1174 q 273 1240 273 1213 q 292 1288 273 1268 q 340 1308 312 1308 q 387 1288 367 1308 q 406 1240 406 1268 q 387 1193 406 1213 q 340 1174 367 1174 z "},"Ė":{"ha":859,"x_min":43,"x_max":798,"o":"m 43 0 l 43 27 l 168 27 l 168 1015 l 43 1015 l 43 1042 l 784 1042 l 784 757 l 757 757 q 736 890 757 831 q 666 981 715 948 q 537 1015 618 1015 l 301 1015 l 301 27 l 522 27 q 672 62 617 27 q 748 160 726 97 q 771 313 771 224 l 798 313 l 798 0 l 43 0 m 521 387 q 503 464 521 433 q 454 510 485 494 q 383 525 423 525 l 267 525 l 267 552 l 383 552 q 454 566 423 552 q 503 609 485 580 q 521 685 521 638 l 548 685 l 548 387 l 521 387 m 452 1288 q 393 1313 418 1288 q 369 1372 369 1338 q 393 1431 369 1406 q 452 1455 418 1455 q 511 1431 487 1455 q 535 1372 535 1406 q 511 1313 535 1338 q 452 1288 487 1288 z "},"È":{"ha":859,"x_min":43,"x_max":798,"o":"m 43 0 l 43 27 l 168 27 l 168 1015 l 43 1015 l 43 1042 l 784 1042 l 784 757 l 757 757 q 736 890 757 831 q 666 981 715 948 q 537 1015 618 1015 l 301 1015 l 301 27 l 522 27 q 672 62 617 27 q 748 160 726 97 q 771 313 771 224 l 798 313 l 798 0 l 43 0 m 521 387 q 503 464 521 433 q 454 510 485 494 q 383 525 423 525 l 267 525 l 267 552 l 383 552 q 454 566 423 552 q 503 609 485 580 q 521 685 521 638 l 548 685 l 548 387 l 521 387 m 493 1167 l 310 1262 q 293 1280 299 1268 q 286 1305 286 1291 q 292 1330 285 1319 q 312 1349 299 1342 q 341 1354 325 1356 q 369 1338 356 1353 l 510 1186 l 493 1167 z "},"Ē":{"ha":859,"x_min":43,"x_max":798,"o":"m 43 0 l 43 27 l 168 27 l 168 1015 l 43 1015 l 43 1042 l 784 1042 l 784 757 l 757 757 q 736 890 757 831 q 666 981 715 948 q 537 1015 618 1015 l 301 1015 l 301 27 l 522 27 q 672 62 617 27 q 748 160 726 97 q 771 313 771 224 l 798 313 l 798 0 l 43 0 m 521 387 q 503 464 521 433 q 454 510 485 494 q 383 525 423 525 l 267 525 l 267 552 l 383 552 q 454 566 423 552 q 503 609 485 580 q 521 685 521 638 l 548 685 l 548 387 l 521 387 m 285 1181 l 285 1208 l 618 1208 l 618 1181 l 285 1181 z "},"Ę":{"ha":859,"x_min":43,"x_max":798,"o":"m 43 0 l 43 27 l 168 27 l 168 1015 l 43 1015 l 43 1042 l 784 1042 l 784 757 l 757 757 q 736 890 757 831 q 666 981 715 948 q 537 1015 618 1015 l 301 1015 l 301 27 l 522 27 q 672 62 617 27 q 748 160 726 97 q 771 313 771 224 l 798 313 l 798 0 l 43 0 m 521 387 q 503 464 521 433 q 454 510 485 494 q 383 525 423 525 l 267 525 l 267 552 l 383 552 q 454 566 423 552 q 503 609 485 580 q 521 685 521 638 l 548 685 l 548 387 l 521 387 m 635 -291 q 566 -278 600 -291 q 508 -240 531 -266 q 485 -172 485 -213 q 503 -98 485 -130 q 551 -42 522 -66 q 614 -1 580 -17 q 680 26 648 16 l 688 12 q 650 -23 667 0 q 624 -76 633 -45 q 615 -144 615 -107 q 633 -216 615 -187 q 687 -244 651 -244 q 741 -225 720 -244 q 777 -178 762 -205 l 794 -190 q 766 -233 785 -210 q 716 -274 748 -257 q 635 -291 685 -291 z "},"F":{"ha":831,"x_min":43,"x_max":770,"o":"m 534 372 q 517 448 534 419 q 461 491 499 477 q 363 505 424 505 l 272 505 l 272 531 l 363 531 q 461 543 424 531 q 517 582 499 555 q 534 656 534 610 l 562 656 l 562 372 l 534 372 m 770 1042 l 770 757 l 743 757 q 722 890 743 831 q 652 981 700 948 q 522 1015 603 1015 l 301 1015 l 301 27 l 439 27 l 439 0 l 43 0 l 43 27 l 168 27 l 168 1015 l 43 1015 l 43 1042 l 770 1042 z "},"G":{"ha":1026,"x_min":77,"x_max":994,"o":"m 618 411 l 994 411 l 994 381 l 910 381 l 910 229 q 865 155 894 197 q 789 75 835 113 q 678 11 742 36 q 528 -14 613 -14 q 283 56 384 -14 q 130 246 183 125 q 77 521 77 367 q 111 734 77 637 q 207 904 144 832 q 356 1016 269 976 q 549 1056 443 1056 q 680 1032 617 1056 q 790 965 743 1008 l 863 1042 l 888 1042 l 888 757 l 860 757 q 832 868 857 819 q 765 951 807 917 q 672 1005 724 986 q 563 1023 619 1023 q 409 981 472 1023 q 309 866 347 938 q 253 705 271 794 q 236 521 236 615 q 249 336 236 426 q 294 173 262 246 q 383 57 326 100 q 528 14 440 14 q 636 34 593 14 q 706 82 680 54 q 746 136 732 110 q 765 174 760 163 l 765 381 l 618 381 l 618 411 z "},"Ğ":{"ha":1026,"x_min":77,"x_max":994,"o":"m 618 411 l 994 411 l 994 381 l 910 381 l 910 229 q 865 155 894 197 q 789 75 835 113 q 678 11 742 36 q 528 -14 613 -14 q 283 56 384 -14 q 130 246 183 125 q 77 521 77 367 q 111 734 77 637 q 207 904 144 832 q 356 1016 269 976 q 549 1056 443 1056 q 680 1032 617 1056 q 790 965 743 1008 l 863 1042 l 888 1042 l 888 757 l 860 757 q 832 868 857 819 q 765 951 807 917 q 672 1005 724 986 q 563 1023 619 1023 q 409 981 472 1023 q 309 866 347 938 q 253 705 271 794 q 236 521 236 615 q 249 336 236 426 q 294 173 262 246 q 383 57 326 100 q 528 14 440 14 q 636 34 593 14 q 706 82 680 54 q 746 136 732 110 q 765 174 760 163 l 765 381 l 618 381 l 618 411 m 549 1167 q 454 1194 487 1167 q 410 1262 422 1221 q 398 1346 398 1303 l 413 1346 q 431 1289 413 1312 q 481 1255 450 1266 q 549 1243 513 1243 q 618 1255 587 1243 q 669 1289 650 1266 q 688 1346 688 1312 l 703 1346 q 691 1262 703 1303 q 645 1194 678 1221 q 549 1167 612 1167 z "},"Ĝ":{"ha":1026,"x_min":77,"x_max":994,"o":"m 618 411 l 994 411 l 994 381 l 910 381 l 910 229 q 865 155 894 197 q 789 75 835 113 q 678 11 742 36 q 528 -14 613 -14 q 283 56 384 -14 q 130 246 183 125 q 77 521 77 367 q 111 734 77 637 q 207 904 144 832 q 356 1016 269 976 q 549 1056 443 1056 q 680 1032 617 1056 q 790 965 743 1008 l 863 1042 l 888 1042 l 888 757 l 860 757 q 832 868 857 819 q 765 951 807 917 q 672 1005 724 986 q 563 1023 619 1023 q 409 981 472 1023 q 309 866 347 938 q 253 705 271 794 q 236 521 236 615 q 249 336 236 426 q 294 173 262 246 q 383 57 326 100 q 528 14 440 14 q 636 34 593 14 q 706 82 680 54 q 746 136 732 110 q 765 174 760 163 l 765 381 l 618 381 l 618 411 m 367 1179 l 353 1194 l 506 1347 l 596 1347 l 749 1194 l 735 1179 l 550 1284 l 367 1179 z "},"Ģ":{"ha":1026,"x_min":77,"x_max":994,"o":"m 618 411 l 994 411 l 994 381 l 910 381 l 910 229 q 865 155 894 197 q 789 75 835 113 q 678 11 742 36 q 528 -14 613 -14 q 283 56 384 -14 q 130 246 183 125 q 77 521 77 367 q 111 734 77 637 q 207 904 144 832 q 356 1016 269 976 q 549 1056 443 1056 q 680 1032 617 1056 q 790 965 743 1008 l 863 1042 l 888 1042 l 888 757 l 860 757 q 832 868 857 819 q 765 951 807 917 q 672 1005 724 986 q 563 1023 619 1023 q 409 981 472 1023 q 309 866 347 938 q 253 705 271 794 q 236 521 236 615 q 249 336 236 426 q 294 173 262 246 q 383 57 326 100 q 528 14 440 14 q 636 34 593 14 q 706 82 680 54 q 746 136 732 110 q 765 174 760 163 l 765 381 l 618 381 l 618 411 m 456 -428 l 456 -405 q 530 -379 499 -405 q 576 -311 561 -353 q 583 -220 590 -269 l 591 -220 q 585 -242 592 -230 q 562 -262 577 -253 q 528 -270 547 -270 q 475 -251 492 -270 q 458 -205 458 -232 q 467 -171 458 -186 q 494 -148 477 -156 q 532 -139 511 -139 q 587 -166 565 -139 q 610 -247 610 -194 q 592 -333 610 -291 q 540 -401 574 -374 q 456 -428 506 -428 z "},"Ġ":{"ha":1026,"x_min":77,"x_max":994,"o":"m 618 411 l 994 411 l 994 381 l 910 381 l 910 229 q 865 155 894 197 q 789 75 835 113 q 678 11 742 36 q 528 -14 613 -14 q 283 56 384 -14 q 130 246 183 125 q 77 521 77 367 q 111 734 77 637 q 207 904 144 832 q 356 1016 269 976 q 549 1056 443 1056 q 680 1032 617 1056 q 790 965 743 1008 l 863 1042 l 888 1042 l 888 757 l 860 757 q 832 868 857 819 q 765 951 807 917 q 672 1005 724 986 q 563 1023 619 1023 q 409 981 472 1023 q 309 866 347 938 q 253 705 271 794 q 236 521 236 615 q 249 336 236 426 q 294 173 262 246 q 383 57 326 100 q 528 14 440 14 q 636 34 593 14 q 706 82 680 54 q 746 136 732 110 q 765 174 760 163 l 765 381 l 618 381 l 618 411 m 551 1288 q 492 1313 517 1288 q 467 1372 467 1338 q 492 1431 467 1406 q 551 1455 517 1455 q 610 1431 585 1455 q 634 1372 634 1406 q 610 1313 634 1338 q 551 1288 585 1288 z "},"H":{"ha":1058,"x_min":43,"x_max":1015,"o":"m 1015 1042 l 1015 1015 l 890 1015 l 890 27 l 1015 27 l 1015 0 l 619 0 l 619 27 l 758 27 l 758 500 l 301 500 l 301 27 l 439 27 l 439 0 l 43 0 l 43 27 l 168 27 l 168 1015 l 43 1015 l 43 1042 l 439 1042 l 439 1015 l 301 1015 l 301 528 l 758 528 l 758 1015 l 619 1015 l 619 1042 l 1015 1042 z "},"Ħ":{"ha":1058,"x_min":43,"x_max":1015,"o":"m 43 760 l 43 787 l 1015 787 l 1015 760 l 43 760 m 1015 1042 l 1015 1015 l 890 1015 l 890 27 l 1015 27 l 1015 0 l 619 0 l 619 27 l 758 27 l 758 500 l 301 500 l 301 27 l 439 27 l 439 0 l 43 0 l 43 27 l 168 27 l 168 1015 l 43 1015 l 43 1042 l 439 1042 l 439 1015 l 301 1015 l 301 528 l 758 528 l 758 1015 l 619 1015 l 619 1042 l 1015 1042 z "},"Ĥ":{"ha":1058,"x_min":43,"x_max":1015,"o":"m 1015 1042 l 1015 1015 l 890 1015 l 890 27 l 1015 27 l 1015 0 l 619 0 l 619 27 l 758 27 l 758 500 l 301 500 l 301 27 l 439 27 l 439 0 l 43 0 l 43 27 l 168 27 l 168 1015 l 43 1015 l 43 1042 l 439 1042 l 439 1015 l 301 1015 l 301 528 l 758 528 l 758 1015 l 619 1015 l 619 1042 l 1015 1042 m 347 1179 l 333 1194 l 486 1347 l 576 1347 l 729 1194 l 715 1179 l 531 1284 l 347 1179 z "},"I":{"ha":538,"x_min":43,"x_max":494,"o":"m 43 0 l 43 27 l 196 27 l 196 1015 l 43 1015 l 43 1042 l 494 1042 l 494 1015 l 328 1015 l 328 27 l 494 27 l 494 0 l 43 0 z "},"Ĳ":{"ha":1190,"x_min":43,"x_max":1110,"o":"m 43 0 l 43 27 l 196 27 l 196 1015 l 43 1015 l 43 1042 l 494 1042 l 494 1015 l 328 1015 l 328 27 l 494 27 l 494 0 l 43 0 m 1110 1042 l 1110 1015 l 972 1015 l 972 236 q 944 152 961 199 q 899 60 926 105 q 830 -13 872 16 q 728 -42 788 -42 q 638 -19 675 -42 q 580 38 600 3 q 560 108 560 73 q 572 157 560 137 q 601 188 583 177 q 640 198 619 198 q 675 190 657 198 q 706 163 693 181 q 718 117 718 145 q 706 72 718 89 q 674 47 693 54 q 633 41 655 40 q 614 50 624 42 q 600 71 603 58 q 625 30 608 49 q 666 -1 642 11 q 722 -13 691 -13 q 798 16 772 -13 q 832 106 823 44 q 840 264 840 167 l 840 1015 l 660 1015 l 660 1042 l 1110 1042 z "},"Í":{"ha":538,"x_min":43,"x_max":494,"o":"m 43 0 l 43 27 l 196 27 l 196 1015 l 43 1015 l 43 1042 l 494 1042 l 494 1015 l 328 1015 l 328 27 l 494 27 l 494 0 l 43 0 m 222 1167 l 206 1186 l 346 1338 q 375 1354 360 1353 q 404 1349 390 1356 q 424 1330 417 1342 q 430 1305 431 1319 q 423 1280 429 1291 q 405 1262 417 1268 l 222 1167 z "},"Ĭ":{"ha":538,"x_min":43,"x_max":494,"o":"m 43 0 l 43 27 l 196 27 l 196 1015 l 43 1015 l 43 1042 l 494 1042 l 494 1015 l 328 1015 l 328 27 l 494 27 l 494 0 l 43 0 m 264 1167 q 169 1194 201 1167 q 124 1262 136 1221 q 113 1346 113 1303 l 127 1346 q 146 1289 127 1312 q 196 1255 165 1266 q 264 1243 227 1243 q 333 1255 301 1243 q 383 1289 365 1266 q 402 1346 402 1312 l 417 1346 q 405 1262 417 1303 q 360 1194 393 1221 q 264 1167 326 1167 z "},"Î":{"ha":538,"x_min":43,"x_max":494,"o":"m 43 0 l 43 27 l 196 27 l 196 1015 l 43 1015 l 43 1042 l 494 1042 l 494 1015 l 328 1015 l 328 27 l 494 27 l 494 0 l 43 0 m 81 1179 l 67 1194 l 219 1347 l 310 1347 l 463 1194 l 449 1179 l 264 1284 l 81 1179 z "},"Ï":{"ha":538,"x_min":43,"x_max":494,"o":"m 43 0 l 43 27 l 196 27 l 196 1015 l 43 1015 l 43 1042 l 494 1042 l 494 1015 l 328 1015 l 328 27 l 494 27 l 494 0 l 43 0 m 374 1174 q 327 1193 347 1174 q 308 1240 308 1213 q 327 1288 308 1268 q 374 1308 347 1308 q 422 1288 402 1308 q 441 1240 441 1268 q 422 1193 441 1213 q 374 1174 402 1174 m 152 1174 q 105 1193 124 1174 q 85 1240 85 1213 q 105 1288 85 1268 q 152 1308 124 1308 q 199 1288 180 1308 q 219 1240 219 1268 q 199 1193 219 1213 q 152 1174 180 1174 z "},"İ":{"ha":538,"x_min":43,"x_max":494,"o":"m 43 0 l 43 27 l 196 27 l 196 1015 l 43 1015 l 43 1042 l 494 1042 l 494 1015 l 328 1015 l 328 27 l 494 27 l 494 0 l 43 0 m 265 1288 q 206 1313 231 1288 q 181 1372 181 1338 q 206 1431 181 1406 q 265 1455 231 1455 q 324 1431 299 1455 q 348 1372 348 1406 q 324 1313 348 1338 q 265 1288 299 1288 z "},"Ì":{"ha":538,"x_min":43,"x_max":494,"o":"m 43 0 l 43 27 l 196 27 l 196 1015 l 43 1015 l 43 1042 l 494 1042 l 494 1015 l 328 1015 l 328 27 l 494 27 l 494 0 l 43 0 m 306 1167 l 124 1262 q 106 1280 113 1268 q 99 1305 99 1291 q 105 1330 99 1319 q 125 1349 112 1342 q 154 1354 138 1356 q 183 1338 169 1353 l 323 1186 l 306 1167 z "},"Ī":{"ha":538,"x_min":43,"x_max":494,"o":"m 43 0 l 43 27 l 196 27 l 196 1015 l 43 1015 l 43 1042 l 494 1042 l 494 1015 l 328 1015 l 328 27 l 494 27 l 494 0 l 43 0 m 97 1181 l 97 1208 l 431 1208 l 431 1181 l 97 1181 z "},"Į":{"ha":538,"x_min":43,"x_max":494,"o":"m 43 0 l 43 27 l 196 27 l 196 1015 l 43 1015 l 43 1042 l 494 1042 l 494 1015 l 328 1015 l 328 27 l 494 27 l 494 0 l 43 0 m 260 -291 q 191 -278 225 -291 q 133 -240 156 -266 q 110 -172 110 -213 q 128 -98 110 -130 q 176 -42 147 -66 q 239 -1 205 -17 q 305 26 273 16 l 313 12 q 275 -23 292 0 q 249 -76 258 -45 q 240 -144 240 -107 q 258 -216 240 -187 q 312 -244 276 -244 q 366 -225 345 -244 q 402 -178 387 -205 l 419 -190 q 391 -233 410 -210 q 341 -274 373 -257 q 260 -291 310 -291 z "},"Ĩ":{"ha":538,"x_min":25,"x_max":508,"o":"m 43 0 l 43 27 l 196 27 l 196 1015 l 43 1015 l 43 1042 l 494 1042 l 494 1015 l 328 1015 l 328 27 l 494 27 l 494 0 l 43 0 m 376 1167 q 306 1183 337 1167 q 249 1222 275 1200 q 196 1260 222 1243 q 140 1276 170 1276 q 80 1256 106 1276 q 53 1181 53 1235 l 25 1181 q 47 1279 25 1240 q 103 1338 69 1318 q 171 1357 137 1357 q 242 1340 212 1357 q 297 1302 272 1324 q 344 1264 321 1281 q 393 1247 367 1247 q 457 1268 433 1247 q 481 1343 481 1289 l 508 1343 q 492 1239 508 1278 q 447 1183 476 1200 q 376 1167 417 1167 z "},"J":{"ha":625,"x_min":33,"x_max":583,"o":"m 583 1042 l 583 1015 l 444 1015 l 444 236 q 416 152 433 199 q 371 60 399 105 q 302 -13 344 16 q 201 -42 260 -42 q 110 -19 147 -42 q 52 38 72 3 q 33 108 33 73 q 44 157 33 137 q 73 188 55 177 q 112 198 91 198 q 147 190 129 198 q 178 163 165 181 q 190 117 190 145 q 178 72 190 89 q 146 47 165 54 q 106 41 127 40 q 86 50 96 42 q 72 71 76 58 q 97 30 80 49 q 139 -1 114 11 q 194 -13 163 -13 q 270 16 244 -13 q 304 106 295 44 q 313 264 313 167 l 313 1015 l 132 1015 l 132 1042 l 583 1042 z "},"Ĵ":{"ha":625,"x_min":33,"x_max":583,"o":"m 583 1042 l 583 1015 l 444 1015 l 444 236 q 416 152 433 199 q 371 60 399 105 q 302 -13 344 16 q 201 -42 260 -42 q 110 -19 147 -42 q 52 38 72 3 q 33 108 33 73 q 44 157 33 137 q 73 188 55 177 q 112 198 91 198 q 147 190 129 198 q 178 163 165 181 q 190 117 190 145 q 178 72 190 89 q 146 47 165 54 q 106 41 127 40 q 86 50 96 42 q 72 71 76 58 q 97 30 80 49 q 139 -1 114 11 q 194 -13 163 -13 q 270 16 244 -13 q 304 106 295 44 q 313 264 313 167 l 313 1015 l 132 1015 l 132 1042 l 583 1042 m 176 1179 l 162 1194 l 315 1347 l 405 1347 l 558 1194 l 544 1179 l 359 1284 l 176 1179 z "},"K":{"ha":979,"x_min":43,"x_max":953,"o":"m 178 301 l 707 1015 l 557 1015 l 557 1042 l 890 1042 l 890 1015 l 747 1015 l 217 301 l 178 301 m 43 0 l 43 27 l 168 27 l 168 1015 l 43 1015 l 43 1042 l 439 1042 l 439 1015 l 301 1015 l 301 27 l 439 27 l 439 0 l 43 0 m 522 0 l 522 27 l 663 27 l 370 546 l 456 653 l 828 27 l 953 27 l 953 0 l 522 0 z "},"Ķ":{"ha":979,"x_min":43,"x_max":953,"o":"m 178 301 l 707 1015 l 557 1015 l 557 1042 l 890 1042 l 890 1015 l 747 1015 l 217 301 l 178 301 m 43 0 l 43 27 l 168 27 l 168 1015 l 43 1015 l 43 1042 l 439 1042 l 439 1015 l 301 1015 l 301 27 l 439 27 l 439 0 l 43 0 m 522 0 l 522 27 l 663 27 l 370 546 l 456 653 l 828 27 l 953 27 l 953 0 l 522 0 m 406 -428 l 406 -405 q 480 -379 449 -405 q 526 -311 511 -353 q 533 -220 540 -269 l 541 -220 q 535 -242 542 -230 q 512 -262 527 -253 q 478 -270 497 -270 q 425 -251 442 -270 q 408 -205 408 -232 q 417 -171 408 -186 q 444 -148 427 -156 q 482 -139 461 -139 q 537 -166 515 -139 q 560 -247 560 -194 q 542 -333 560 -291 q 490 -401 524 -374 q 406 -428 456 -428 z "},"L":{"ha":838,"x_min":43,"x_max":791,"o":"m 43 0 l 43 27 l 168 27 l 168 1015 l 43 1015 l 43 1042 l 425 1042 l 425 1015 l 301 1015 l 301 27 l 515 27 q 647 47 597 27 q 721 104 696 67 q 755 194 747 141 q 763 313 763 247 l 791 313 l 791 0 l 43 0 z "},"Ĺ":{"ha":838,"x_min":43,"x_max":791,"o":"m 43 0 l 43 27 l 168 27 l 168 1015 l 43 1015 l 43 1042 l 425 1042 l 425 1015 l 301 1015 l 301 27 l 515 27 q 647 47 597 27 q 721 104 696 67 q 755 194 747 141 q 763 313 763 247 l 791 313 l 791 0 l 43 0 m 194 1167 l 177 1186 l 317 1338 q 347 1354 331 1353 q 375 1349 362 1356 q 395 1330 389 1342 q 401 1305 402 1319 q 394 1280 401 1291 q 376 1262 388 1268 l 194 1167 z "},"Ľ":{"ha":838,"x_min":43,"x_max":791,"o":"m 43 0 l 43 27 l 168 27 l 168 1015 l 43 1015 l 43 1042 l 425 1042 l 425 1015 l 301 1015 l 301 27 l 515 27 q 647 47 597 27 q 721 104 696 67 q 755 194 747 141 q 763 313 763 247 l 791 313 l 791 0 l 43 0 m 542 697 l 542 724 q 614 743 582 724 q 668 794 647 762 q 699 868 690 827 q 701 956 708 910 l 710 956 q 703 929 713 944 q 675 904 693 915 q 632 893 657 893 q 566 917 588 893 q 544 975 544 941 q 571 1033 544 1010 q 638 1057 598 1057 q 707 1023 678 1057 q 735 923 735 989 q 713 815 735 867 q 647 730 690 763 q 542 697 604 697 z "},"Ļ":{"ha":838,"x_min":43,"x_max":791,"o":"m 43 0 l 43 27 l 168 27 l 168 1015 l 43 1015 l 43 1042 l 425 1042 l 425 1015 l 301 1015 l 301 27 l 515 27 q 647 47 597 27 q 721 104 696 67 q 755 194 747 141 q 763 313 763 247 l 791 313 l 791 0 l 43 0 m 337 -428 l 337 -405 q 411 -379 380 -405 q 457 -311 442 -353 q 465 -220 472 -269 l 472 -220 q 466 -242 474 -230 q 443 -262 458 -253 q 409 -270 428 -270 q 356 -251 373 -270 q 339 -205 339 -232 q 349 -171 339 -186 q 375 -148 358 -156 q 413 -139 392 -139 q 468 -166 446 -139 q 491 -247 491 -194 q 473 -333 491 -291 q 421 -401 456 -374 q 337 -428 387 -428 z "},"Ŀ":{"ha":838,"x_min":43,"x_max":791,"o":"m 43 0 l 43 27 l 168 27 l 168 1015 l 43 1015 l 43 1042 l 425 1042 l 425 1015 l 301 1015 l 301 27 l 515 27 q 647 47 597 27 q 721 104 696 67 q 755 194 747 141 q 763 313 763 247 l 791 313 l 791 0 l 43 0 m 665 472 q 624 483 642 472 q 593 514 605 494 q 582 556 582 533 q 593 598 582 578 q 624 628 605 617 q 665 640 642 640 q 707 628 688 640 q 738 598 726 617 q 749 556 749 578 q 738 514 749 533 q 707 483 726 494 q 665 472 688 472 z "},"Ł":{"ha":838,"x_min":43,"x_max":791,"o":"m 52 468 l 52 501 l 531 806 l 531 774 l 52 468 m 43 0 l 43 27 l 168 27 l 168 1015 l 43 1015 l 43 1042 l 425 1042 l 425 1015 l 301 1015 l 301 27 l 515 27 q 647 47 597 27 q 721 104 696 67 q 755 194 747 141 q 763 313 763 247 l 791 313 l 791 0 l 43 0 z "},"M":{"ha":1212,"x_min":43,"x_max":1169,"o":"m 549 -14 l 163 1042 l 297 1042 l 618 173 l 919 1042 l 948 1042 l 583 -14 l 549 -14 m 177 1042 l 177 27 l 280 27 l 280 0 l 50 0 l 50 27 l 149 27 l 149 1015 l 43 1015 l 43 1042 l 177 1042 m 1169 1042 l 1169 1015 l 1072 1015 l 1072 27 l 1169 27 l 1169 0 l 828 0 l 828 27 l 940 27 l 940 1042 l 1169 1042 z "},"N":{"ha":1074,"x_min":43,"x_max":1032,"o":"m 214 1042 l 214 27 l 378 27 l 378 0 l 43 0 l 43 27 l 185 27 l 185 1015 l 43 1015 l 43 1042 l 214 1042 m 1032 1042 l 1032 1015 l 885 1015 l 885 -14 l 848 -14 l 194 1042 l 353 1042 l 858 215 l 858 1015 l 697 1015 l 697 1042 l 1032 1042 z "},"Ń":{"ha":1074,"x_min":43,"x_max":1032,"o":"m 214 1042 l 214 27 l 378 27 l 378 0 l 43 0 l 43 27 l 185 27 l 185 1015 l 43 1015 l 43 1042 l 214 1042 m 1032 1042 l 1032 1015 l 885 1015 l 885 -14 l 848 -14 l 194 1042 l 353 1042 l 858 215 l 858 1015 l 697 1015 l 697 1042 l 1032 1042 m 519 1167 l 502 1186 l 642 1338 q 672 1354 656 1353 q 700 1349 687 1356 q 720 1330 714 1342 q 726 1305 727 1319 q 719 1280 726 1291 q 701 1262 713 1268 l 519 1167 z "},"Ň":{"ha":1074,"x_min":43,"x_max":1032,"o":"m 214 1042 l 214 27 l 378 27 l 378 0 l 43 0 l 43 27 l 185 27 l 185 1015 l 43 1015 l 43 1042 l 214 1042 m 1032 1042 l 1032 1015 l 885 1015 l 885 -14 l 848 -14 l 194 1042 l 353 1042 l 858 215 l 858 1015 l 697 1015 l 697 1042 l 1032 1042 m 516 1181 l 363 1334 l 378 1347 l 560 1243 l 744 1347 l 759 1334 l 606 1181 l 516 1181 z "},"Ņ":{"ha":1074,"x_min":43,"x_max":1032,"o":"m 214 1042 l 214 27 l 378 27 l 378 0 l 43 0 l 43 27 l 185 27 l 185 1015 l 43 1015 l 43 1042 l 214 1042 m 1032 1042 l 1032 1015 l 885 1015 l 885 -14 l 848 -14 l 194 1042 l 353 1042 l 858 215 l 858 1015 l 697 1015 l 697 1042 l 1032 1042 m 431 -428 l 431 -405 q 505 -379 474 -405 q 551 -311 536 -353 q 558 -220 565 -269 l 566 -220 q 560 -242 567 -230 q 537 -262 552 -253 q 503 -270 522 -270 q 450 -251 467 -270 q 433 -205 433 -232 q 442 -171 433 -186 q 469 -148 452 -156 q 507 -139 486 -139 q 562 -166 540 -139 q 585 -247 585 -194 q 567 -333 585 -291 q 515 -401 549 -374 q 431 -428 481 -428 z "},"Ñ":{"ha":1074,"x_min":43,"x_max":1032,"o":"m 214 1042 l 214 27 l 378 27 l 378 0 l 43 0 l 43 27 l 185 27 l 185 1015 l 43 1015 l 43 1042 l 214 1042 m 1032 1042 l 1032 1015 l 885 1015 l 885 -14 l 848 -14 l 194 1042 l 353 1042 l 858 215 l 858 1015 l 697 1015 l 697 1042 l 1032 1042 m 673 1167 q 602 1183 633 1167 q 545 1222 572 1200 q 493 1260 519 1243 q 437 1276 467 1276 q 376 1256 403 1276 q 349 1181 349 1235 l 322 1181 q 344 1279 322 1240 q 400 1338 366 1318 q 467 1357 433 1357 q 539 1340 508 1357 q 593 1302 569 1324 q 640 1264 617 1281 q 690 1247 663 1247 q 753 1268 729 1247 q 778 1343 778 1289 l 805 1343 q 789 1239 805 1278 q 743 1183 773 1200 q 673 1167 714 1167 z "},"Ŋ":{"ha":1078,"x_min":57,"x_max":932,"o":"m 679 -361 q 567 -338 613 -361 q 497 -278 521 -315 q 474 -203 474 -242 q 497 -138 474 -160 q 553 -117 521 -117 q 588 -124 570 -117 q 618 -148 606 -131 q 630 -192 630 -164 q 610 -243 630 -218 q 556 -267 590 -267 q 517 -260 535 -267 q 487 -238 499 -252 q 475 -203 475 -224 l 501 -203 q 522 -265 501 -235 q 580 -314 542 -294 q 672 -333 617 -333 q 746 -302 719 -333 q 786 -219 773 -271 q 803 -102 799 -167 q 807 28 807 -38 l 807 689 q 791 811 807 753 q 744 915 775 869 q 667 985 713 960 q 562 1011 621 1011 q 435 982 489 1011 q 345 907 381 953 q 291 810 309 861 q 273 716 273 760 l 256 716 q 267 795 256 751 q 302 884 278 839 q 364 969 326 930 q 458 1031 403 1008 q 585 1055 513 1055 q 780 1007 703 1055 q 894 881 856 958 q 932 715 932 803 l 931 -16 q 920 -145 931 -83 q 881 -256 908 -208 q 804 -333 853 -305 q 679 -361 755 -361 m 57 0 l 57 27 l 369 27 l 369 0 l 57 0 m 154 0 l 154 1015 l 57 1015 l 57 1042 l 273 1042 l 273 0 l 154 0 z "},"O":{"ha":1042,"x_min":77,"x_max":965,"o":"m 522 -14 q 333 27 416 -14 q 193 142 251 69 q 107 313 136 216 q 77 521 77 410 q 109 729 77 632 q 199 899 140 826 q 339 1014 257 973 q 522 1056 421 1056 q 704 1014 622 1056 q 844 899 785 973 q 934 729 903 826 q 965 521 965 632 q 936 313 965 410 q 849 142 906 216 q 710 27 792 69 q 522 -14 627 -14 m 522 11 q 668 55 613 11 q 755 171 724 98 q 795 335 785 244 q 806 521 806 426 q 793 706 806 615 q 749 870 781 797 q 663 987 718 944 q 522 1031 607 1031 q 381 987 436 1031 q 293 870 325 944 q 249 706 262 797 q 236 521 236 615 q 247 335 236 426 q 288 171 258 244 q 375 55 318 98 q 522 11 431 11 z "},"Ó":{"ha":1042,"x_min":77,"x_max":965,"o":"m 522 -14 q 333 27 416 -14 q 193 142 251 69 q 107 313 136 216 q 77 521 77 410 q 109 729 77 632 q 199 899 140 826 q 339 1014 257 973 q 522 1056 421 1056 q 704 1014 622 1056 q 844 899 785 973 q 934 729 903 826 q 965 521 965 632 q 936 313 965 410 q 849 142 906 216 q 710 27 792 69 q 522 -14 627 -14 m 522 11 q 668 55 613 11 q 755 171 724 98 q 795 335 785 244 q 806 521 806 426 q 793 706 806 615 q 749 870 781 797 q 663 987 718 944 q 522 1031 607 1031 q 381 987 436 1031 q 293 870 325 944 q 249 706 262 797 q 236 521 236 615 q 247 335 236 426 q 288 171 258 244 q 375 55 318 98 q 522 11 431 11 m 479 1167 l 463 1186 l 603 1338 q 632 1354 617 1353 q 661 1349 647 1356 q 681 1330 674 1342 q 687 1305 688 1319 q 680 1280 686 1291 q 662 1262 674 1268 l 479 1167 z "},"Ŏ":{"ha":1042,"x_min":77,"x_max":965,"o":"m 522 -14 q 333 27 416 -14 q 193 142 251 69 q 107 313 136 216 q 77 521 77 410 q 109 729 77 632 q 199 899 140 826 q 339 1014 257 973 q 522 1056 421 1056 q 704 1014 622 1056 q 844 899 785 973 q 934 729 903 826 q 965 521 965 632 q 936 313 965 410 q 849 142 906 216 q 710 27 792 69 q 522 -14 627 -14 m 522 11 q 668 55 613 11 q 755 171 724 98 q 795 335 785 244 q 806 521 806 426 q 793 706 806 615 q 749 870 781 797 q 663 987 718 944 q 522 1031 607 1031 q 381 987 436 1031 q 293 870 325 944 q 249 706 262 797 q 236 521 236 615 q 247 335 236 426 q 288 171 258 244 q 375 55 318 98 q 522 11 431 11 m 521 1167 q 426 1194 458 1167 q 381 1262 393 1221 q 369 1346 369 1303 l 384 1346 q 403 1289 384 1312 q 453 1255 422 1266 q 521 1243 484 1243 q 590 1255 558 1243 q 640 1289 622 1266 q 659 1346 659 1312 l 674 1346 q 662 1262 674 1303 q 617 1194 650 1221 q 521 1167 583 1167 z "},"Ô":{"ha":1042,"x_min":77,"x_max":965,"o":"m 522 -14 q 333 27 416 -14 q 193 142 251 69 q 107 313 136 216 q 77 521 77 410 q 109 729 77 632 q 199 899 140 826 q 339 1014 257 973 q 522 1056 421 1056 q 704 1014 622 1056 q 844 899 785 973 q 934 729 903 826 q 965 521 965 632 q 936 313 965 410 q 849 142 906 216 q 710 27 792 69 q 522 -14 627 -14 m 522 11 q 668 55 613 11 q 755 171 724 98 q 795 335 785 244 q 806 521 806 426 q 793 706 806 615 q 749 870 781 797 q 663 987 718 944 q 522 1031 607 1031 q 381 987 436 1031 q 293 870 325 944 q 249 706 262 797 q 236 521 236 615 q 247 335 236 426 q 288 171 258 244 q 375 55 318 98 q 522 11 431 11 m 338 1179 l 324 1194 l 477 1347 l 567 1347 l 720 1194 l 706 1179 l 522 1284 l 338 1179 z "},"Ö":{"ha":1042,"x_min":77,"x_max":965,"o":"m 522 -14 q 333 27 416 -14 q 193 142 251 69 q 107 313 136 216 q 77 521 77 410 q 109 729 77 632 q 199 899 140 826 q 339 1014 257 973 q 522 1056 421 1056 q 704 1014 622 1056 q 844 899 785 973 q 934 729 903 826 q 965 521 965 632 q 936 313 965 410 q 849 142 906 216 q 710 27 792 69 q 522 -14 627 -14 m 522 11 q 668 55 613 11 q 755 171 724 98 q 795 335 785 244 q 806 521 806 426 q 793 706 806 615 q 749 870 781 797 q 663 987 718 944 q 522 1031 607 1031 q 381 987 436 1031 q 293 870 325 944 q 249 706 262 797 q 236 521 236 615 q 247 335 236 426 q 288 171 258 244 q 375 55 318 98 q 522 11 431 11 m 632 1174 q 585 1193 604 1174 q 565 1240 565 1213 q 585 1288 565 1268 q 632 1308 604 1308 q 679 1288 660 1308 q 699 1240 699 1268 q 679 1193 699 1213 q 632 1174 660 1174 m 410 1174 q 363 1193 382 1174 q 343 1240 343 1213 q 363 1288 343 1268 q 410 1308 382 1308 q 457 1288 438 1308 q 476 1240 476 1268 q 457 1193 476 1213 q 410 1174 438 1174 z "},"Ò":{"ha":1042,"x_min":77,"x_max":965,"o":"m 522 -14 q 333 27 416 -14 q 193 142 251 69 q 107 313 136 216 q 77 521 77 410 q 109 729 77 632 q 199 899 140 826 q 339 1014 257 973 q 522 1056 421 1056 q 704 1014 622 1056 q 844 899 785 973 q 934 729 903 826 q 965 521 965 632 q 936 313 965 410 q 849 142 906 216 q 710 27 792 69 q 522 -14 627 -14 m 522 11 q 668 55 613 11 q 755 171 724 98 q 795 335 785 244 q 806 521 806 426 q 793 706 806 615 q 749 870 781 797 q 663 987 718 944 q 522 1031 607 1031 q 381 987 436 1031 q 293 870 325 944 q 249 706 262 797 q 236 521 236 615 q 247 335 236 426 q 288 171 258 244 q 375 55 318 98 q 522 11 431 11 m 563 1167 l 381 1262 q 363 1280 369 1268 q 356 1305 356 1291 q 362 1330 356 1319 q 382 1349 369 1342 q 411 1354 395 1356 q 440 1338 426 1353 l 580 1186 l 563 1167 z "},"Ő":{"ha":1042,"x_min":77,"x_max":965,"o":"m 522 -14 q 333 27 416 -14 q 193 142 251 69 q 107 313 136 216 q 77 521 77 410 q 109 729 77 632 q 199 899 140 826 q 339 1014 257 973 q 522 1056 421 1056 q 704 1014 622 1056 q 844 899 785 973 q 934 729 903 826 q 965 521 965 632 q 936 313 965 410 q 849 142 906 216 q 710 27 792 69 q 522 -14 627 -14 m 522 11 q 668 55 613 11 q 755 171 724 98 q 795 335 785 244 q 806 521 806 426 q 793 706 806 615 q 749 870 781 797 q 663 987 718 944 q 522 1031 607 1031 q 381 987 436 1031 q 293 870 325 944 q 249 706 262 797 q 236 521 236 615 q 247 335 236 426 q 288 171 258 244 q 375 55 318 98 q 522 11 431 11 m 340 1167 l 324 1186 l 464 1338 q 493 1354 478 1353 q 522 1349 508 1356 q 542 1330 535 1342 q 548 1305 549 1319 q 541 1280 547 1291 q 523 1262 535 1268 l 340 1167 m 625 1167 l 608 1186 l 749 1338 q 778 1354 763 1353 q 807 1349 793 1356 q 826 1330 820 1342 q 833 1305 833 1319 q 826 1280 832 1291 q 808 1262 819 1268 l 625 1167 z "},"Ō":{"ha":1042,"x_min":77,"x_max":965,"o":"m 522 -14 q 333 27 416 -14 q 193 142 251 69 q 107 313 136 216 q 77 521 77 410 q 109 729 77 632 q 199 899 140 826 q 339 1014 257 973 q 522 1056 421 1056 q 704 1014 622 1056 q 844 899 785 973 q 934 729 903 826 q 965 521 965 632 q 936 313 965 410 q 849 142 906 216 q 710 27 792 69 q 522 -14 627 -14 m 522 11 q 668 55 613 11 q 755 171 724 98 q 795 335 785 244 q 806 521 806 426 q 793 706 806 615 q 749 870 781 797 q 663 987 718 944 q 522 1031 607 1031 q 381 987 436 1031 q 293 870 325 944 q 249 706 262 797 q 236 521 236 615 q 247 335 236 426 q 288 171 258 244 q 375 55 318 98 q 522 11 431 11 m 355 1181 l 355 1208 l 688 1208 l 688 1181 l 355 1181 z "},"Ø":{"ha":1042,"x_min":77,"x_max":965,"o":"m 224 -139 l 819 1153 l 847 1153 l 251 -139 l 224 -139 m 522 -14 q 333 27 416 -14 q 193 142 251 69 q 107 313 136 216 q 77 521 77 410 q 109 729 77 632 q 199 899 140 826 q 339 1014 257 973 q 522 1056 421 1056 q 704 1014 622 1056 q 844 899 785 973 q 934 729 903 826 q 965 521 965 632 q 936 313 965 410 q 849 142 906 216 q 710 27 792 69 q 522 -14 627 -14 m 522 11 q 668 55 613 11 q 755 171 724 98 q 795 335 785 244 q 806 521 806 426 q 793 706 806 615 q 749 870 781 797 q 663 987 718 944 q 522 1031 607 1031 q 381 987 436 1031 q 293 870 325 944 q 249 706 262 797 q 236 521 236 615 q 247 335 236 426 q 288 171 258 244 q 375 55 318 98 q 522 11 431 11 z "},"Õ":{"ha":1042,"x_min":77,"x_max":965,"o":"m 522 -14 q 333 27 416 -14 q 193 142 251 69 q 107 313 136 216 q 77 521 77 410 q 109 729 77 632 q 199 899 140 826 q 339 1014 257 973 q 522 1056 421 1056 q 704 1014 622 1056 q 844 899 785 973 q 934 729 903 826 q 965 521 965 632 q 936 313 965 410 q 849 142 906 216 q 710 27 792 69 q 522 -14 627 -14 m 522 11 q 668 55 613 11 q 755 171 724 98 q 795 335 785 244 q 806 521 806 426 q 793 706 806 615 q 749 870 781 797 q 663 987 718 944 q 522 1031 607 1031 q 381 987 436 1031 q 293 870 325 944 q 249 706 262 797 q 236 521 236 615 q 247 335 236 426 q 288 171 258 244 q 375 55 318 98 q 522 11 431 11 m 634 1167 q 564 1183 594 1167 q 506 1222 533 1200 q 454 1260 480 1243 q 398 1276 428 1276 q 337 1256 364 1276 q 310 1181 310 1235 l 283 1181 q 305 1279 283 1240 q 361 1338 327 1318 q 428 1357 394 1357 q 500 1340 469 1357 q 554 1302 530 1324 q 601 1264 578 1281 q 651 1247 624 1247 q 715 1268 690 1247 q 739 1343 739 1289 l 766 1343 q 750 1239 766 1278 q 705 1183 734 1200 q 634 1167 675 1167 z "},"Œ":{"ha":1347,"x_min":56,"x_max":1285,"o":"m 544 1015 m 216 521 q 232 704 216 615 q 284 863 247 792 q 385 974 322 933 q 544 1015 449 1015 l 531 1042 q 283 976 390 1042 q 116 793 176 910 q 56 521 56 676 q 116 249 56 367 q 283 66 176 132 q 531 0 390 0 l 544 27 q 385 68 449 27 q 284 179 322 109 q 232 338 247 249 q 216 521 216 426 m 530 0 l 530 27 l 655 27 l 655 1015 l 530 1015 l 530 1042 l 1271 1042 l 1271 757 l 1244 757 q 1223 890 1244 831 q 1153 981 1201 948 q 1024 1015 1105 1015 l 788 1015 l 788 27 l 1009 27 q 1158 62 1104 27 q 1235 160 1213 97 q 1258 313 1258 224 l 1285 313 l 1285 0 l 530 0 m 1008 387 q 990 464 1008 433 q 941 510 972 494 q 870 525 910 525 l 754 525 l 754 552 l 870 552 q 941 566 910 552 q 990 609 972 580 q 1008 685 1008 638 l 1035 685 l 1035 387 l 1008 387 z "},"P":{"ha":887,"x_min":43,"x_max":814,"o":"m 453 1042 q 658 1005 578 1042 q 776 900 738 967 q 814 742 814 833 q 776 586 814 652 q 658 485 738 521 q 453 450 578 450 l 301 450 l 301 27 l 425 27 l 425 0 l 43 0 l 43 27 l 168 27 l 168 1015 l 43 1015 l 43 1042 l 453 1042 m 301 477 l 453 477 q 541 501 503 477 q 607 563 580 524 q 647 649 633 602 q 661 742 661 696 q 647 837 661 789 q 607 925 633 885 q 541 990 580 965 q 453 1015 503 1015 l 301 1015 l 301 477 z "},"Þ":{"ha":840,"x_min":20,"x_max":792,"o":"m 249 249 l 249 278 l 431 278 q 519 301 481 278 q 584 363 558 324 q 625 448 611 401 q 639 541 639 494 q 625 634 639 588 q 584 720 611 681 q 519 783 558 759 q 431 806 481 806 l 249 806 l 249 833 l 431 833 q 706 755 619 833 q 792 541 792 676 q 706 327 792 406 q 431 249 619 249 l 249 249 m 20 0 l 20 27 l 403 27 l 403 0 l 20 0 m 146 0 l 146 1042 l 278 1042 l 278 0 l 146 0 m 20 1015 l 20 1042 l 403 1042 l 403 1015 l 20 1015 z "},"Q":{"ha":1042,"x_min":77,"x_max":965,"o":"m 757 -347 q 582 -327 646 -347 q 487 -264 517 -306 q 447 -157 456 -222 q 438 -1 438 -92 q 518 -6 479 -6 q 598 -1 558 -6 q 604 -158 598 -96 q 626 -255 610 -219 q 674 -306 642 -291 q 757 -320 706 -320 l 757 -347 m 522 -14 q 333 27 416 -14 q 193 142 251 69 q 107 313 136 216 q 77 521 77 410 q 109 729 77 632 q 199 899 140 826 q 339 1014 257 973 q 522 1056 421 1056 q 704 1014 622 1056 q 844 899 785 973 q 934 729 903 826 q 965 521 965 632 q 936 313 965 410 q 849 142 906 216 q 710 27 792 69 q 522 -14 627 -14 m 522 11 q 668 55 613 11 q 755 171 724 98 q 795 335 785 244 q 806 521 806 426 q 793 706 806 615 q 749 870 781 797 q 663 987 718 944 q 522 1031 607 1031 q 381 987 436 1031 q 293 870 325 944 q 249 706 262 797 q 236 521 236 615 q 247 335 236 426 q 288 171 258 244 q 375 55 318 98 q 522 11 431 11 z "},"R":{"ha":1002,"x_min":43,"x_max":967,"o":"m 293 524 l 293 540 l 501 540 q 615 567 568 540 q 686 647 662 594 q 710 776 710 700 q 686 905 710 851 q 615 986 662 958 q 501 1015 568 1015 l 43 1015 l 43 1042 l 501 1042 q 684 1013 606 1042 q 806 925 763 984 q 849 776 849 866 q 808 630 849 685 q 691 549 768 574 q 501 524 613 524 l 293 524 m 43 0 l 43 27 l 481 27 l 481 0 l 43 0 m 196 15 l 196 1023 l 328 1023 l 328 15 l 196 15 m 842 -7 q 748 15 781 -7 q 699 74 714 37 q 680 157 683 111 q 675 253 676 203 q 669 348 674 302 q 648 432 665 394 q 595 491 631 469 q 494 513 558 513 l 293 513 l 293 527 l 522 527 q 680 500 622 527 q 769 428 739 473 q 809 329 799 383 q 820 222 819 276 q 824 124 822 169 q 839 51 826 78 q 887 24 852 24 q 926 29 909 24 q 957 40 943 33 l 967 15 q 917 -1 950 6 q 842 -7 883 -7 z "},"Ŕ":{"ha":1002,"x_min":43,"x_max":967,"o":"m 293 524 l 293 540 l 501 540 q 615 567 568 540 q 686 647 662 594 q 710 776 710 700 q 686 905 710 851 q 615 986 662 958 q 501 1015 568 1015 l 43 1015 l 43 1042 l 501 1042 q 684 1013 606 1042 q 806 925 763 984 q 849 776 849 866 q 808 630 849 685 q 691 549 768 574 q 501 524 613 524 l 293 524 m 43 0 l 43 27 l 481 27 l 481 0 l 43 0 m 196 15 l 196 1023 l 328 1023 l 328 15 l 196 15 m 842 -7 q 748 15 781 -7 q 699 74 714 37 q 680 157 683 111 q 675 253 676 203 q 669 348 674 302 q 648 432 665 394 q 595 491 631 469 q 494 513 558 513 l 293 513 l 293 527 l 522 527 q 680 500 622 527 q 769 428 739 473 q 809 329 799 383 q 820 222 819 276 q 824 124 822 169 q 839 51 826 78 q 887 24 852 24 q 926 29 909 24 q 957 40 943 33 l 967 15 q 917 -1 950 6 q 842 -7 883 -7 m 417 1167 l 401 1186 l 541 1338 q 570 1354 555 1353 q 599 1349 585 1356 q 619 1330 613 1342 q 625 1305 626 1319 q 618 1280 624 1291 q 600 1262 612 1268 l 417 1167 z "},"Ř":{"ha":1002,"x_min":43,"x_max":967,"o":"m 293 524 l 293 540 l 501 540 q 615 567 568 540 q 686 647 662 594 q 710 776 710 700 q 686 905 710 851 q 615 986 662 958 q 501 1015 568 1015 l 43 1015 l 43 1042 l 501 1042 q 684 1013 606 1042 q 806 925 763 984 q 849 776 849 866 q 808 630 849 685 q 691 549 768 574 q 501 524 613 524 l 293 524 m 43 0 l 43 27 l 481 27 l 481 0 l 43 0 m 196 15 l 196 1023 l 328 1023 l 328 15 l 196 15 m 842 -7 q 748 15 781 -7 q 699 74 714 37 q 680 157 683 111 q 675 253 676 203 q 669 348 674 302 q 648 432 665 394 q 595 491 631 469 q 494 513 558 513 l 293 513 l 293 527 l 522 527 q 680 500 622 527 q 769 428 739 473 q 809 329 799 383 q 820 222 819 276 q 824 124 822 169 q 839 51 826 78 q 887 24 852 24 q 926 29 909 24 q 957 40 943 33 l 967 15 q 917 -1 950 6 q 842 -7 883 -7 m 415 1181 l 263 1334 l 277 1347 l 460 1243 l 644 1347 l 658 1334 l 506 1181 l 415 1181 z "},"Ŗ":{"ha":1002,"x_min":43,"x_max":967,"o":"m 293 524 l 293 540 l 501 540 q 615 567 568 540 q 686 647 662 594 q 710 776 710 700 q 686 905 710 851 q 615 986 662 958 q 501 1015 568 1015 l 43 1015 l 43 1042 l 501 1042 q 684 1013 606 1042 q 806 925 763 984 q 849 776 849 866 q 808 630 849 685 q 691 549 768 574 q 501 524 613 524 l 293 524 m 43 0 l 43 27 l 481 27 l 481 0 l 43 0 m 196 15 l 196 1023 l 328 1023 l 328 15 l 196 15 m 842 -7 q 748 15 781 -7 q 699 74 714 37 q 680 157 683 111 q 675 253 676 203 q 669 348 674 302 q 648 432 665 394 q 595 491 631 469 q 494 513 558 513 l 293 513 l 293 527 l 522 527 q 680 500 622 527 q 769 428 739 473 q 809 329 799 383 q 820 222 819 276 q 824 124 822 169 q 839 51 826 78 q 887 24 852 24 q 926 29 909 24 q 957 40 943 33 l 967 15 q 917 -1 950 6 q 842 -7 883 -7 m 444 -428 l 444 -405 q 519 -379 488 -405 q 565 -311 550 -353 q 572 -220 579 -269 l 580 -220 q 574 -242 581 -230 q 551 -262 566 -253 q 517 -270 536 -270 q 464 -251 481 -270 q 447 -205 447 -232 q 456 -171 447 -186 q 483 -148 466 -156 q 521 -139 500 -139 q 576 -166 553 -139 q 599 -247 599 -194 q 581 -333 599 -291 q 529 -401 563 -374 q 444 -428 494 -428 z "},"Ȓ":{"ha":1002,"x_min":43,"x_max":967,"o":"m 293 524 l 293 540 l 501 540 q 615 567 568 540 q 686 647 662 594 q 710 776 710 700 q 686 905 710 851 q 615 986 662 958 q 501 1015 568 1015 l 43 1015 l 43 1042 l 501 1042 q 684 1013 606 1042 q 806 925 763 984 q 849 776 849 866 q 808 630 849 685 q 691 549 768 574 q 501 524 613 524 l 293 524 m 43 0 l 43 27 l 481 27 l 481 0 l 43 0 m 196 15 l 196 1023 l 328 1023 l 328 15 l 196 15 m 842 -7 q 748 15 781 -7 q 699 74 714 37 q 680 157 683 111 q 675 253 676 203 q 669 348 674 302 q 648 432 665 394 q 595 491 631 469 q 494 513 558 513 l 293 513 l 293 527 l 522 527 q 680 500 622 527 q 769 428 739 473 q 809 329 799 383 q 820 222 819 276 q 824 124 822 169 q 839 51 826 78 q 887 24 852 24 q 926 29 909 24 q 957 40 943 33 l 967 15 q 917 -1 950 6 q 842 -7 883 -7 m 309 1167 q 321 1250 309 1209 q 366 1319 333 1292 q 462 1346 399 1346 q 557 1319 524 1346 q 602 1250 590 1292 q 614 1167 614 1209 l 599 1167 q 580 1224 599 1201 q 531 1258 562 1247 q 462 1269 499 1269 q 393 1258 425 1269 q 343 1224 362 1247 q 324 1167 324 1201 l 309 1167 z "},"S":{"ha":800,"x_min":78,"x_max":749,"o":"m 431 -20 q 276 8 341 -20 q 167 84 210 35 l 102 -14 l 78 -14 l 78 272 l 106 272 q 141 167 117 215 q 204 83 165 119 q 295 28 242 48 q 418 8 349 8 q 545 33 492 8 q 628 106 599 58 q 658 222 658 153 q 628 325 658 283 q 548 398 598 367 q 440 455 499 429 q 322 510 381 481 q 213 576 263 538 q 133 668 163 614 q 103 799 103 722 q 142 933 103 876 q 247 1023 181 991 q 392 1056 313 1056 q 518 1034 460 1056 q 618 967 576 1012 l 683 1056 l 706 1056 l 706 770 l 679 770 q 627 914 665 857 q 532 998 589 970 q 405 1025 475 1025 q 255 978 306 1025 q 203 854 203 931 q 233 761 203 799 q 311 694 263 723 q 418 640 360 665 q 535 584 476 614 q 642 515 593 555 q 720 417 690 474 q 749 278 749 360 q 710 120 749 188 q 600 17 672 53 q 431 -20 528 -20 z "},"Ś":{"ha":800,"x_min":78,"x_max":749,"o":"m 431 -20 q 276 8 341 -20 q 167 84 210 35 l 102 -14 l 78 -14 l 78 272 l 106 272 q 141 167 117 215 q 204 83 165 119 q 295 28 242 48 q 418 8 349 8 q 545 33 492 8 q 628 106 599 58 q 658 222 658 153 q 628 325 658 283 q 548 398 598 367 q 440 455 499 429 q 322 510 381 481 q 213 576 263 538 q 133 668 163 614 q 103 799 103 722 q 142 933 103 876 q 247 1023 181 991 q 392 1056 313 1056 q 518 1034 460 1056 q 618 967 576 1012 l 683 1056 l 706 1056 l 706 770 l 679 770 q 627 914 665 857 q 532 998 589 970 q 405 1025 475 1025 q 255 978 306 1025 q 203 854 203 931 q 233 761 203 799 q 311 694 263 723 q 418 640 360 665 q 535 584 476 614 q 642 515 593 555 q 720 417 690 474 q 749 278 749 360 q 710 120 749 188 q 600 17 672 53 q 431 -20 528 -20 m 355 1167 l 338 1186 l 478 1338 q 508 1354 492 1353 q 536 1349 523 1356 q 556 1330 550 1342 q 563 1305 563 1319 q 556 1280 562 1291 q 538 1262 549 1268 l 355 1167 z "},"Š":{"ha":800,"x_min":78,"x_max":749,"o":"m 431 -20 q 276 8 341 -20 q 167 84 210 35 l 102 -14 l 78 -14 l 78 272 l 106 272 q 141 167 117 215 q 204 83 165 119 q 295 28 242 48 q 418 8 349 8 q 545 33 492 8 q 628 106 599 58 q 658 222 658 153 q 628 325 658 283 q 548 398 598 367 q 440 455 499 429 q 322 510 381 481 q 213 576 263 538 q 133 668 163 614 q 103 799 103 722 q 142 933 103 876 q 247 1023 181 991 q 392 1056 313 1056 q 518 1034 460 1056 q 618 967 576 1012 l 683 1056 l 706 1056 l 706 770 l 679 770 q 627 914 665 857 q 532 998 589 970 q 405 1025 475 1025 q 255 978 306 1025 q 203 854 203 931 q 233 761 203 799 q 311 694 263 723 q 418 640 360 665 q 535 584 476 614 q 642 515 593 555 q 720 417 690 474 q 749 278 749 360 q 710 120 749 188 q 600 17 672 53 q 431 -20 528 -20 m 353 1181 l 200 1334 l 215 1347 l 397 1243 l 581 1347 l 596 1334 l 443 1181 l 353 1181 z "},"Ş":{"ha":800,"x_min":78,"x_max":749,"o":"m 431 -20 q 276 8 341 -20 q 167 84 210 35 l 102 -14 l 78 -14 l 78 272 l 106 272 q 141 167 117 215 q 204 83 165 119 q 295 28 242 48 q 418 8 349 8 q 545 33 492 8 q 628 106 599 58 q 658 222 658 153 q 628 325 658 283 q 548 398 598 367 q 440 455 499 429 q 322 510 381 481 q 213 576 263 538 q 133 668 163 614 q 103 799 103 722 q 142 933 103 876 q 247 1023 181 991 q 392 1056 313 1056 q 518 1034 460 1056 q 618 967 576 1012 l 683 1056 l 706 1056 l 706 770 l 679 770 q 627 914 665 857 q 532 998 589 970 q 405 1025 475 1025 q 255 978 306 1025 q 203 854 203 931 q 233 761 203 799 q 311 694 263 723 q 418 640 360 665 q 535 584 476 614 q 642 515 593 555 q 720 417 690 474 q 749 278 749 360 q 710 120 749 188 q 600 17 672 53 q 431 -20 528 -20 m 322 -351 l 322 -324 q 420 -302 383 -324 q 458 -247 458 -280 q 438 -197 458 -215 q 382 -174 417 -180 q 302 -167 347 -167 l 424 -4 l 458 -4 l 377 -112 q 468 -126 428 -114 q 532 -161 508 -137 q 556 -224 556 -185 q 533 -288 556 -259 q 457 -334 509 -317 q 322 -351 406 -351 z "},"Ŝ":{"ha":800,"x_min":78,"x_max":749,"o":"m 431 -20 q 276 8 341 -20 q 167 84 210 35 l 102 -14 l 78 -14 l 78 272 l 106 272 q 141 167 117 215 q 204 83 165 119 q 295 28 242 48 q 418 8 349 8 q 545 33 492 8 q 628 106 599 58 q 658 222 658 153 q 628 325 658 283 q 548 398 598 367 q 440 455 499 429 q 322 510 381 481 q 213 576 263 538 q 133 668 163 614 q 103 799 103 722 q 142 933 103 876 q 247 1023 181 991 q 392 1056 313 1056 q 518 1034 460 1056 q 618 967 576 1012 l 683 1056 l 706 1056 l 706 770 l 679 770 q 627 914 665 857 q 532 998 589 970 q 405 1025 475 1025 q 255 978 306 1025 q 203 854 203 931 q 233 761 203 799 q 311 694 263 723 q 418 640 360 665 q 535 584 476 614 q 642 515 593 555 q 720 417 690 474 q 749 278 749 360 q 710 120 749 188 q 600 17 672 53 q 431 -20 528 -20 m 214 1179 l 200 1194 l 353 1347 l 443 1347 l 596 1194 l 582 1179 l 397 1284 l 214 1179 z "},"Ș":{"ha":800,"x_min":78,"x_max":749,"o":"m 431 -20 q 276 8 341 -20 q 167 84 210 35 l 102 -14 l 78 -14 l 78 272 l 106 272 q 141 167 117 215 q 204 83 165 119 q 295 28 242 48 q 418 8 349 8 q 545 33 492 8 q 628 106 599 58 q 658 222 658 153 q 628 325 658 283 q 548 398 598 367 q 440 455 499 429 q 322 510 381 481 q 213 576 263 538 q 133 668 163 614 q 103 799 103 722 q 142 933 103 876 q 247 1023 181 991 q 392 1056 313 1056 q 518 1034 460 1056 q 618 967 576 1012 l 683 1056 l 706 1056 l 706 770 l 679 770 q 627 914 665 857 q 532 998 589 970 q 405 1025 475 1025 q 255 978 306 1025 q 203 854 203 931 q 233 761 203 799 q 311 694 263 723 q 418 640 360 665 q 535 584 476 614 q 642 515 593 555 q 720 417 690 474 q 749 278 749 360 q 710 120 749 188 q 600 17 672 53 q 431 -20 528 -20 m 358 -435 l 358 -412 q 432 -387 401 -412 q 478 -319 463 -361 q 485 -228 492 -276 l 493 -228 q 487 -249 494 -237 q 464 -269 479 -261 q 430 -278 449 -278 q 377 -259 394 -278 q 360 -212 360 -240 q 369 -179 360 -194 q 396 -155 379 -164 q 434 -147 413 -147 q 489 -174 467 -147 q 512 -254 512 -201 q 494 -340 512 -299 q 442 -409 476 -382 q 358 -435 408 -435 z "},"ẞ":{"ha":1112,"x_min":20,"x_max":1056,"o":"m 146 0 l 146 613 q 183 800 146 718 q 289 940 221 883 q 447 1026 356 997 q 643 1056 538 1056 q 825 1031 750 1056 q 947 974 900 1006 q 1015 918 994 941 l 726 559 q 664 569 705 565 q 588 576 622 573 l 908 965 q 798 1010 863 992 q 643 1028 733 1028 q 485 995 553 1028 q 373 903 418 962 q 307 766 328 844 q 285 598 285 688 l 285 0 l 146 0 m 20 0 l 20 27 l 410 27 l 410 0 l 20 0 m 709 -14 q 547 16 610 -14 q 453 92 484 45 q 423 188 423 138 q 447 255 423 231 q 507 279 471 279 q 560 259 539 279 q 582 201 582 239 q 571 162 582 179 q 542 135 560 144 q 503 125 524 125 q 465 134 483 125 q 435 157 447 142 q 424 188 424 171 l 451 188 q 468 120 451 151 q 517 65 485 89 q 590 29 548 42 q 682 16 632 16 q 815 51 765 16 q 888 142 865 85 q 910 264 910 199 q 906 332 910 294 q 884 408 901 370 q 833 478 867 447 q 738 529 798 510 q 588 549 678 549 l 588 576 q 832 549 739 576 q 974 477 925 522 q 1039 377 1022 433 q 1056 264 1056 322 q 1030 144 1056 197 q 956 57 1003 92 q 846 4 909 22 q 709 -14 783 -14 z "},"T":{"ha":935,"x_min":43,"x_max":893,"o":"m 249 0 l 249 27 l 402 27 l 402 1015 l 263 1015 q 164 995 202 1015 q 106 938 126 975 q 78 848 86 901 q 71 729 71 795 l 43 729 l 43 1042 l 893 1042 l 893 729 l 866 729 q 858 848 866 795 q 830 938 851 901 q 772 995 810 975 q 673 1015 734 1015 l 534 1015 l 534 27 l 687 27 l 687 0 l 249 0 z "},"Ŧ":{"ha":935,"x_min":43,"x_max":893,"o":"m 267 508 l 267 534 l 673 534 l 673 508 l 267 508 m 249 0 l 249 27 l 402 27 l 402 1015 l 263 1015 q 164 995 202 1015 q 106 938 126 975 q 78 848 86 901 q 71 729 71 795 l 43 729 l 43 1042 l 893 1042 l 893 729 l 866 729 q 858 848 866 795 q 830 938 851 901 q 772 995 810 975 q 673 1015 734 1015 l 534 1015 l 534 27 l 687 27 l 687 0 l 249 0 z "},"Ť":{"ha":935,"x_min":43,"x_max":893,"o":"m 249 0 l 249 27 l 402 27 l 402 1015 l 263 1015 q 164 995 202 1015 q 106 938 126 975 q 78 848 86 901 q 71 729 71 795 l 43 729 l 43 1042 l 893 1042 l 893 729 l 866 729 q 858 848 866 795 q 830 938 851 901 q 772 995 810 975 q 673 1015 734 1015 l 534 1015 l 534 27 l 687 27 l 687 0 l 249 0 m 424 1181 l 272 1334 l 286 1347 l 469 1243 l 653 1347 l 667 1334 l 515 1181 l 424 1181 z "},"Ţ":{"ha":935,"x_min":43,"x_max":893,"o":"m 249 0 l 249 27 l 402 27 l 402 1015 l 263 1015 q 164 995 202 1015 q 106 938 126 975 q 78 848 86 901 q 71 729 71 795 l 43 729 l 43 1042 l 893 1042 l 893 729 l 866 729 q 858 848 866 795 q 830 938 851 901 q 772 995 810 975 q 673 1015 734 1015 l 534 1015 l 534 27 l 687 27 l 687 0 l 249 0 m 360 -343 l 360 -316 q 459 -294 422 -316 q 497 -240 497 -272 q 476 -190 497 -207 q 421 -166 456 -172 q 341 -160 386 -160 l 463 3 l 497 3 l 416 -104 q 507 -118 467 -106 q 571 -154 547 -130 q 595 -217 595 -178 q 572 -280 595 -251 q 496 -326 548 -309 q 360 -343 444 -343 z "},"Ț":{"ha":935,"x_min":43,"x_max":893,"o":"m 249 0 l 249 27 l 402 27 l 402 1015 l 263 1015 q 164 995 202 1015 q 106 938 126 975 q 78 848 86 901 q 71 729 71 795 l 43 729 l 43 1042 l 893 1042 l 893 729 l 866 729 q 858 848 866 795 q 830 938 851 901 q 772 995 810 975 q 673 1015 734 1015 l 534 1015 l 534 27 l 687 27 l 687 0 l 249 0 m 397 -428 l 397 -405 q 471 -379 440 -405 q 517 -311 502 -353 q 524 -220 531 -269 l 532 -220 q 526 -242 533 -230 q 503 -262 518 -253 q 469 -270 488 -270 q 416 -251 433 -270 q 399 -205 399 -232 q 408 -171 399 -186 q 435 -148 418 -156 q 473 -139 452 -139 q 528 -166 506 -139 q 551 -247 551 -194 q 533 -333 551 -291 q 481 -401 515 -374 q 397 -428 447 -428 z "},"U":{"ha":1008,"x_min":39,"x_max":961,"o":"m 961 1042 l 961 1015 l 830 1015 l 830 319 q 752 64 830 148 q 510 -20 675 -20 q 247 60 331 -20 q 163 319 163 140 l 163 1015 l 39 1015 l 39 1042 l 435 1042 l 435 1015 l 296 1015 l 296 333 q 306 206 296 265 q 342 104 316 147 q 416 36 368 60 q 538 12 463 12 q 683 43 624 12 q 773 143 742 75 q 803 319 803 210 l 803 1015 l 676 1015 l 676 1042 l 961 1042 z "},"Ú":{"ha":1008,"x_min":39,"x_max":961,"o":"m 961 1042 l 961 1015 l 830 1015 l 830 319 q 752 64 830 148 q 510 -20 675 -20 q 247 60 331 -20 q 163 319 163 140 l 163 1015 l 39 1015 l 39 1042 l 435 1042 l 435 1015 l 296 1015 l 296 333 q 306 206 296 265 q 342 104 316 147 q 416 36 368 60 q 538 12 463 12 q 683 43 624 12 q 773 143 742 75 q 803 319 803 210 l 803 1015 l 676 1015 l 676 1042 l 961 1042 m 490 1167 l 474 1186 l 614 1338 q 643 1354 628 1353 q 672 1349 658 1356 q 692 1330 685 1342 q 698 1305 699 1319 q 691 1280 697 1291 q 673 1262 685 1268 l 490 1167 z "},"Ŭ":{"ha":1008,"x_min":39,"x_max":961,"o":"m 961 1042 l 961 1015 l 830 1015 l 830 319 q 752 64 830 148 q 510 -20 675 -20 q 247 60 331 -20 q 163 319 163 140 l 163 1015 l 39 1015 l 39 1042 l 435 1042 l 435 1015 l 296 1015 l 296 333 q 306 206 296 265 q 342 104 316 147 q 416 36 368 60 q 538 12 463 12 q 683 43 624 12 q 773 143 742 75 q 803 319 803 210 l 803 1015 l 676 1015 l 676 1042 l 961 1042 m 532 1167 q 437 1194 469 1167 q 392 1262 404 1221 q 381 1346 381 1303 l 395 1346 q 414 1289 395 1312 q 464 1255 433 1266 q 532 1243 495 1243 q 601 1255 569 1243 q 651 1289 633 1266 q 670 1346 670 1312 l 685 1346 q 673 1262 685 1303 q 628 1194 661 1221 q 532 1167 594 1167 z "},"Û":{"ha":1008,"x_min":39,"x_max":961,"o":"m 961 1042 l 961 1015 l 830 1015 l 830 319 q 752 64 830 148 q 510 -20 675 -20 q 247 60 331 -20 q 163 319 163 140 l 163 1015 l 39 1015 l 39 1042 l 435 1042 l 435 1015 l 296 1015 l 296 333 q 306 206 296 265 q 342 104 316 147 q 416 36 368 60 q 538 12 463 12 q 683 43 624 12 q 773 143 742 75 q 803 319 803 210 l 803 1015 l 676 1015 l 676 1042 l 961 1042 m 349 1179 l 335 1194 l 488 1347 l 578 1347 l 731 1194 l 717 1179 l 532 1284 l 349 1179 z "},"Ü":{"ha":1008,"x_min":39,"x_max":961,"o":"m 961 1042 l 961 1015 l 830 1015 l 830 319 q 752 64 830 148 q 510 -20 675 -20 q 247 60 331 -20 q 163 319 163 140 l 163 1015 l 39 1015 l 39 1042 l 435 1042 l 435 1015 l 296 1015 l 296 333 q 306 206 296 265 q 342 104 316 147 q 416 36 368 60 q 538 12 463 12 q 683 43 624 12 q 773 143 742 75 q 803 319 803 210 l 803 1015 l 676 1015 l 676 1042 l 961 1042 m 642 1174 q 595 1193 615 1174 q 576 1240 576 1213 q 595 1288 576 1268 q 642 1308 615 1308 q 690 1288 670 1308 q 709 1240 709 1268 q 690 1193 709 1213 q 642 1174 670 1174 m 420 1174 q 373 1193 392 1174 q 353 1240 353 1213 q 373 1288 353 1268 q 420 1308 392 1308 q 467 1288 448 1308 q 487 1240 487 1268 q 467 1193 487 1213 q 420 1174 448 1174 z "},"Ù":{"ha":1008,"x_min":39,"x_max":961,"o":"m 961 1042 l 961 1015 l 830 1015 l 830 319 q 752 64 830 148 q 510 -20 675 -20 q 247 60 331 -20 q 163 319 163 140 l 163 1015 l 39 1015 l 39 1042 l 435 1042 l 435 1015 l 296 1015 l 296 333 q 306 206 296 265 q 342 104 316 147 q 416 36 368 60 q 538 12 463 12 q 683 43 624 12 q 773 143 742 75 q 803 319 803 210 l 803 1015 l 676 1015 l 676 1042 l 961 1042 m 574 1167 l 392 1262 q 374 1280 381 1268 q 367 1305 367 1291 q 373 1330 367 1319 q 393 1349 380 1342 q 422 1354 406 1356 q 451 1338 438 1353 l 591 1186 l 574 1167 z "},"Ű":{"ha":1008,"x_min":39,"x_max":961,"o":"m 961 1042 l 961 1015 l 830 1015 l 830 319 q 752 64 830 148 q 510 -20 675 -20 q 247 60 331 -20 q 163 319 163 140 l 163 1015 l 39 1015 l 39 1042 l 435 1042 l 435 1015 l 296 1015 l 296 333 q 306 206 296 265 q 342 104 316 147 q 416 36 368 60 q 538 12 463 12 q 683 43 624 12 q 773 143 742 75 q 803 319 803 210 l 803 1015 l 676 1015 l 676 1042 l 961 1042 m 351 1167 l 335 1186 l 475 1338 q 504 1354 489 1353 q 533 1349 519 1356 q 553 1330 547 1342 q 559 1305 560 1319 q 552 1280 558 1291 q 534 1262 546 1268 l 351 1167 m 636 1167 l 619 1186 l 760 1338 q 789 1354 774 1353 q 818 1349 804 1356 q 838 1330 831 1342 q 844 1305 844 1319 q 837 1280 843 1291 q 819 1262 831 1268 l 636 1167 z "},"Ū":{"ha":1008,"x_min":39,"x_max":961,"o":"m 961 1042 l 961 1015 l 830 1015 l 830 319 q 752 64 830 148 q 510 -20 675 -20 q 247 60 331 -20 q 163 319 163 140 l 163 1015 l 39 1015 l 39 1042 l 435 1042 l 435 1015 l 296 1015 l 296 333 q 306 206 296 265 q 342 104 316 147 q 416 36 368 60 q 538 12 463 12 q 683 43 624 12 q 773 143 742 75 q 803 319 803 210 l 803 1015 l 676 1015 l 676 1042 l 961 1042 m 365 1181 l 365 1208 l 699 1208 l 699 1181 l 365 1181 z "},"Ų":{"ha":1008,"x_min":39,"x_max":961,"o":"m 961 1042 l 961 1015 l 830 1015 l 830 319 q 752 64 830 148 q 510 -20 675 -20 q 247 60 331 -20 q 163 319 163 140 l 163 1015 l 39 1015 l 39 1042 l 435 1042 l 435 1015 l 296 1015 l 296 333 q 306 206 296 265 q 342 104 316 147 q 416 36 368 60 q 538 12 463 12 q 683 43 624 12 q 773 143 742 75 q 803 319 803 210 l 803 1015 l 676 1015 l 676 1042 l 961 1042 m 624 -291 q 555 -278 589 -291 q 497 -240 520 -266 q 474 -172 474 -213 q 492 -98 474 -130 q 540 -42 510 -66 q 603 -1 569 -17 q 669 26 637 16 l 677 12 q 639 -23 656 0 q 613 -76 622 -45 q 603 -144 603 -107 q 622 -216 603 -187 q 676 -244 640 -244 q 730 -225 709 -244 q 766 -178 751 -205 l 783 -190 q 755 -233 774 -210 q 705 -274 737 -257 q 624 -291 674 -291 z "},"Ů":{"ha":1008,"x_min":39,"x_max":961,"o":"m 961 1042 l 961 1015 l 830 1015 l 830 319 q 752 64 830 148 q 510 -20 675 -20 q 247 60 331 -20 q 163 319 163 140 l 163 1015 l 39 1015 l 39 1042 l 435 1042 l 435 1015 l 296 1015 l 296 333 q 306 206 296 265 q 342 104 316 147 q 416 36 368 60 q 538 12 463 12 q 683 43 624 12 q 773 143 742 75 q 803 319 803 210 l 803 1015 l 676 1015 l 676 1042 l 961 1042 m 532 1167 q 443 1202 479 1167 q 408 1291 408 1238 q 443 1381 408 1344 q 532 1417 479 1417 q 621 1381 585 1417 q 657 1291 657 1344 q 621 1202 657 1238 q 532 1167 585 1167 m 532 1194 q 574 1208 558 1194 q 598 1243 590 1221 q 606 1291 606 1265 q 598 1340 606 1318 q 574 1376 590 1363 q 532 1390 558 1390 q 490 1376 506 1390 q 467 1340 474 1363 q 459 1291 459 1318 q 467 1243 459 1265 q 490 1208 474 1221 q 532 1194 506 1194 z "},"Ũ":{"ha":1008,"x_min":39,"x_max":961,"o":"m 961 1042 l 961 1015 l 830 1015 l 830 319 q 752 64 830 148 q 510 -20 675 -20 q 247 60 331 -20 q 163 319 163 140 l 163 1015 l 39 1015 l 39 1042 l 435 1042 l 435 1015 l 296 1015 l 296 333 q 306 206 296 265 q 342 104 316 147 q 416 36 368 60 q 538 12 463 12 q 683 43 624 12 q 773 143 742 75 q 803 319 803 210 l 803 1015 l 676 1015 l 676 1042 l 961 1042 m 644 1167 q 574 1183 605 1167 q 517 1222 543 1200 q 464 1260 490 1243 q 408 1276 438 1276 q 348 1256 374 1276 q 321 1181 321 1235 l 293 1181 q 315 1279 293 1240 q 371 1338 338 1318 q 439 1357 405 1357 q 510 1340 480 1357 q 565 1302 540 1324 q 612 1264 589 1281 q 661 1247 635 1247 q 725 1268 701 1247 q 749 1343 749 1289 l 776 1343 q 760 1239 776 1278 q 715 1183 744 1200 q 644 1167 685 1167 z "},"V":{"ha":1075,"x_min":43,"x_max":1032,"o":"m 1032 1042 l 1032 1015 l 912 1015 l 541 -20 l 509 -20 l 149 1015 l 43 1015 l 43 1042 l 446 1042 l 446 1015 l 302 1015 l 578 162 l 881 1015 l 710 1015 l 710 1042 l 1032 1042 z "},"W":{"ha":1395,"x_min":33,"x_max":1363,"o":"m 484 -14 l 165 1015 l 33 1015 l 33 1042 l 1022 1042 l 1022 1015 l 683 1015 l 935 196 l 1222 1015 l 1092 1015 l 1092 1042 l 1363 1042 l 1363 1015 l 1252 1015 l 893 -14 l 863 -14 l 544 1015 l 303 1015 l 558 196 l 701 597 l 715 550 l 514 -14 l 484 -14 m 781 656 l 758 678 l 875 1031 l 904 1023 l 781 656 z "},"Ẃ":{"ha":1395,"x_min":33,"x_max":1363,"o":"m 484 -14 l 165 1015 l 33 1015 l 33 1042 l 1022 1042 l 1022 1015 l 683 1015 l 935 196 l 1222 1015 l 1092 1015 l 1092 1042 l 1363 1042 l 1363 1015 l 1252 1015 l 893 -14 l 863 -14 l 544 1015 l 303 1015 l 558 196 l 701 597 l 715 550 l 514 -14 l 484 -14 m 781 656 l 758 678 l 875 1031 l 904 1023 l 781 656 m 695 1167 l 678 1186 l 819 1338 q 848 1354 833 1353 q 877 1349 863 1356 q 897 1330 890 1342 q 903 1305 903 1319 q 896 1280 902 1291 q 878 1262 890 1268 l 695 1167 z "},"Ŵ":{"ha":1395,"x_min":33,"x_max":1363,"o":"m 484 -14 l 165 1015 l 33 1015 l 33 1042 l 1022 1042 l 1022 1015 l 683 1015 l 935 196 l 1222 1015 l 1092 1015 l 1092 1042 l 1363 1042 l 1363 1015 l 1252 1015 l 893 -14 l 863 -14 l 544 1015 l 303 1015 l 558 196 l 701 597 l 715 550 l 514 -14 l 484 -14 m 781 656 l 758 678 l 875 1031 l 904 1023 l 781 656 m 554 1179 l 540 1194 l 693 1347 l 783 1347 l 936 1194 l 922 1179 l 738 1284 l 554 1179 z "},"Ẅ":{"ha":1395,"x_min":33,"x_max":1363,"o":"m 484 -14 l 165 1015 l 33 1015 l 33 1042 l 1022 1042 l 1022 1015 l 683 1015 l 935 196 l 1222 1015 l 1092 1015 l 1092 1042 l 1363 1042 l 1363 1015 l 1252 1015 l 893 -14 l 863 -14 l 544 1015 l 303 1015 l 558 196 l 701 597 l 715 550 l 514 -14 l 484 -14 m 781 656 l 758 678 l 875 1031 l 904 1023 l 781 656 m 848 1174 q 801 1193 820 1174 q 781 1240 781 1213 q 801 1288 781 1268 q 848 1308 820 1308 q 895 1288 876 1308 q 915 1240 915 1268 q 895 1193 915 1213 q 848 1174 876 1174 m 626 1174 q 578 1193 598 1174 q 559 1240 559 1213 q 578 1288 559 1268 q 626 1308 598 1308 q 673 1288 653 1308 q 692 1240 692 1268 q 673 1193 692 1213 q 626 1174 653 1174 z "},"Ẇ":{"ha":1395,"x_min":33,"x_max":1363,"o":"m 484 -14 l 165 1015 l 33 1015 l 33 1042 l 1022 1042 l 1022 1015 l 683 1015 l 935 196 l 1222 1015 l 1092 1015 l 1092 1042 l 1363 1042 l 1363 1015 l 1252 1015 l 893 -14 l 863 -14 l 544 1015 l 303 1015 l 558 196 l 701 597 l 715 550 l 514 -14 l 484 -14 m 781 656 l 758 678 l 875 1031 l 904 1023 l 781 656 m 738 1288 q 680 1313 704 1288 q 655 1372 655 1338 q 680 1431 655 1406 q 738 1455 704 1455 q 797 1431 773 1455 q 822 1372 822 1406 q 797 1313 822 1338 q 738 1288 773 1288 z "},"Ẉ":{"ha":1395,"x_min":33,"x_max":1363,"o":"m 484 -14 l 165 1015 l 33 1015 l 33 1042 l 1022 1042 l 1022 1015 l 683 1015 l 935 196 l 1222 1015 l 1092 1015 l 1092 1042 l 1363 1042 l 1363 1015 l 1252 1015 l 893 -14 l 863 -14 l 544 1015 l 303 1015 l 558 196 l 701 597 l 715 550 l 514 -14 l 484 -14 m 781 656 l 758 678 l 875 1031 l 904 1023 l 781 656 m 700 -285 q 641 -260 666 -285 q 617 -201 617 -235 q 641 -142 617 -166 q 700 -117 666 -117 q 759 -142 735 -117 q 783 -201 783 -166 q 759 -260 783 -235 q 700 -285 735 -285 z "},"Ẁ":{"ha":1395,"x_min":33,"x_max":1363,"o":"m 484 -14 l 165 1015 l 33 1015 l 33 1042 l 1022 1042 l 1022 1015 l 683 1015 l 935 196 l 1222 1015 l 1092 1015 l 1092 1042 l 1363 1042 l 1363 1015 l 1252 1015 l 893 -14 l 863 -14 l 544 1015 l 303 1015 l 558 196 l 701 597 l 715 550 l 514 -14 l 484 -14 m 781 656 l 758 678 l 875 1031 l 904 1023 l 781 656 m 779 1167 l 597 1262 q 579 1280 585 1268 q 572 1305 572 1291 q 578 1330 572 1319 q 598 1349 585 1342 q 627 1354 611 1356 q 656 1338 642 1353 l 796 1186 l 779 1167 z "},"X":{"ha":1065,"x_min":30,"x_max":1027,"o":"m 630 0 l 630 27 l 755 27 l 178 1015 l 78 1015 l 78 1042 l 467 1042 l 467 1015 l 339 1015 l 922 27 l 1027 27 l 1027 0 l 630 0 m 30 0 l 30 27 l 167 27 l 522 579 l 541 559 l 200 27 l 357 27 l 357 0 l 30 0 m 535 569 l 804 1015 l 651 1015 l 651 1042 l 951 1042 l 951 1015 l 835 1015 l 554 547 l 535 569 z "},"Y":{"ha":1019,"x_min":30,"x_max":981,"o":"m 328 0 l 328 27 l 453 27 l 453 501 l 136 1015 l 30 1015 l 30 1042 l 433 1042 l 433 1015 l 289 1015 l 569 556 l 844 1015 l 698 1015 l 698 1042 l 981 1042 l 981 1015 l 876 1015 l 585 532 l 585 27 l 724 27 l 724 0 l 328 0 z "},"Ý":{"ha":1019,"x_min":30,"x_max":981,"o":"m 328 0 l 328 27 l 453 27 l 453 501 l 136 1015 l 30 1015 l 30 1042 l 433 1042 l 433 1015 l 289 1015 l 569 556 l 844 1015 l 698 1015 l 698 1042 l 981 1042 l 981 1015 l 876 1015 l 585 532 l 585 27 l 724 27 l 724 0 l 328 0 m 493 1167 l 476 1186 l 617 1338 q 646 1354 631 1353 q 675 1349 661 1356 q 694 1330 688 1342 q 701 1305 701 1319 q 694 1280 700 1291 q 676 1262 688 1268 l 493 1167 z "},"Ŷ":{"ha":1019,"x_min":30,"x_max":981,"o":"m 328 0 l 328 27 l 453 27 l 453 501 l 136 1015 l 30 1015 l 30 1042 l 433 1042 l 433 1015 l 289 1015 l 569 556 l 844 1015 l 698 1015 l 698 1042 l 981 1042 l 981 1015 l 876 1015 l 585 532 l 585 27 l 724 27 l 724 0 l 328 0 m 352 1179 l 338 1194 l 491 1347 l 581 1347 l 734 1194 l 720 1179 l 535 1284 l 352 1179 z "},"Ÿ":{"ha":1019,"x_min":30,"x_max":981,"o":"m 328 0 l 328 27 l 453 27 l 453 501 l 136 1015 l 30 1015 l 30 1042 l 433 1042 l 433 1015 l 289 1015 l 569 556 l 844 1015 l 698 1015 l 698 1042 l 981 1042 l 981 1015 l 876 1015 l 585 532 l 585 27 l 724 27 l 724 0 l 328 0 m 646 1174 q 599 1193 618 1174 q 579 1240 579 1213 q 599 1288 579 1268 q 646 1308 618 1308 q 693 1288 674 1308 q 713 1240 713 1268 q 693 1193 713 1213 q 646 1174 674 1174 m 424 1174 q 376 1193 396 1174 q 357 1240 357 1213 q 376 1288 357 1268 q 424 1308 396 1308 q 471 1288 451 1308 q 490 1240 490 1268 q 471 1193 490 1213 q 424 1174 451 1174 z "},"Ỳ":{"ha":1019,"x_min":30,"x_max":981,"o":"m 328 0 l 328 27 l 453 27 l 453 501 l 136 1015 l 30 1015 l 30 1042 l 433 1042 l 433 1015 l 289 1015 l 569 556 l 844 1015 l 698 1015 l 698 1042 l 981 1042 l 981 1015 l 876 1015 l 585 532 l 585 27 l 724 27 l 724 0 l 328 0 m 578 1167 l 395 1262 q 377 1280 384 1268 q 370 1305 371 1291 q 376 1330 370 1319 q 397 1349 383 1342 q 425 1354 410 1356 q 454 1338 441 1353 l 594 1186 l 578 1167 z "},"Z":{"ha":801,"x_min":33,"x_max":736,"o":"m 33 0 l 33 27 l 581 1015 l 327 1015 q 182 993 233 1015 q 111 926 131 972 q 92 806 92 880 l 65 806 l 65 1042 l 727 1042 l 727 1015 l 178 27 l 474 27 q 620 50 569 27 q 689 124 670 72 q 708 264 708 176 l 736 264 l 736 0 l 33 0 z "},"Ź":{"ha":801,"x_min":33,"x_max":736,"o":"m 33 0 l 33 27 l 581 1015 l 327 1015 q 182 993 233 1015 q 111 926 131 972 q 92 806 92 880 l 65 806 l 65 1042 l 727 1042 l 727 1015 l 178 27 l 474 27 q 620 50 569 27 q 689 124 670 72 q 708 264 708 176 l 736 264 l 736 0 l 33 0 m 327 1167 l 310 1186 l 451 1338 q 480 1354 465 1353 q 509 1349 495 1356 q 528 1330 522 1342 q 535 1305 535 1319 q 528 1280 534 1291 q 510 1262 522 1268 l 327 1167 z "},"Ž":{"ha":801,"x_min":33,"x_max":736,"o":"m 33 0 l 33 27 l 581 1015 l 327 1015 q 182 993 233 1015 q 111 926 131 972 q 92 806 92 880 l 65 806 l 65 1042 l 727 1042 l 727 1015 l 178 27 l 474 27 q 620 50 569 27 q 689 124 670 72 q 708 264 708 176 l 736 264 l 736 0 l 33 0 m 325 1181 l 172 1334 l 187 1347 l 369 1243 l 553 1347 l 568 1334 l 415 1181 l 325 1181 z "},"Ż":{"ha":801,"x_min":33,"x_max":736,"o":"m 33 0 l 33 27 l 581 1015 l 327 1015 q 182 993 233 1015 q 111 926 131 972 q 92 806 92 880 l 65 806 l 65 1042 l 727 1042 l 727 1015 l 178 27 l 474 27 q 620 50 569 27 q 689 124 670 72 q 708 264 708 176 l 736 264 l 736 0 l 33 0 m 370 1288 q 311 1313 336 1288 q 287 1372 287 1338 q 311 1431 287 1406 q 370 1455 336 1455 q 429 1431 405 1455 q 453 1372 453 1406 q 429 1313 453 1338 q 370 1288 405 1288 z "},"a":{"ha":726,"x_min":64,"x_max":715,"o":"m 585 -14 q 525 -2 553 -14 q 481 36 498 9 q 465 108 465 63 l 465 423 q 456 519 465 473 q 421 594 448 565 q 339 623 394 623 q 274 616 308 623 q 211 595 240 609 q 165 559 183 581 q 147 508 147 538 l 114 508 q 137 564 114 544 q 188 585 160 585 q 243 566 218 585 q 267 511 267 547 q 242 451 267 469 q 188 432 217 432 q 134 451 156 432 q 113 508 113 471 q 134 567 113 541 q 191 611 155 593 q 271 640 226 630 q 363 650 316 650 q 507 617 459 650 q 570 531 554 583 q 586 423 586 479 l 586 81 q 594 42 586 58 q 628 26 602 26 q 668 41 646 26 q 701 79 690 56 l 715 54 q 664 6 697 26 q 585 -14 631 -14 m 262 -14 q 118 32 172 -14 q 64 158 64 78 q 144 304 64 251 q 372 357 224 357 l 529 357 l 529 333 l 372 333 q 273 308 310 333 q 218 244 235 282 q 201 167 201 206 q 211 100 201 133 q 245 48 222 68 q 305 27 269 27 q 380 52 344 27 q 441 128 417 77 q 465 254 465 178 l 481 254 q 455 115 481 175 q 381 20 430 54 q 262 -14 333 -14 z "},"á":{"ha":726,"x_min":64,"x_max":715,"o":"m 585 -14 q 525 -2 553 -14 q 481 36 498 9 q 465 108 465 63 l 465 423 q 456 519 465 473 q 421 594 448 565 q 339 623 394 623 q 274 616 308 623 q 211 595 240 609 q 165 559 183 581 q 147 508 147 538 l 114 508 q 137 564 114 544 q 188 585 160 585 q 243 566 218 585 q 267 511 267 547 q 242 451 267 469 q 188 432 217 432 q 134 451 156 432 q 113 508 113 471 q 134 567 113 541 q 191 611 155 593 q 271 640 226 630 q 363 650 316 650 q 507 617 459 650 q 570 531 554 583 q 586 423 586 479 l 586 81 q 594 42 586 58 q 628 26 602 26 q 668 41 646 26 q 701 79 690 56 l 715 54 q 664 6 697 26 q 585 -14 631 -14 m 262 -14 q 118 32 172 -14 q 64 158 64 78 q 144 304 64 251 q 372 357 224 357 l 529 357 l 529 333 l 372 333 q 273 308 310 333 q 218 244 235 282 q 201 167 201 206 q 211 100 201 133 q 245 48 222 68 q 305 27 269 27 q 380 52 344 27 q 441 128 417 77 q 465 254 465 178 l 481 254 q 455 115 481 175 q 381 20 430 54 q 262 -14 333 -14 m 313 765 l 296 783 l 436 935 q 465 951 450 950 q 494 946 481 953 q 514 927 508 939 q 520 902 521 916 q 513 877 519 888 q 495 859 507 865 l 313 765 z "},"ă":{"ha":726,"x_min":64,"x_max":715,"o":"m 585 -14 q 525 -2 553 -14 q 481 36 498 9 q 465 108 465 63 l 465 423 q 456 519 465 473 q 421 594 448 565 q 339 623 394 623 q 274 616 308 623 q 211 595 240 609 q 165 559 183 581 q 147 508 147 538 l 114 508 q 137 564 114 544 q 188 585 160 585 q 243 566 218 585 q 267 511 267 547 q 242 451 267 469 q 188 432 217 432 q 134 451 156 432 q 113 508 113 471 q 134 567 113 541 q 191 611 155 593 q 271 640 226 630 q 363 650 316 650 q 507 617 459 650 q 570 531 554 583 q 586 423 586 479 l 586 81 q 594 42 586 58 q 628 26 602 26 q 668 41 646 26 q 701 79 690 56 l 715 54 q 664 6 697 26 q 585 -14 631 -14 m 262 -14 q 118 32 172 -14 q 64 158 64 78 q 144 304 64 251 q 372 357 224 357 l 529 357 l 529 333 l 372 333 q 273 308 310 333 q 218 244 235 282 q 201 167 201 206 q 211 100 201 133 q 245 48 222 68 q 305 27 269 27 q 380 52 344 27 q 441 128 417 77 q 465 254 465 178 l 481 254 q 455 115 481 175 q 381 20 430 54 q 262 -14 333 -14 m 355 764 q 260 791 292 764 q 215 859 227 818 q 203 943 203 901 l 218 943 q 237 886 218 909 q 287 852 256 863 q 355 840 318 840 q 424 852 392 840 q 474 886 456 863 q 493 943 493 909 l 508 943 q 496 859 508 901 q 451 791 484 818 q 355 764 417 764 z "},"â":{"ha":726,"x_min":64,"x_max":715,"o":"m 585 -14 q 525 -2 553 -14 q 481 36 498 9 q 465 108 465 63 l 465 423 q 456 519 465 473 q 421 594 448 565 q 339 623 394 623 q 274 616 308 623 q 211 595 240 609 q 165 559 183 581 q 147 508 147 538 l 114 508 q 137 564 114 544 q 188 585 160 585 q 243 566 218 585 q 267 511 267 547 q 242 451 267 469 q 188 432 217 432 q 134 451 156 432 q 113 508 113 471 q 134 567 113 541 q 191 611 155 593 q 271 640 226 630 q 363 650 316 650 q 507 617 459 650 q 570 531 554 583 q 586 423 586 479 l 586 81 q 594 42 586 58 q 628 26 602 26 q 668 41 646 26 q 701 79 690 56 l 715 54 q 664 6 697 26 q 585 -14 631 -14 m 262 -14 q 118 32 172 -14 q 64 158 64 78 q 144 304 64 251 q 372 357 224 357 l 529 357 l 529 333 l 372 333 q 273 308 310 333 q 218 244 235 282 q 201 167 201 206 q 211 100 201 133 q 245 48 222 68 q 305 27 269 27 q 380 52 344 27 q 441 128 417 77 q 465 254 465 178 l 481 254 q 455 115 481 175 q 381 20 430 54 q 262 -14 333 -14 m 172 776 l 158 791 l 310 944 l 401 944 l 553 791 l 540 776 l 355 881 l 172 776 z "},"ä":{"ha":726,"x_min":64,"x_max":715,"o":"m 585 -14 q 525 -2 553 -14 q 481 36 498 9 q 465 108 465 63 l 465 423 q 456 519 465 473 q 421 594 448 565 q 339 623 394 623 q 274 616 308 623 q 211 595 240 609 q 165 559 183 581 q 147 508 147 538 l 114 508 q 137 564 114 544 q 188 585 160 585 q 243 566 218 585 q 267 511 267 547 q 242 451 267 469 q 188 432 217 432 q 134 451 156 432 q 113 508 113 471 q 134 567 113 541 q 191 611 155 593 q 271 640 226 630 q 363 650 316 650 q 507 617 459 650 q 570 531 554 583 q 586 423 586 479 l 586 81 q 594 42 586 58 q 628 26 602 26 q 668 41 646 26 q 701 79 690 56 l 715 54 q 664 6 697 26 q 585 -14 631 -14 m 262 -14 q 118 32 172 -14 q 64 158 64 78 q 144 304 64 251 q 372 357 224 357 l 529 357 l 529 333 l 372 333 q 273 308 310 333 q 218 244 235 282 q 201 167 201 206 q 211 100 201 133 q 245 48 222 68 q 305 27 269 27 q 380 52 344 27 q 441 128 417 77 q 465 254 465 178 l 481 254 q 455 115 481 175 q 381 20 430 54 q 262 -14 333 -14 m 465 771 q 418 790 438 771 q 399 838 399 810 q 418 885 399 865 q 465 905 438 905 q 513 885 493 905 q 532 838 532 865 q 513 790 532 810 q 465 771 493 771 m 243 771 q 196 790 215 771 q 176 838 176 810 q 196 885 176 865 q 243 905 215 905 q 290 885 271 905 q 310 838 310 865 q 290 790 310 810 q 243 771 271 771 z "},"à":{"ha":726,"x_min":64,"x_max":715,"o":"m 585 -14 q 525 -2 553 -14 q 481 36 498 9 q 465 108 465 63 l 465 423 q 456 519 465 473 q 421 594 448 565 q 339 623 394 623 q 274 616 308 623 q 211 595 240 609 q 165 559 183 581 q 147 508 147 538 l 114 508 q 137 564 114 544 q 188 585 160 585 q 243 566 218 585 q 267 511 267 547 q 242 451 267 469 q 188 432 217 432 q 134 451 156 432 q 113 508 113 471 q 134 567 113 541 q 191 611 155 593 q 271 640 226 630 q 363 650 316 650 q 507 617 459 650 q 570 531 554 583 q 586 423 586 479 l 586 81 q 594 42 586 58 q 628 26 602 26 q 668 41 646 26 q 701 79 690 56 l 715 54 q 664 6 697 26 q 585 -14 631 -14 m 262 -14 q 118 32 172 -14 q 64 158 64 78 q 144 304 64 251 q 372 357 224 357 l 529 357 l 529 333 l 372 333 q 273 308 310 333 q 218 244 235 282 q 201 167 201 206 q 211 100 201 133 q 245 48 222 68 q 305 27 269 27 q 380 52 344 27 q 441 128 417 77 q 465 254 465 178 l 481 254 q 455 115 481 175 q 381 20 430 54 q 262 -14 333 -14 m 397 765 l 215 859 q 197 877 203 865 q 190 902 190 888 q 196 927 190 916 q 216 946 203 939 q 245 951 229 953 q 274 935 260 950 l 414 783 l 397 765 z "},"ā":{"ha":726,"x_min":64,"x_max":715,"o":"m 585 -14 q 525 -2 553 -14 q 481 36 498 9 q 465 108 465 63 l 465 423 q 456 519 465 473 q 421 594 448 565 q 339 623 394 623 q 274 616 308 623 q 211 595 240 609 q 165 559 183 581 q 147 508 147 538 l 114 508 q 137 564 114 544 q 188 585 160 585 q 243 566 218 585 q 267 511 267 547 q 242 451 267 469 q 188 432 217 432 q 134 451 156 432 q 113 508 113 471 q 134 567 113 541 q 191 611 155 593 q 271 640 226 630 q 363 650 316 650 q 507 617 459 650 q 570 531 554 583 q 586 423 586 479 l 586 81 q 594 42 586 58 q 628 26 602 26 q 668 41 646 26 q 701 79 690 56 l 715 54 q 664 6 697 26 q 585 -14 631 -14 m 262 -14 q 118 32 172 -14 q 64 158 64 78 q 144 304 64 251 q 372 357 224 357 l 529 357 l 529 333 l 372 333 q 273 308 310 333 q 218 244 235 282 q 201 167 201 206 q 211 100 201 133 q 245 48 222 68 q 305 27 269 27 q 380 52 344 27 q 441 128 417 77 q 465 254 465 178 l 481 254 q 455 115 481 175 q 381 20 430 54 q 262 -14 333 -14 m 188 778 l 188 805 l 522 805 l 522 778 l 188 778 z "},"ą":{"ha":726,"x_min":64,"x_max":778,"o":"m 585 -14 q 525 -2 553 -14 q 481 36 498 9 q 465 108 465 63 l 465 423 q 456 519 465 473 q 421 594 448 565 q 339 623 394 623 q 274 616 308 623 q 211 595 240 609 q 165 559 183 581 q 147 508 147 538 l 114 508 q 137 564 114 544 q 188 585 160 585 q 243 566 218 585 q 267 511 267 547 q 242 451 267 469 q 188 432 217 432 q 134 451 156 432 q 113 508 113 471 q 134 567 113 541 q 191 611 155 593 q 271 640 226 630 q 363 650 316 650 q 507 617 459 650 q 570 531 554 583 q 586 423 586 479 l 586 81 q 594 42 586 58 q 628 26 602 26 q 668 41 646 26 q 701 79 690 56 l 715 54 q 664 6 697 26 q 585 -14 631 -14 m 262 -14 q 118 32 172 -14 q 64 158 64 78 q 144 304 64 251 q 372 357 224 357 l 529 357 l 529 333 l 372 333 q 273 308 310 333 q 218 244 235 282 q 201 167 201 206 q 211 100 201 133 q 245 48 222 68 q 305 27 269 27 q 380 52 344 27 q 441 128 417 77 q 465 254 465 178 l 481 254 q 455 115 481 175 q 381 20 430 54 q 262 -14 333 -14 m 619 -291 q 550 -278 584 -291 q 492 -240 515 -266 q 469 -172 469 -213 q 488 -98 469 -130 q 535 -42 506 -66 q 598 -1 564 -17 q 664 26 632 16 l 672 12 q 634 -23 651 0 q 608 -76 617 -45 q 599 -144 599 -107 q 617 -216 599 -187 q 671 -244 635 -244 q 725 -225 704 -244 q 761 -178 746 -205 l 778 -190 q 750 -233 769 -210 q 700 -274 732 -257 q 619 -291 669 -291 z "},"å":{"ha":726,"x_min":64,"x_max":715,"o":"m 585 -14 q 525 -2 553 -14 q 481 36 498 9 q 465 108 465 63 l 465 423 q 456 519 465 473 q 421 594 448 565 q 339 623 394 623 q 274 616 308 623 q 211 595 240 609 q 165 559 183 581 q 147 508 147 538 l 114 508 q 137 564 114 544 q 188 585 160 585 q 243 566 218 585 q 267 511 267 547 q 242 451 267 469 q 188 432 217 432 q 134 451 156 432 q 113 508 113 471 q 134 567 113 541 q 191 611 155 593 q 271 640 226 630 q 363 650 316 650 q 507 617 459 650 q 570 531 554 583 q 586 423 586 479 l 586 81 q 594 42 586 58 q 628 26 602 26 q 668 41 646 26 q 701 79 690 56 l 715 54 q 664 6 697 26 q 585 -14 631 -14 m 262 -14 q 118 32 172 -14 q 64 158 64 78 q 144 304 64 251 q 372 357 224 357 l 529 357 l 529 333 l 372 333 q 273 308 310 333 q 218 244 235 282 q 201 167 201 206 q 211 100 201 133 q 245 48 222 68 q 305 27 269 27 q 380 52 344 27 q 441 128 417 77 q 465 254 465 178 l 481 254 q 455 115 481 175 q 381 20 430 54 q 262 -14 333 -14 m 355 764 q 266 800 302 764 q 231 888 231 835 q 266 978 231 942 q 355 1014 302 1014 q 444 978 408 1014 q 480 888 480 942 q 444 800 480 835 q 355 764 408 764 m 355 792 q 397 805 381 792 q 421 840 413 818 q 428 888 428 862 q 421 938 428 915 q 397 973 413 960 q 355 987 381 987 q 313 973 329 987 q 290 938 297 960 q 282 888 282 915 q 290 840 282 862 q 313 805 297 818 q 355 792 329 792 z "},"ã":{"ha":726,"x_min":64,"x_max":715,"o":"m 585 -14 q 525 -2 553 -14 q 481 36 498 9 q 465 108 465 63 l 465 423 q 456 519 465 473 q 421 594 448 565 q 339 623 394 623 q 274 616 308 623 q 211 595 240 609 q 165 559 183 581 q 147 508 147 538 l 114 508 q 137 564 114 544 q 188 585 160 585 q 243 566 218 585 q 267 511 267 547 q 242 451 267 469 q 188 432 217 432 q 134 451 156 432 q 113 508 113 471 q 134 567 113 541 q 191 611 155 593 q 271 640 226 630 q 363 650 316 650 q 507 617 459 650 q 570 531 554 583 q 586 423 586 479 l 586 81 q 594 42 586 58 q 628 26 602 26 q 668 41 646 26 q 701 79 690 56 l 715 54 q 664 6 697 26 q 585 -14 631 -14 m 262 -14 q 118 32 172 -14 q 64 158 64 78 q 144 304 64 251 q 372 357 224 357 l 529 357 l 529 333 l 372 333 q 273 308 310 333 q 218 244 235 282 q 201 167 201 206 q 211 100 201 133 q 245 48 222 68 q 305 27 269 27 q 380 52 344 27 q 441 128 417 77 q 465 254 465 178 l 481 254 q 455 115 481 175 q 381 20 430 54 q 262 -14 333 -14 m 467 764 q 397 781 428 764 q 340 819 366 797 q 287 857 313 840 q 231 874 261 874 q 170 853 197 874 q 144 778 144 832 l 116 778 q 138 876 116 837 q 194 935 160 915 q 262 954 228 954 q 333 938 303 954 q 388 899 363 921 q 435 861 412 878 q 484 844 458 844 q 548 865 524 844 q 572 940 572 886 l 599 940 q 583 836 599 875 q 538 781 567 797 q 467 764 508 764 z "},"æ":{"ha":1108,"x_min":64,"x_max":1056,"o":"m 293 -14 q 211 -5 252 -14 q 138 23 171 3 q 84 76 104 42 q 64 158 64 109 q 99 263 64 216 q 201 336 133 309 q 367 363 269 363 l 453 363 l 453 423 q 450 493 453 458 q 434 558 446 528 q 398 605 422 588 q 331 623 373 623 q 277 617 304 623 q 225 599 249 610 q 180 572 200 588 q 149 536 160 556 q 170 564 158 552 q 194 582 183 575 q 244 562 223 582 q 266 511 266 542 q 238 451 266 469 q 184 432 210 432 q 132 451 152 432 q 113 508 113 471 q 148 583 113 551 q 240 633 183 615 q 359 650 296 650 q 463 632 424 650 q 519 583 501 614 q 544 515 538 553 l 531 514 q 623 616 563 581 q 767 652 683 652 q 929 612 868 652 q 1018 507 990 572 q 1045 366 1045 442 l 604 366 q 603 343 603 355 q 603 319 603 331 q 611 205 603 260 q 639 108 619 151 q 694 41 659 65 q 783 16 729 16 q 938 63 876 16 q 1024 181 999 110 l 1056 181 q 959 42 1028 97 q 776 -14 890 -14 q 609 36 677 -14 q 513 177 541 86 l 524 179 q 484 73 514 116 q 407 8 455 30 q 293 -14 359 -14 m 320 26 q 389 53 358 26 q 436 130 419 80 q 453 251 453 181 l 453 335 l 367 335 q 278 312 315 335 q 224 251 242 289 q 205 171 205 214 q 238 60 205 94 q 320 26 270 26 m 606 393 l 898 393 q 894 468 898 428 q 876 544 890 508 q 837 603 863 580 q 767 626 811 626 q 678 594 712 626 q 628 509 644 562 q 606 393 611 456 z "},"b":{"ha":845,"x_min":51,"x_max":774,"o":"m 489 -14 q 347 45 405 -14 q 266 202 289 103 l 266 0 l 51 0 l 51 27 l 142 27 l 142 1015 l 51 1015 l 51 1042 l 266 1042 l 266 436 q 347 593 289 535 q 489 651 405 651 q 627 612 562 651 q 733 498 692 572 q 774 319 774 424 q 733 141 774 215 q 627 26 692 66 q 489 -14 562 -14 m 464 24 q 556 59 518 24 q 613 160 593 94 q 632 319 632 226 q 613 478 632 413 q 556 579 593 544 q 464 614 518 614 q 367 580 412 614 q 294 479 322 545 q 266 319 266 413 q 294 159 266 226 q 367 58 322 93 q 464 24 412 24 z "},"c":{"ha":708,"x_min":72,"x_max":638,"o":"m 388 -14 q 226 26 297 -14 q 113 141 154 66 q 72 319 72 215 q 109 485 72 410 q 218 607 146 561 q 394 653 290 653 q 517 628 465 653 q 596 566 568 604 q 624 484 624 527 q 602 426 624 447 q 549 405 581 405 q 513 413 531 405 q 482 438 494 421 q 469 483 469 455 q 493 539 469 519 q 549 558 517 558 q 600 539 578 558 q 622 484 622 521 l 596 484 q 580 542 596 517 q 536 586 563 568 q 475 615 508 605 q 408 624 442 624 q 311 595 349 624 q 253 521 274 567 q 225 422 233 475 q 217 319 217 369 q 226 206 217 260 q 254 109 234 151 q 309 43 274 67 q 398 19 344 19 q 495 40 455 19 q 563 97 535 60 q 609 181 590 134 l 638 181 q 552 42 611 97 q 388 -14 494 -14 z "},"ć":{"ha":708,"x_min":72,"x_max":638,"o":"m 388 -14 q 226 26 297 -14 q 113 141 154 66 q 72 319 72 215 q 109 485 72 410 q 218 607 146 561 q 394 653 290 653 q 517 628 465 653 q 596 566 568 604 q 624 484 624 527 q 602 426 624 447 q 549 405 581 405 q 513 413 531 405 q 482 438 494 421 q 469 483 469 455 q 493 539 469 519 q 549 558 517 558 q 600 539 578 558 q 622 484 622 521 l 596 484 q 580 542 596 517 q 536 586 563 568 q 475 615 508 605 q 408 624 442 624 q 311 595 349 624 q 253 521 274 567 q 225 422 233 475 q 217 319 217 369 q 226 206 217 260 q 254 109 234 151 q 309 43 274 67 q 398 19 344 19 q 495 40 455 19 q 563 97 535 60 q 609 181 590 134 l 638 181 q 552 42 611 97 q 388 -14 494 -14 m 353 765 l 336 783 l 476 935 q 506 951 490 950 q 534 946 521 953 q 554 927 548 939 q 560 902 561 916 q 553 877 560 888 q 535 859 547 865 l 353 765 z "},"č":{"ha":708,"x_min":72,"x_max":638,"o":"m 388 -14 q 226 26 297 -14 q 113 141 154 66 q 72 319 72 215 q 109 485 72 410 q 218 607 146 561 q 394 653 290 653 q 517 628 465 653 q 596 566 568 604 q 624 484 624 527 q 602 426 624 447 q 549 405 581 405 q 513 413 531 405 q 482 438 494 421 q 469 483 469 455 q 493 539 469 519 q 549 558 517 558 q 600 539 578 558 q 622 484 622 521 l 596 484 q 580 542 596 517 q 536 586 563 568 q 475 615 508 605 q 408 624 442 624 q 311 595 349 624 q 253 521 274 567 q 225 422 233 475 q 217 319 217 369 q 226 206 217 260 q 254 109 234 151 q 309 43 274 67 q 398 19 344 19 q 495 40 455 19 q 563 97 535 60 q 609 181 590 134 l 638 181 q 552 42 611 97 q 388 -14 494 -14 m 350 778 l 197 931 l 212 944 l 394 840 l 578 944 l 593 931 l 440 778 l 350 778 z "},"ç":{"ha":708,"x_min":72,"x_max":638,"o":"m 388 -14 q 226 26 297 -14 q 113 141 154 66 q 72 319 72 215 q 109 485 72 410 q 218 607 146 561 q 394 653 290 653 q 517 628 465 653 q 596 566 568 604 q 624 484 624 527 q 602 426 624 447 q 549 405 581 405 q 513 413 531 405 q 482 438 494 421 q 469 483 469 455 q 493 539 469 519 q 549 558 517 558 q 600 539 578 558 q 622 484 622 521 l 596 484 q 580 542 596 517 q 536 586 563 568 q 475 615 508 605 q 408 624 442 624 q 311 595 349 624 q 253 521 274 567 q 225 422 233 475 q 217 319 217 369 q 226 206 217 260 q 254 109 234 151 q 309 43 274 67 q 398 19 344 19 q 495 40 455 19 q 563 97 535 60 q 609 181 590 134 l 638 181 q 552 42 611 97 q 388 -14 494 -14 m 270 -347 l 270 -319 q 369 -298 332 -319 q 406 -243 406 -276 q 386 -193 406 -210 q 331 -169 366 -176 q 251 -163 296 -163 l 372 0 l 406 0 l 326 -108 q 417 -122 376 -110 q 481 -157 457 -133 q 505 -220 505 -181 q 481 -284 505 -255 q 406 -330 458 -312 q 270 -347 354 -347 z "},"ĉ":{"ha":708,"x_min":72,"x_max":638,"o":"m 388 -14 q 226 26 297 -14 q 113 141 154 66 q 72 319 72 215 q 109 485 72 410 q 218 607 146 561 q 394 653 290 653 q 517 628 465 653 q 596 566 568 604 q 624 484 624 527 q 602 426 624 447 q 549 405 581 405 q 513 413 531 405 q 482 438 494 421 q 469 483 469 455 q 493 539 469 519 q 549 558 517 558 q 600 539 578 558 q 622 484 622 521 l 596 484 q 580 542 596 517 q 536 586 563 568 q 475 615 508 605 q 408 624 442 624 q 311 595 349 624 q 253 521 274 567 q 225 422 233 475 q 217 319 217 369 q 226 206 217 260 q 254 109 234 151 q 309 43 274 67 q 398 19 344 19 q 495 40 455 19 q 563 97 535 60 q 609 181 590 134 l 638 181 q 552 42 611 97 q 388 -14 494 -14 m 211 776 l 197 791 l 350 944 l 440 944 l 593 791 l 579 776 l 394 881 l 211 776 z "},"ċ":{"ha":708,"x_min":72,"x_max":638,"o":"m 388 -14 q 226 26 297 -14 q 113 141 154 66 q 72 319 72 215 q 109 485 72 410 q 218 607 146 561 q 394 653 290 653 q 517 628 465 653 q 596 566 568 604 q 624 484 624 527 q 602 426 624 447 q 549 405 581 405 q 513 413 531 405 q 482 438 494 421 q 469 483 469 455 q 493 539 469 519 q 549 558 517 558 q 600 539 578 558 q 622 484 622 521 l 596 484 q 580 542 596 517 q 536 586 563 568 q 475 615 508 605 q 408 624 442 624 q 311 595 349 624 q 253 521 274 567 q 225 422 233 475 q 217 319 217 369 q 226 206 217 260 q 254 109 234 151 q 309 43 274 67 q 398 19 344 19 q 495 40 455 19 q 563 97 535 60 q 609 181 590 134 l 638 181 q 552 42 611 97 q 388 -14 494 -14 m 395 885 q 336 910 361 885 q 312 969 312 935 q 336 1028 312 1003 q 395 1052 361 1052 q 454 1028 430 1052 q 478 969 478 1003 q 454 910 478 935 q 395 885 430 885 z "},"d":{"ha":845,"x_min":72,"x_max":795,"o":"m 358 -13 q 219 26 285 -13 q 113 140 154 66 q 72 319 72 215 q 113 498 72 423 q 219 612 154 572 q 358 652 285 652 q 500 594 442 652 q 579 436 557 535 l 579 1015 l 488 1015 l 488 1042 l 705 1042 l 705 27 l 795 27 l 795 0 l 579 0 l 579 201 q 500 45 557 103 q 358 -13 442 -13 m 382 24 q 479 59 434 24 q 551 159 524 94 q 579 319 579 225 q 551 479 579 413 q 479 580 524 545 q 382 615 434 615 q 291 580 328 615 q 234 478 253 544 q 215 319 215 412 q 234 160 215 226 q 291 59 253 94 q 382 24 328 24 z "},"ď":{"ha":845,"x_min":72,"x_max":997,"o":"m 358 -13 q 219 26 285 -13 q 113 140 154 66 q 72 319 72 215 q 113 498 72 423 q 219 612 154 572 q 358 652 285 652 q 500 594 442 652 q 579 436 557 535 l 579 1015 l 488 1015 l 488 1042 l 705 1042 l 705 27 l 795 27 l 795 0 l 579 0 l 579 201 q 500 45 557 103 q 358 -13 442 -13 m 382 24 q 479 59 434 24 q 551 159 524 94 q 579 319 579 225 q 551 479 579 413 q 479 580 524 545 q 382 615 434 615 q 291 580 328 615 q 234 478 253 544 q 215 319 215 412 q 234 160 215 226 q 291 59 253 94 q 382 24 328 24 m 803 681 l 803 709 q 876 728 844 709 q 930 779 908 747 q 961 853 952 812 q 963 940 970 894 l 972 940 q 965 914 974 928 q 937 889 955 899 q 894 878 919 878 q 828 902 849 878 q 806 960 806 926 q 833 1018 806 994 q 899 1042 860 1042 q 968 1008 940 1042 q 997 908 997 974 q 974 800 997 852 q 909 715 952 748 q 803 681 866 681 z "},"đ":{"ha":845,"x_min":72,"x_max":813,"o":"m 392 778 l 392 805 l 813 805 l 813 778 l 392 778 m 358 -13 q 219 26 285 -13 q 113 140 154 66 q 72 319 72 215 q 113 498 72 423 q 219 612 154 572 q 358 652 285 652 q 500 594 442 652 q 579 436 557 535 l 579 1015 l 488 1015 l 488 1042 l 705 1042 l 705 27 l 795 27 l 795 0 l 579 0 l 579 201 q 500 45 557 103 q 358 -13 442 -13 m 382 24 q 479 59 434 24 q 551 159 524 94 q 579 319 579 225 q 551 479 579 413 q 479 580 524 545 q 382 615 434 615 q 291 580 328 615 q 234 478 253 544 q 215 319 215 412 q 234 160 215 226 q 291 59 253 94 q 382 24 328 24 z "},"ð":{"ha":777,"x_min":42,"x_max":738,"o":"m 369 -14 q 192 33 265 -14 q 81 161 119 80 q 42 347 42 243 q 69 499 42 436 q 141 602 97 563 q 240 661 186 642 q 346 681 293 681 q 491 642 437 681 q 569 537 545 603 q 592 390 592 471 l 569 390 q 549 523 569 467 q 485 610 528 579 q 376 641 442 641 q 294 621 330 641 q 232 564 258 601 q 194 472 207 526 q 181 347 181 417 q 188 228 181 288 q 216 121 196 169 q 272 43 235 72 q 365 14 308 14 q 461 46 422 14 q 524 132 500 78 q 559 253 548 186 q 569 390 569 320 l 563 514 q 543 659 563 585 q 486 799 523 732 q 397 918 449 865 q 282 1000 345 970 q 146 1031 218 1031 l 146 1056 q 361 1007 260 1056 q 541 873 463 959 q 664 674 619 788 q 708 431 708 561 q 667 186 708 285 q 550 36 626 87 q 369 -14 474 -14 m 154 849 l 154 876 l 738 876 l 738 848 l 154 849 z "},"e":{"ha":727,"x_min":72,"x_max":663,"o":"m 387 -14 q 227 26 299 -14 q 114 141 156 66 q 72 319 72 215 q 111 498 72 424 q 220 612 151 572 q 378 652 290 652 q 539 612 479 652 q 626 507 599 572 q 653 366 653 442 l 165 366 l 165 393 l 506 393 q 502 468 506 428 q 486 544 498 508 q 448 603 474 580 q 378 626 422 626 q 297 601 328 626 q 247 532 265 576 q 222 434 229 489 q 215 319 215 379 q 223 205 215 260 q 250 108 231 151 q 305 41 270 65 q 394 16 340 16 q 547 63 488 16 q 632 181 606 110 l 663 181 q 568 42 636 97 q 387 -14 500 -14 z "},"é":{"ha":727,"x_min":72,"x_max":663,"o":"m 387 -14 q 227 26 299 -14 q 114 141 156 66 q 72 319 72 215 q 111 498 72 424 q 220 612 151 572 q 378 652 290 652 q 539 612 479 652 q 626 507 599 572 q 653 366 653 442 l 165 366 l 165 393 l 506 393 q 502 468 506 428 q 486 544 498 508 q 448 603 474 580 q 378 626 422 626 q 297 601 328 626 q 247 532 265 576 q 222 434 229 489 q 215 319 215 379 q 223 205 215 260 q 250 108 231 151 q 305 41 270 65 q 394 16 340 16 q 547 63 488 16 q 632 181 606 110 l 663 181 q 568 42 636 97 q 387 -14 500 -14 m 329 765 l 313 783 l 453 935 q 482 951 467 950 q 511 946 497 953 q 531 927 524 939 q 537 902 538 916 q 530 877 536 888 q 512 859 524 865 l 329 765 z "},"ĕ":{"ha":727,"x_min":72,"x_max":663,"o":"m 387 -14 q 227 26 299 -14 q 114 141 156 66 q 72 319 72 215 q 111 498 72 424 q 220 612 151 572 q 378 652 290 652 q 539 612 479 652 q 626 507 599 572 q 653 366 653 442 l 165 366 l 165 393 l 506 393 q 502 468 506 428 q 486 544 498 508 q 448 603 474 580 q 378 626 422 626 q 297 601 328 626 q 247 532 265 576 q 222 434 229 489 q 215 319 215 379 q 223 205 215 260 q 250 108 231 151 q 305 41 270 65 q 394 16 340 16 q 547 63 488 16 q 632 181 606 110 l 663 181 q 568 42 636 97 q 387 -14 500 -14 m 372 764 q 276 791 309 764 q 232 859 244 818 q 220 943 220 901 l 235 943 q 253 886 235 909 q 303 852 272 863 q 372 840 335 840 q 441 852 409 840 q 491 886 472 863 q 510 943 510 909 l 525 943 q 513 859 525 901 q 467 791 501 818 q 372 764 434 764 z "},"ě":{"ha":727,"x_min":72,"x_max":663,"o":"m 387 -14 q 227 26 299 -14 q 114 141 156 66 q 72 319 72 215 q 111 498 72 424 q 220 612 151 572 q 378 652 290 652 q 539 612 479 652 q 626 507 599 572 q 653 366 653 442 l 165 366 l 165 393 l 506 393 q 502 468 506 428 q 486 544 498 508 q 448 603 474 580 q 378 626 422 626 q 297 601 328 626 q 247 532 265 576 q 222 434 229 489 q 215 319 215 379 q 223 205 215 260 q 250 108 231 151 q 305 41 270 65 q 394 16 340 16 q 547 63 488 16 q 632 181 606 110 l 663 181 q 568 42 636 97 q 387 -14 500 -14 m 327 778 l 174 931 l 189 944 l 372 840 l 556 944 l 570 931 l 417 778 l 327 778 z "},"ê":{"ha":727,"x_min":72,"x_max":663,"o":"m 387 -14 q 227 26 299 -14 q 114 141 156 66 q 72 319 72 215 q 111 498 72 424 q 220 612 151 572 q 378 652 290 652 q 539 612 479 652 q 626 507 599 572 q 653 366 653 442 l 165 366 l 165 393 l 506 393 q 502 468 506 428 q 486 544 498 508 q 448 603 474 580 q 378 626 422 626 q 297 601 328 626 q 247 532 265 576 q 222 434 229 489 q 215 319 215 379 q 223 205 215 260 q 250 108 231 151 q 305 41 270 65 q 394 16 340 16 q 547 63 488 16 q 632 181 606 110 l 663 181 q 568 42 636 97 q 387 -14 500 -14 m 188 776 l 174 791 l 327 944 l 417 944 l 570 791 l 556 776 l 372 881 l 188 776 z "},"ë":{"ha":727,"x_min":72,"x_max":663,"o":"m 387 -14 q 227 26 299 -14 q 114 141 156 66 q 72 319 72 215 q 111 498 72 424 q 220 612 151 572 q 378 652 290 652 q 539 612 479 652 q 626 507 599 572 q 653 366 653 442 l 165 366 l 165 393 l 506 393 q 502 468 506 428 q 486 544 498 508 q 448 603 474 580 q 378 626 422 626 q 297 601 328 626 q 247 532 265 576 q 222 434 229 489 q 215 319 215 379 q 223 205 215 260 q 250 108 231 151 q 305 41 270 65 q 394 16 340 16 q 547 63 488 16 q 632 181 606 110 l 663 181 q 568 42 636 97 q 387 -14 500 -14 m 482 771 q 435 790 454 771 q 415 838 415 810 q 435 885 415 865 q 482 905 454 905 q 529 885 510 905 q 549 838 549 865 q 529 790 549 810 q 482 771 510 771 m 260 771 q 213 790 232 771 q 193 838 193 810 q 213 885 193 865 q 260 905 232 905 q 307 885 288 905 q 326 838 326 865 q 307 790 326 810 q 260 771 288 771 z "},"ė":{"ha":727,"x_min":72,"x_max":663,"o":"m 387 -14 q 227 26 299 -14 q 114 141 156 66 q 72 319 72 215 q 111 498 72 424 q 220 612 151 572 q 378 652 290 652 q 539 612 479 652 q 626 507 599 572 q 653 366 653 442 l 165 366 l 165 393 l 506 393 q 502 468 506 428 q 486 544 498 508 q 448 603 474 580 q 378 626 422 626 q 297 601 328 626 q 247 532 265 576 q 222 434 229 489 q 215 319 215 379 q 223 205 215 260 q 250 108 231 151 q 305 41 270 65 q 394 16 340 16 q 547 63 488 16 q 632 181 606 110 l 663 181 q 568 42 636 97 q 387 -14 500 -14 m 372 885 q 314 910 338 885 q 289 969 289 935 q 314 1028 289 1003 q 372 1052 338 1052 q 431 1028 407 1052 q 456 969 456 1003 q 431 910 456 935 q 372 885 407 885 z "},"è":{"ha":727,"x_min":72,"x_max":663,"o":"m 387 -14 q 227 26 299 -14 q 114 141 156 66 q 72 319 72 215 q 111 498 72 424 q 220 612 151 572 q 378 652 290 652 q 539 612 479 652 q 626 507 599 572 q 653 366 653 442 l 165 366 l 165 393 l 506 393 q 502 468 506 428 q 486 544 498 508 q 448 603 474 580 q 378 626 422 626 q 297 601 328 626 q 247 532 265 576 q 222 434 229 489 q 215 319 215 379 q 223 205 215 260 q 250 108 231 151 q 305 41 270 65 q 394 16 340 16 q 547 63 488 16 q 632 181 606 110 l 663 181 q 568 42 636 97 q 387 -14 500 -14 m 414 765 l 231 859 q 214 877 220 865 q 207 902 207 888 q 213 927 206 916 q 233 946 219 939 q 261 951 246 953 q 290 935 277 950 l 431 783 l 414 765 z "},"ē":{"ha":727,"x_min":72,"x_max":663,"o":"m 387 -14 q 227 26 299 -14 q 114 141 156 66 q 72 319 72 215 q 111 498 72 424 q 220 612 151 572 q 378 652 290 652 q 539 612 479 652 q 626 507 599 572 q 653 366 653 442 l 165 366 l 165 393 l 506 393 q 502 468 506 428 q 486 544 498 508 q 448 603 474 580 q 378 626 422 626 q 297 601 328 626 q 247 532 265 576 q 222 434 229 489 q 215 319 215 379 q 223 205 215 260 q 250 108 231 151 q 305 41 270 65 q 394 16 340 16 q 547 63 488 16 q 632 181 606 110 l 663 181 q 568 42 636 97 q 387 -14 500 -14 m 205 778 l 205 805 l 538 805 l 538 778 l 205 778 z "},"ę":{"ha":727,"x_min":72,"x_max":663,"o":"m 387 -14 q 227 26 299 -14 q 114 141 156 66 q 72 319 72 215 q 111 498 72 424 q 220 612 151 572 q 378 652 290 652 q 539 612 479 652 q 626 507 599 572 q 653 366 653 442 l 165 366 l 165 393 l 506 393 q 502 468 506 428 q 486 544 498 508 q 448 603 474 580 q 378 626 422 626 q 297 601 328 626 q 247 532 265 576 q 222 434 229 489 q 215 319 215 379 q 223 205 215 260 q 250 108 231 151 q 305 41 270 65 q 394 16 340 16 q 547 63 488 16 q 632 181 606 110 l 663 181 q 568 42 636 97 q 387 -14 500 -14 m 459 -291 q 389 -278 424 -291 q 332 -240 355 -266 q 309 -172 309 -213 q 327 -98 309 -130 q 374 -42 345 -66 q 438 -1 403 -17 q 503 26 472 16 l 512 12 q 474 -23 490 0 q 448 -76 457 -45 q 438 -144 438 -107 q 457 -216 438 -187 q 510 -244 475 -244 q 565 -225 544 -244 q 601 -178 585 -205 l 618 -190 q 590 -233 608 -210 q 540 -274 572 -257 q 459 -291 508 -291 z "},"f":{"ha":553,"x_min":44,"x_max":607,"o":"m 163 0 l 163 710 q 193 880 163 801 q 285 1007 224 959 q 436 1056 346 1056 q 530 1035 492 1056 q 588 982 568 1014 q 607 918 607 951 q 583 854 607 876 q 527 832 559 832 q 492 839 510 832 q 462 863 474 847 q 450 908 450 880 q 476 965 450 944 q 527 985 501 985 q 564 977 546 985 q 594 954 582 969 q 606 918 606 939 l 579 918 q 561 972 579 947 q 511 1013 544 997 q 436 1028 479 1028 q 348 995 381 1028 q 301 900 315 963 q 288 750 288 838 l 288 0 l 163 0 m 44 0 l 44 27 l 447 27 l 447 0 l 44 0 m 44 612 l 44 639 l 475 639 l 475 612 l 44 612 z "},"g":{"ha":827,"x_min":50,"x_max":785,"o":"m 358 -361 q 240 -350 296 -361 q 141 -317 184 -340 q 74 -258 99 -294 q 50 -174 50 -223 q 71 -94 50 -126 q 124 -42 92 -62 q 188 -15 156 -23 q 244 -6 221 -6 l 265 -6 q 197 -69 218 -30 q 176 -159 176 -108 q 199 -242 176 -203 q 267 -307 222 -282 q 378 -331 312 -331 q 475 -318 430 -331 q 554 -281 520 -306 q 607 -222 588 -257 q 626 -141 626 -186 q 604 -72 626 -100 q 545 -28 582 -43 q 463 -12 508 -12 q 415 -12 448 -12 q 349 -12 382 -12 q 301 -12 316 -12 q 151 13 207 -12 q 94 101 94 39 q 116 166 94 138 q 173 214 137 194 q 255 242 209 233 q 349 252 300 252 l 348 233 q 299 227 326 233 q 247 210 272 222 q 207 183 222 199 q 191 147 191 167 q 229 104 191 111 q 324 97 267 97 q 368 97 348 97 q 407 98 388 97 q 446 98 426 98 q 525 91 485 98 q 600 63 566 84 q 655 -1 634 41 q 676 -114 676 -43 q 649 -226 676 -179 q 577 -303 622 -274 q 475 -347 531 -333 q 358 -361 418 -361 m 333 227 q 247 239 291 227 q 167 276 203 251 q 107 342 130 301 q 85 440 85 382 q 107 538 85 497 q 167 603 130 578 q 247 640 203 628 q 333 652 291 652 q 418 640 376 652 q 497 603 461 628 q 553 538 532 578 q 575 440 575 497 q 553 342 575 382 q 497 276 532 301 q 418 239 461 251 q 333 227 376 227 m 333 254 q 401 279 374 254 q 441 346 428 304 q 453 440 453 388 q 441 533 453 491 q 401 600 428 575 q 333 625 374 625 q 266 600 292 625 q 226 533 239 575 q 213 440 213 491 q 220 346 213 388 q 253 279 228 304 q 333 254 278 254 m 711 465 q 663 483 685 465 q 641 535 641 501 q 664 584 641 569 q 711 599 686 599 q 760 584 737 599 q 783 541 783 569 l 757 541 q 735 594 757 569 q 671 619 713 619 q 614 607 646 619 q 554 564 582 595 q 513 474 526 532 l 493 488 q 538 583 507 549 q 605 632 569 617 q 669 646 641 646 q 729 631 703 646 q 770 591 755 615 q 785 541 785 567 q 761 481 785 497 q 711 465 737 465 z "},"ğ":{"ha":827,"x_min":50,"x_max":785,"o":"m 358 -361 q 240 -350 296 -361 q 141 -317 184 -340 q 74 -258 99 -294 q 50 -174 50 -223 q 71 -94 50 -126 q 124 -42 92 -62 q 188 -15 156 -23 q 244 -6 221 -6 l 265 -6 q 197 -69 218 -30 q 176 -159 176 -108 q 199 -242 176 -203 q 267 -307 222 -282 q 378 -331 312 -331 q 475 -318 430 -331 q 554 -281 520 -306 q 607 -222 588 -257 q 626 -141 626 -186 q 604 -72 626 -100 q 545 -28 582 -43 q 463 -12 508 -12 q 415 -12 448 -12 q 349 -12 382 -12 q 301 -12 316 -12 q 151 13 207 -12 q 94 101 94 39 q 116 166 94 138 q 173 214 137 194 q 255 242 209 233 q 349 252 300 252 l 348 233 q 299 227 326 233 q 247 210 272 222 q 207 183 222 199 q 191 147 191 167 q 229 104 191 111 q 324 97 267 97 q 368 97 348 97 q 407 98 388 97 q 446 98 426 98 q 525 91 485 98 q 600 63 566 84 q 655 -1 634 41 q 676 -114 676 -43 q 649 -226 676 -179 q 577 -303 622 -274 q 475 -347 531 -333 q 358 -361 418 -361 m 333 227 q 247 239 291 227 q 167 276 203 251 q 107 342 130 301 q 85 440 85 382 q 107 538 85 497 q 167 603 130 578 q 247 640 203 628 q 333 652 291 652 q 418 640 376 652 q 497 603 461 628 q 553 538 532 578 q 575 440 575 497 q 553 342 575 382 q 497 276 532 301 q 418 239 461 251 q 333 227 376 227 m 333 254 q 401 279 374 254 q 441 346 428 304 q 453 440 453 388 q 441 533 453 491 q 401 600 428 575 q 333 625 374 625 q 266 600 292 625 q 226 533 239 575 q 213 440 213 491 q 220 346 213 388 q 253 279 228 304 q 333 254 278 254 m 711 465 q 663 483 685 465 q 641 535 641 501 q 664 584 641 569 q 711 599 686 599 q 760 584 737 599 q 783 541 783 569 l 757 541 q 735 594 757 569 q 671 619 713 619 q 614 607 646 619 q 554 564 582 595 q 513 474 526 532 l 493 488 q 538 583 507 549 q 605 632 569 617 q 669 646 641 646 q 729 631 703 646 q 770 591 755 615 q 785 541 785 567 q 761 481 785 497 q 711 465 737 465 m 374 764 q 279 791 312 764 q 235 859 247 818 q 223 943 223 901 l 238 943 q 256 886 238 909 q 306 852 275 863 q 374 840 338 840 q 443 852 412 840 q 494 886 475 863 q 513 943 513 909 l 528 943 q 516 859 528 901 q 470 791 503 818 q 374 764 437 764 z "},"ĝ":{"ha":827,"x_min":50,"x_max":785,"o":"m 358 -361 q 240 -350 296 -361 q 141 -317 184 -340 q 74 -258 99 -294 q 50 -174 50 -223 q 71 -94 50 -126 q 124 -42 92 -62 q 188 -15 156 -23 q 244 -6 221 -6 l 265 -6 q 197 -69 218 -30 q 176 -159 176 -108 q 199 -242 176 -203 q 267 -307 222 -282 q 378 -331 312 -331 q 475 -318 430 -331 q 554 -281 520 -306 q 607 -222 588 -257 q 626 -141 626 -186 q 604 -72 626 -100 q 545 -28 582 -43 q 463 -12 508 -12 q 415 -12 448 -12 q 349 -12 382 -12 q 301 -12 316 -12 q 151 13 207 -12 q 94 101 94 39 q 116 166 94 138 q 173 214 137 194 q 255 242 209 233 q 349 252 300 252 l 348 233 q 299 227 326 233 q 247 210 272 222 q 207 183 222 199 q 191 147 191 167 q 229 104 191 111 q 324 97 267 97 q 368 97 348 97 q 407 98 388 97 q 446 98 426 98 q 525 91 485 98 q 600 63 566 84 q 655 -1 634 41 q 676 -114 676 -43 q 649 -226 676 -179 q 577 -303 622 -274 q 475 -347 531 -333 q 358 -361 418 -361 m 333 227 q 247 239 291 227 q 167 276 203 251 q 107 342 130 301 q 85 440 85 382 q 107 538 85 497 q 167 603 130 578 q 247 640 203 628 q 333 652 291 652 q 418 640 376 652 q 497 603 461 628 q 553 538 532 578 q 575 440 575 497 q 553 342 575 382 q 497 276 532 301 q 418 239 461 251 q 333 227 376 227 m 333 254 q 401 279 374 254 q 441 346 428 304 q 453 440 453 388 q 441 533 453 491 q 401 600 428 575 q 333 625 374 625 q 266 600 292 625 q 226 533 239 575 q 213 440 213 491 q 220 346 213 388 q 253 279 228 304 q 333 254 278 254 m 711 465 q 663 483 685 465 q 641 535 641 501 q 664 584 641 569 q 711 599 686 599 q 760 584 737 599 q 783 541 783 569 l 757 541 q 735 594 757 569 q 671 619 713 619 q 614 607 646 619 q 554 564 582 595 q 513 474 526 532 l 493 488 q 538 583 507 549 q 605 632 569 617 q 669 646 641 646 q 729 631 703 646 q 770 591 755 615 q 785 541 785 567 q 761 481 785 497 q 711 465 737 465 m 192 776 l 178 791 l 331 944 l 421 944 l 574 791 l 560 776 l 375 881 l 192 776 z "},"ģ":{"ha":827,"x_min":50,"x_max":785,"o":"m 358 -361 q 240 -350 296 -361 q 141 -317 184 -340 q 74 -258 99 -294 q 50 -174 50 -223 q 71 -94 50 -126 q 124 -42 92 -62 q 188 -15 156 -23 q 244 -6 221 -6 l 265 -6 q 197 -69 218 -30 q 176 -159 176 -108 q 199 -242 176 -203 q 267 -307 222 -282 q 378 -331 312 -331 q 475 -318 430 -331 q 554 -281 520 -306 q 607 -222 588 -257 q 626 -141 626 -186 q 604 -72 626 -100 q 545 -28 582 -43 q 463 -12 508 -12 q 415 -12 448 -12 q 349 -12 382 -12 q 301 -12 316 -12 q 151 13 207 -12 q 94 101 94 39 q 116 166 94 138 q 173 214 137 194 q 255 242 209 233 q 349 252 300 252 l 348 233 q 299 227 326 233 q 247 210 272 222 q 207 183 222 199 q 191 147 191 167 q 229 104 191 111 q 324 97 267 97 q 368 97 348 97 q 407 98 388 97 q 446 98 426 98 q 525 91 485 98 q 600 63 566 84 q 655 -1 634 41 q 676 -114 676 -43 q 649 -226 676 -179 q 577 -303 622 -274 q 475 -347 531 -333 q 358 -361 418 -361 m 333 227 q 247 239 291 227 q 167 276 203 251 q 107 342 130 301 q 85 440 85 382 q 107 538 85 497 q 167 603 130 578 q 247 640 203 628 q 333 652 291 652 q 418 640 376 652 q 497 603 461 628 q 553 538 532 578 q 575 440 575 497 q 553 342 575 382 q 497 276 532 301 q 418 239 461 251 q 333 227 376 227 m 333 254 q 401 279 374 254 q 441 346 428 304 q 453 440 453 388 q 441 533 453 491 q 401 600 428 575 q 333 625 374 625 q 266 600 292 625 q 226 533 239 575 q 213 440 213 491 q 220 346 213 388 q 253 279 228 304 q 333 254 278 254 m 711 465 q 663 483 685 465 q 641 535 641 501 q 664 584 641 569 q 711 599 686 599 q 760 584 737 599 q 783 541 783 569 l 757 541 q 735 594 757 569 q 671 619 713 619 q 614 607 646 619 q 554 564 582 595 q 513 474 526 532 l 493 488 q 538 583 507 549 q 605 632 569 617 q 669 646 641 646 q 729 631 703 646 q 770 591 755 615 q 785 541 785 567 q 761 481 785 497 q 711 465 737 465 m 378 763 q 323 791 345 763 q 300 871 300 818 q 318 957 300 915 q 370 1025 335 999 q 454 1052 404 1052 l 454 1029 q 380 1003 412 1029 q 334 936 349 978 q 326 844 319 894 l 319 844 q 325 866 317 854 q 348 886 333 878 q 382 894 363 894 q 435 875 418 894 q 452 829 452 856 q 442 796 452 811 q 416 772 433 781 q 378 763 399 763 z "},"ġ":{"ha":827,"x_min":50,"x_max":785,"o":"m 358 -361 q 240 -350 296 -361 q 141 -317 184 -340 q 74 -258 99 -294 q 50 -174 50 -223 q 71 -94 50 -126 q 124 -42 92 -62 q 188 -15 156 -23 q 244 -6 221 -6 l 265 -6 q 197 -69 218 -30 q 176 -159 176 -108 q 199 -242 176 -203 q 267 -307 222 -282 q 378 -331 312 -331 q 475 -318 430 -331 q 554 -281 520 -306 q 607 -222 588 -257 q 626 -141 626 -186 q 604 -72 626 -100 q 545 -28 582 -43 q 463 -12 508 -12 q 415 -12 448 -12 q 349 -12 382 -12 q 301 -12 316 -12 q 151 13 207 -12 q 94 101 94 39 q 116 166 94 138 q 173 214 137 194 q 255 242 209 233 q 349 252 300 252 l 348 233 q 299 227 326 233 q 247 210 272 222 q 207 183 222 199 q 191 147 191 167 q 229 104 191 111 q 324 97 267 97 q 368 97 348 97 q 407 98 388 97 q 446 98 426 98 q 525 91 485 98 q 600 63 566 84 q 655 -1 634 41 q 676 -114 676 -43 q 649 -226 676 -179 q 577 -303 622 -274 q 475 -347 531 -333 q 358 -361 418 -361 m 333 227 q 247 239 291 227 q 167 276 203 251 q 107 342 130 301 q 85 440 85 382 q 107 538 85 497 q 167 603 130 578 q 247 640 203 628 q 333 652 291 652 q 418 640 376 652 q 497 603 461 628 q 553 538 532 578 q 575 440 575 497 q 553 342 575 382 q 497 276 532 301 q 418 239 461 251 q 333 227 376 227 m 333 254 q 401 279 374 254 q 441 346 428 304 q 453 440 453 388 q 441 533 453 491 q 401 600 428 575 q 333 625 374 625 q 266 600 292 625 q 226 533 239 575 q 213 440 213 491 q 220 346 213 388 q 253 279 228 304 q 333 254 278 254 m 711 465 q 663 483 685 465 q 641 535 641 501 q 664 584 641 569 q 711 599 686 599 q 760 584 737 599 q 783 541 783 569 l 757 541 q 735 594 757 569 q 671 619 713 619 q 614 607 646 619 q 554 564 582 595 q 513 474 526 532 l 493 488 q 538 583 507 549 q 605 632 569 617 q 669 646 641 646 q 729 631 703 646 q 770 591 755 615 q 785 541 785 567 q 761 481 785 497 q 711 465 737 465 m 376 885 q 317 910 342 885 q 292 969 292 935 q 317 1028 292 1003 q 376 1052 342 1052 q 435 1028 410 1052 q 459 969 459 1003 q 435 910 459 935 q 376 885 410 885 z "},"h":{"ha":827,"x_min":51,"x_max":778,"o":"m 51 0 l 51 27 l 142 27 l 142 1015 l 51 1015 l 51 1042 l 266 1042 l 266 27 l 356 27 l 356 0 l 51 0 m 474 0 l 474 27 l 565 27 l 565 423 q 559 525 565 481 q 536 594 554 569 q 480 619 518 619 q 383 588 424 619 q 317 510 342 558 q 278 410 291 463 q 266 312 266 357 l 249 308 q 261 413 249 354 q 301 526 273 472 q 377 616 329 581 q 496 652 425 652 q 617 625 576 652 q 672 551 658 599 q 687 444 687 504 l 687 27 l 778 27 l 778 0 l 474 0 z "},"ħ":{"ha":827,"x_min":46,"x_max":778,"o":"m 46 813 l 46 840 l 451 840 l 451 813 l 46 813 m 51 0 l 51 27 l 142 27 l 142 1015 l 51 1015 l 51 1042 l 266 1042 l 266 27 l 356 27 l 356 0 l 51 0 m 474 0 l 474 27 l 565 27 l 565 423 q 559 525 565 481 q 536 594 554 569 q 480 619 518 619 q 383 588 424 619 q 317 510 342 558 q 278 410 291 463 q 266 312 266 357 l 249 308 q 261 413 249 354 q 301 526 273 472 q 377 616 329 581 q 496 652 425 652 q 617 625 576 652 q 672 551 658 599 q 687 444 687 504 l 687 27 l 778 27 l 778 0 l 474 0 z "},"ĥ":{"ha":827,"x_min":51,"x_max":778,"o":"m 51 0 l 51 27 l 142 27 l 142 1015 l 51 1015 l 51 1042 l 266 1042 l 266 27 l 356 27 l 356 0 l 51 0 m 474 0 l 474 27 l 565 27 l 565 423 q 559 525 565 481 q 536 594 554 569 q 480 619 518 619 q 383 588 424 619 q 317 510 342 558 q 278 410 291 463 q 266 312 266 357 l 249 308 q 261 413 249 354 q 301 526 273 472 q 377 616 329 581 q 496 652 425 652 q 617 625 576 652 q 672 551 658 599 q 687 444 687 504 l 687 27 l 778 27 l 778 0 l 474 0 m 240 1124 l 226 1138 l 379 1291 l 469 1291 l 622 1138 l 608 1124 l 424 1228 l 240 1124 z "},"i":{"ha":421,"x_min":58,"x_max":364,"o":"m 211 885 q 152 910 177 885 q 128 969 128 935 q 152 1028 128 1003 q 211 1052 177 1052 q 270 1028 246 1052 q 294 969 294 1003 q 270 910 294 935 q 211 885 246 885 m 273 639 l 273 27 l 364 27 l 364 0 l 58 0 l 58 27 l 148 27 l 148 612 l 58 612 l 58 639 l 273 639 z "},"ı":{"ha":421,"x_min":58,"x_max":364,"o":"m 273 639 l 273 27 l 364 27 l 364 0 l 58 0 l 58 27 l 148 27 l 148 612 l 58 612 l 58 639 l 273 639 z "},"í":{"ha":421,"x_min":58,"x_max":379,"o":"m 273 639 l 273 27 l 364 27 l 364 0 l 58 0 l 58 27 l 148 27 l 148 612 l 58 612 l 58 639 l 273 639 m 171 765 l 154 783 l 294 935 q 324 951 308 950 q 352 946 339 953 q 372 927 366 939 q 378 902 379 916 q 372 877 378 888 q 353 859 365 865 l 171 765 z "},"ĭ":{"ha":421,"x_min":58,"x_max":366,"o":"m 273 639 l 273 27 l 364 27 l 364 0 l 58 0 l 58 27 l 148 27 l 148 612 l 58 612 l 58 639 l 273 639 m 213 764 q 117 791 150 764 q 73 859 85 818 q 61 943 61 901 l 76 943 q 94 886 76 909 q 144 852 113 863 q 213 840 176 840 q 282 852 250 840 q 332 886 313 863 q 351 943 351 909 l 366 943 q 354 859 366 901 q 308 791 342 818 q 213 764 275 764 z "},"î":{"ha":421,"x_min":16,"x_max":412,"o":"m 273 639 l 273 27 l 364 27 l 364 0 l 58 0 l 58 27 l 148 27 l 148 612 l 58 612 l 58 639 l 273 639 m 30 776 l 16 791 l 169 944 l 259 944 l 412 791 l 398 776 l 213 881 l 30 776 z "},"ï":{"ha":421,"x_min":35,"x_max":390,"o":"m 273 639 l 273 27 l 364 27 l 364 0 l 58 0 l 58 27 l 148 27 l 148 612 l 58 612 l 58 639 l 273 639 m 324 771 q 276 790 296 771 q 257 838 257 810 q 276 885 257 865 q 324 905 296 905 q 371 885 351 905 q 390 838 390 865 q 371 790 390 810 q 324 771 351 771 m 101 771 q 54 790 74 771 q 35 838 35 810 q 54 885 35 865 q 101 905 74 905 q 149 885 129 905 q 168 838 168 865 q 149 790 168 810 q 101 771 129 771 z "},"ì":{"ha":421,"x_min":48,"x_max":364,"o":"m 273 639 l 273 27 l 364 27 l 364 0 l 58 0 l 58 27 l 148 27 l 148 612 l 58 612 l 58 639 l 273 639 m 256 765 l 73 859 q 55 877 62 865 q 48 902 49 888 q 54 927 48 916 q 74 946 61 939 q 103 951 88 953 q 132 935 119 950 l 272 783 l 256 765 z "},"ī":{"ha":421,"x_min":47,"x_max":380,"o":"m 273 639 l 273 27 l 364 27 l 364 0 l 58 0 l 58 27 l 148 27 l 148 612 l 58 612 l 58 639 l 273 639 m 47 778 l 47 805 l 380 805 l 380 778 l 47 778 z "},"į":{"ha":421,"x_min":58,"x_max":377,"o":"m 273 639 l 273 27 l 364 27 l 364 0 l 58 0 l 58 27 l 148 27 l 148 612 l 58 612 l 58 639 l 273 639 m 214 885 q 155 910 180 885 q 131 969 131 935 q 155 1028 131 1003 q 214 1052 180 1052 q 273 1028 249 1052 q 297 969 297 1003 q 273 910 297 935 q 214 885 249 885 m 218 -291 q 148 -278 183 -291 q 91 -240 114 -266 q 68 -172 68 -213 q 86 -98 68 -130 q 133 -42 104 -66 q 197 -1 163 -17 q 263 26 231 16 l 271 12 q 233 -23 249 0 q 207 -76 216 -45 q 197 -144 197 -107 q 216 -216 197 -187 q 269 -244 234 -244 q 324 -225 303 -244 q 360 -178 344 -205 l 377 -190 q 349 -233 367 -210 q 299 -274 331 -257 q 218 -291 267 -291 z "},"ĩ":{"ha":421,"x_min":-26,"x_max":458,"o":"m 273 639 l 273 27 l 364 27 l 364 0 l 58 0 l 58 27 l 148 27 l 148 612 l 58 612 l 58 639 l 273 639 m 326 764 q 255 781 286 764 q 198 819 224 797 q 145 857 172 840 q 90 874 119 874 q 29 853 56 874 q 2 778 2 832 l -26 778 q -3 876 -26 837 q 52 935 19 915 q 120 954 86 954 q 191 938 161 954 q 246 899 222 921 q 293 861 270 878 q 342 844 316 844 q 406 865 382 844 q 431 940 431 886 l 458 940 q 442 836 458 875 q 396 781 426 797 q 326 764 367 764 z "},"ĳ":{"ha":762,"x_min":58,"x_max":623,"o":"m 211 885 q 152 910 177 885 q 128 969 128 935 q 152 1028 128 1003 q 211 1052 177 1052 q 270 1028 246 1052 q 294 969 294 1003 q 270 910 294 935 q 211 885 246 885 m 273 639 l 273 27 l 364 27 l 364 0 l 58 0 l 58 27 l 148 27 l 148 612 l 58 612 l 58 639 l 273 639 m 396 -361 q 302 -340 340 -361 q 244 -283 264 -318 q 225 -210 225 -249 q 249 -145 225 -167 q 304 -124 272 -124 q 339 -131 322 -124 q 369 -155 357 -138 q 381 -199 381 -171 q 360 -250 381 -225 q 303 -274 338 -274 q 266 -267 283 -274 q 237 -245 248 -259 q 226 -210 226 -231 l 253 -210 q 269 -272 253 -243 q 316 -317 285 -300 q 388 -335 347 -335 q 457 -303 435 -335 q 485 -220 479 -272 q 490 -103 492 -167 q 489 28 489 -38 l 489 612 l 370 612 l 370 639 l 613 639 l 613 -16 q 605 -146 613 -84 q 572 -257 596 -208 q 506 -333 549 -305 q 396 -361 464 -361 m 540 888 q 482 913 506 888 q 457 972 457 938 q 482 1031 457 1007 q 540 1056 506 1056 q 599 1031 575 1056 q 623 972 623 1007 q 599 913 623 938 q 540 888 575 888 z "},"j":{"ha":424,"x_min":-94,"x_max":303,"o":"m 76 -361 q -18 -340 20 -361 q -75 -283 -56 -318 q -94 -210 -94 -249 q -71 -145 -94 -167 q -15 -124 -47 -124 q 20 -131 2 -124 q 50 -155 38 -138 q 62 -199 62 -171 q 40 -250 62 -225 q -16 -274 19 -274 q -54 -267 -36 -274 q -82 -245 -72 -259 q -93 -210 -93 -231 l -67 -210 q -50 -272 -67 -243 q -3 -317 -34 -300 q 69 -335 27 -335 q 138 -303 116 -335 q 166 -220 160 -272 q 171 -103 172 -167 q 169 28 169 -38 l 169 612 l 51 612 l 51 639 l 294 639 l 294 -16 q 285 -146 294 -84 q 253 -257 276 -208 q 187 -333 229 -305 q 76 -361 144 -361 m 221 888 q 162 913 187 888 q 138 972 138 938 q 162 1031 138 1007 q 221 1056 187 1056 q 280 1031 256 1056 q 303 972 303 1007 q 280 913 303 938 q 221 888 256 888 z "},"ȷ":{"ha":424,"x_min":-94,"x_max":294,"o":"m 76 -361 q -18 -340 20 -361 q -75 -283 -56 -318 q -94 -210 -94 -249 q -71 -145 -94 -167 q -15 -124 -47 -124 q 20 -131 2 -124 q 50 -155 38 -138 q 62 -199 62 -171 q 40 -250 62 -225 q -16 -274 19 -274 q -54 -267 -36 -274 q -82 -245 -72 -259 q -93 -210 -93 -231 l -67 -210 q -50 -272 -67 -243 q -3 -317 -34 -300 q 69 -335 27 -335 q 138 -303 116 -335 q 166 -220 160 -272 q 171 -103 172 -167 q 169 28 169 -38 l 169 612 l 51 612 l 51 639 l 294 639 l 294 -16 q 285 -146 294 -84 q 253 -257 276 -208 q 187 -333 229 -305 q 76 -361 144 -361 z "},"ĵ":{"ha":424,"x_min":-94,"x_max":410,"o":"m 76 -361 q -18 -340 20 -361 q -75 -283 -56 -318 q -94 -210 -94 -249 q -71 -145 -94 -167 q -15 -124 -47 -124 q 20 -131 2 -124 q 50 -155 38 -138 q 62 -199 62 -171 q 40 -250 62 -225 q -16 -274 19 -274 q -54 -267 -36 -274 q -82 -245 -72 -259 q -93 -210 -93 -231 l -67 -210 q -50 -272 -67 -243 q -3 -317 -34 -300 q 69 -335 27 -335 q 138 -303 116 -335 q 166 -220 160 -272 q 171 -103 172 -167 q 169 28 169 -38 l 169 612 l 51 612 l 51 639 l 294 639 l 294 -16 q 285 -146 294 -84 q 253 -257 276 -208 q 187 -333 229 -305 q 76 -361 144 -361 m 28 776 l 15 791 l 167 944 l 258 944 l 410 791 l 397 776 l 212 881 l 28 776 z "},"k":{"ha":839,"x_min":51,"x_max":803,"o":"m 51 0 l 51 27 l 169 27 l 169 1015 l 51 1015 l 51 1042 l 294 1042 l 294 27 l 391 27 l 391 0 l 51 0 m 480 0 l 480 27 l 575 27 l 287 365 l 599 612 l 459 612 l 459 639 l 755 639 l 755 612 l 636 612 l 394 417 l 727 27 l 803 27 l 803 0 l 480 0 z "},"ķ":{"ha":839,"x_min":51,"x_max":803,"o":"m 51 0 l 51 27 l 169 27 l 169 1015 l 51 1015 l 51 1042 l 294 1042 l 294 27 l 391 27 l 391 0 l 51 0 m 480 0 l 480 27 l 575 27 l 287 365 l 599 612 l 459 612 l 459 639 l 755 639 l 755 612 l 636 612 l 394 417 l 727 27 l 803 27 l 803 0 l 480 0 m 357 -428 l 357 -405 q 431 -379 400 -405 q 477 -311 463 -353 q 485 -220 492 -269 l 492 -220 q 486 -242 494 -230 q 464 -262 478 -253 q 429 -270 449 -270 q 376 -251 393 -270 q 359 -205 359 -232 q 369 -171 359 -186 q 395 -148 378 -156 q 433 -139 413 -139 q 489 -166 466 -139 q 511 -247 511 -194 q 493 -333 511 -291 q 441 -401 476 -374 q 357 -428 407 -428 z "},"ĸ":{"ha":836,"x_min":46,"x_max":804,"o":"m 600 0 l 288 365 l 635 639 l 672 639 l 396 417 l 751 0 l 600 0 m 46 0 l 46 27 l 393 27 l 393 0 l 46 0 m 171 0 l 171 612 l 46 612 l 46 639 l 296 639 l 296 0 l 171 0 m 475 0 l 475 27 l 804 27 l 804 0 l 475 0 m 447 612 l 447 639 l 757 639 l 757 612 l 447 612 z "},"l":{"ha":463,"x_min":51,"x_max":412,"o":"m 294 1042 l 294 27 l 412 27 l 412 0 l 51 0 l 51 27 l 169 27 l 169 1015 l 51 1015 l 51 1042 l 294 1042 z "},"ĺ":{"ha":463,"x_min":51,"x_max":412,"o":"m 294 1042 l 294 27 l 412 27 l 412 0 l 51 0 l 51 27 l 169 27 l 169 1015 l 51 1015 l 51 1042 l 294 1042 m 193 1167 l 176 1186 l 317 1338 q 346 1354 331 1353 q 375 1349 361 1356 q 394 1330 388 1342 q 401 1305 401 1319 q 394 1280 400 1291 q 376 1262 388 1268 l 193 1167 z "},"ľ":{"ha":463,"x_min":51,"x_max":581,"o":"m 294 1042 l 294 27 l 412 27 l 412 0 l 51 0 l 51 27 l 169 27 l 169 1015 l 51 1015 l 51 1042 l 294 1042 m 388 681 l 388 709 q 461 728 428 709 q 515 779 493 747 q 546 853 537 812 q 548 940 555 894 l 557 940 q 549 914 559 928 q 522 889 540 899 q 478 878 503 878 q 413 902 434 878 q 391 960 391 926 q 418 1018 391 994 q 484 1042 444 1042 q 553 1008 525 1042 q 581 908 581 974 q 559 800 581 852 q 494 715 537 748 q 388 681 451 681 z "},"ļ":{"ha":463,"x_min":51,"x_max":412,"o":"m 294 1042 l 294 27 l 412 27 l 412 0 l 51 0 l 51 27 l 169 27 l 169 1015 l 51 1015 l 51 1042 l 294 1042 m 165 -428 l 165 -405 q 239 -379 208 -405 q 285 -311 270 -353 q 292 -220 299 -269 l 300 -220 q 294 -242 301 -230 q 271 -262 286 -253 q 237 -270 256 -270 q 184 -251 201 -270 q 167 -205 167 -232 q 176 -171 167 -186 q 203 -148 186 -156 q 241 -139 220 -139 q 296 -166 274 -139 q 319 -247 319 -194 q 301 -333 319 -291 q 249 -401 283 -374 q 165 -428 215 -428 z "},"ŀ":{"ha":476,"x_min":51,"x_max":560,"o":"m 294 1042 l 294 27 l 412 27 l 412 0 l 51 0 l 51 27 l 169 27 l 169 1015 l 51 1015 l 51 1042 l 294 1042 m 476 472 q 435 483 453 472 q 405 514 416 494 q 393 556 393 533 q 405 598 393 578 q 435 628 416 617 q 476 640 453 640 q 518 628 499 640 q 549 598 538 617 q 560 556 560 578 q 549 514 560 533 q 518 483 538 494 q 476 472 499 472 z "},"ł":{"ha":463,"x_min":49,"x_max":444,"o":"m 49 523 l 49 556 l 444 806 l 444 773 l 49 523 m 294 1042 l 294 27 l 412 27 l 412 0 l 51 0 l 51 27 l 169 27 l 169 1015 l 51 1015 l 51 1042 l 294 1042 z "},"m":{"ha":1195,"x_min":51,"x_max":1145,"o":"m 263 639 l 263 27 l 353 27 l 353 0 l 51 0 l 51 27 l 142 27 l 142 612 l 51 612 l 51 639 l 263 639 m 659 444 l 659 27 l 749 27 l 749 0 l 447 0 l 447 27 l 537 27 l 537 428 q 532 529 537 486 q 511 595 528 572 q 458 619 494 619 q 372 588 408 619 q 311 509 335 557 q 275 410 287 462 q 263 317 263 358 l 248 313 q 259 417 248 359 q 298 529 271 475 q 370 617 325 583 q 484 652 416 652 q 591 625 553 652 q 644 551 629 599 q 659 444 659 504 m 1054 444 l 1054 27 l 1145 27 l 1145 0 l 842 0 l 842 27 l 933 27 l 933 428 q 926 529 933 486 q 902 595 920 572 q 847 619 883 619 q 760 588 796 619 q 702 509 724 557 q 669 410 680 462 q 659 317 659 358 l 642 313 q 652 417 642 359 q 688 529 663 475 q 758 617 713 583 q 873 652 803 652 q 982 625 942 652 q 1038 551 1021 599 q 1054 444 1054 504 z "},"n":{"ha":827,"x_min":51,"x_max":778,"o":"m 263 639 l 263 27 l 353 27 l 353 0 l 51 0 l 51 27 l 142 27 l 142 612 l 51 612 l 51 639 l 263 639 m 687 444 l 687 27 l 778 27 l 778 0 l 474 0 l 474 27 l 565 27 l 565 423 q 559 525 565 481 q 536 594 554 569 q 480 619 518 619 q 383 588 424 619 q 315 510 342 558 q 276 410 289 463 q 263 312 263 357 l 246 308 q 258 413 246 354 q 299 526 270 472 q 376 616 327 581 q 498 652 424 652 q 619 625 578 652 q 673 551 659 599 q 687 444 687 504 z "},"ń":{"ha":827,"x_min":51,"x_max":778,"o":"m 263 639 l 263 27 l 353 27 l 353 0 l 51 0 l 51 27 l 142 27 l 142 612 l 51 612 l 51 639 l 263 639 m 687 444 l 687 27 l 778 27 l 778 0 l 474 0 l 474 27 l 565 27 l 565 423 q 559 525 565 481 q 536 594 554 569 q 480 619 518 619 q 383 588 424 619 q 315 510 342 558 q 276 410 289 463 q 263 312 263 357 l 246 308 q 258 413 246 354 q 299 526 270 472 q 376 616 327 581 q 498 652 424 652 q 619 625 578 652 q 673 551 659 599 q 687 444 687 504 m 382 765 l 365 783 l 506 935 q 535 951 519 950 q 564 946 550 953 q 583 927 577 939 q 590 902 590 916 q 583 877 589 888 q 565 859 576 865 l 382 765 z "},"ŉ":{"ha":975,"x_min":10,"x_max":903,"o":"m 388 639 l 388 27 l 478 27 l 478 0 l 176 0 l 176 27 l 267 27 l 267 612 l 176 612 l 176 639 l 388 639 m 812 444 l 812 27 l 903 27 l 903 0 l 599 0 l 599 27 l 690 27 l 690 423 q 684 525 690 481 q 661 594 679 569 q 605 619 643 619 q 508 588 549 619 q 440 510 467 558 q 401 410 414 463 q 388 312 388 357 l 371 308 q 383 413 371 354 q 424 526 395 472 q 501 616 452 581 q 623 652 549 652 q 744 625 703 652 q 798 551 784 599 q 812 444 812 504 m 10 651 l 10 678 q 83 697 51 678 q 137 749 115 716 q 168 823 159 781 q 170 910 177 864 l 179 910 q 172 883 181 898 q 144 858 162 869 q 101 847 126 847 q 35 871 56 847 q 13 929 13 895 q 25 971 13 952 q 59 1000 38 990 q 106 1011 80 1011 q 156 996 133 1011 q 191 951 178 981 q 203 877 203 921 q 181 769 203 822 q 116 684 159 717 q 10 651 73 651 z "},"ň":{"ha":827,"x_min":51,"x_max":778,"o":"m 263 639 l 263 27 l 353 27 l 353 0 l 51 0 l 51 27 l 142 27 l 142 612 l 51 612 l 51 639 l 263 639 m 687 444 l 687 27 l 778 27 l 778 0 l 474 0 l 474 27 l 565 27 l 565 423 q 559 525 565 481 q 536 594 554 569 q 480 619 518 619 q 383 588 424 619 q 315 510 342 558 q 276 410 289 463 q 263 312 263 357 l 246 308 q 258 413 246 354 q 299 526 270 472 q 376 616 327 581 q 498 652 424 652 q 619 625 578 652 q 673 551 659 599 q 687 444 687 504 m 380 778 l 227 931 l 242 944 l 424 840 l 608 944 l 623 931 l 470 778 l 380 778 z "},"ņ":{"ha":827,"x_min":51,"x_max":778,"o":"m 263 639 l 263 27 l 353 27 l 353 0 l 51 0 l 51 27 l 142 27 l 142 612 l 51 612 l 51 639 l 263 639 m 687 444 l 687 27 l 778 27 l 778 0 l 474 0 l 474 27 l 565 27 l 565 423 q 559 525 565 481 q 536 594 554 569 q 480 619 518 619 q 383 588 424 619 q 315 510 342 558 q 276 410 289 463 q 263 312 263 357 l 246 308 q 258 413 246 354 q 299 526 270 472 q 376 616 327 581 q 498 652 424 652 q 619 625 578 652 q 673 551 659 599 q 687 444 687 504 m 336 -428 l 336 -405 q 410 -379 379 -405 q 456 -311 442 -353 q 464 -220 471 -269 l 472 -220 q 465 -242 473 -230 q 443 -262 458 -253 q 408 -270 428 -270 q 355 -251 372 -270 q 338 -205 338 -232 q 348 -171 338 -186 q 375 -148 358 -156 q 413 -139 392 -139 q 468 -166 445 -139 q 490 -247 490 -194 q 473 -333 490 -291 q 420 -401 455 -374 q 336 -428 386 -428 z "},"ñ":{"ha":827,"x_min":51,"x_max":778,"o":"m 263 639 l 263 27 l 353 27 l 353 0 l 51 0 l 51 27 l 142 27 l 142 612 l 51 612 l 51 639 l 263 639 m 687 444 l 687 27 l 778 27 l 778 0 l 474 0 l 474 27 l 565 27 l 565 423 q 559 525 565 481 q 536 594 554 569 q 480 619 518 619 q 383 588 424 619 q 315 510 342 558 q 276 410 289 463 q 263 312 263 357 l 246 308 q 258 413 246 354 q 299 526 270 472 q 376 616 327 581 q 498 652 424 652 q 619 625 578 652 q 673 551 659 599 q 687 444 687 504 m 537 764 q 466 781 497 764 q 409 819 435 797 q 357 857 383 840 q 301 874 331 874 q 240 853 267 874 q 213 778 213 832 l 185 778 q 208 876 185 837 q 264 935 230 915 q 331 954 297 954 q 402 938 372 954 q 457 899 433 921 q 504 861 481 878 q 553 844 527 844 q 617 865 593 844 q 642 940 642 886 l 669 940 q 653 836 669 875 q 607 781 637 797 q 537 764 578 764 z "},"ŋ":{"ha":849,"x_min":57,"x_max":703,"o":"m 485 -361 q 391 -340 428 -361 q 333 -283 353 -318 q 314 -210 314 -249 q 338 -145 314 -167 q 393 -124 361 -124 q 428 -131 410 -124 q 458 -155 446 -138 q 470 -199 470 -171 q 450 -250 470 -225 q 396 -274 431 -274 q 357 -267 376 -274 q 327 -245 339 -259 q 315 -210 315 -231 l 342 -210 q 358 -271 342 -242 q 406 -318 374 -300 q 481 -335 437 -335 q 549 -304 528 -335 q 576 -220 570 -272 q 580 -103 582 -167 q 578 28 578 -38 l 578 418 l 703 444 l 702 -16 q 693 -145 702 -83 q 661 -256 685 -208 q 595 -333 638 -305 q 485 -361 553 -361 m 57 0 l 57 27 l 369 27 l 369 0 l 57 0 m 154 0 l 154 612 l 57 612 l 57 639 l 273 639 l 273 0 l 154 0 m 256 313 q 272 414 256 356 q 321 525 288 471 q 402 616 353 580 q 515 652 451 652 q 635 625 595 652 q 689 551 675 599 q 703 444 703 504 l 578 418 q 572 521 578 476 q 548 590 566 565 q 492 615 530 615 q 406 585 446 615 q 336 508 366 555 q 290 409 306 460 q 273 313 273 357 l 256 313 z "},"o":{"ha":779,"x_min":72,"x_max":708,"o":"m 390 -14 q 221 32 292 -14 q 110 153 149 78 q 72 319 72 229 q 110 485 72 410 q 221 607 149 561 q 390 652 292 652 q 559 607 488 652 q 669 485 631 561 q 708 319 708 410 q 669 153 708 229 q 559 32 631 78 q 390 -14 488 -14 m 390 13 q 481 42 447 13 q 534 117 516 71 q 559 217 553 164 q 566 319 566 271 q 559 422 566 369 q 534 522 553 475 q 481 597 516 568 q 390 626 447 626 q 299 597 334 626 q 246 522 265 568 q 221 422 228 475 q 215 319 215 369 q 221 217 215 271 q 246 117 228 164 q 299 42 265 71 q 390 13 334 13 z "},"ó":{"ha":779,"x_min":72,"x_max":708,"o":"m 390 -14 q 221 32 292 -14 q 110 153 149 78 q 72 319 72 229 q 110 485 72 410 q 221 607 149 561 q 390 652 292 652 q 559 607 488 652 q 669 485 631 561 q 708 319 708 410 q 669 153 708 229 q 559 32 631 78 q 390 -14 488 -14 m 390 13 q 481 42 447 13 q 534 117 516 71 q 559 217 553 164 q 566 319 566 271 q 559 422 566 369 q 534 522 553 475 q 481 597 516 568 q 390 626 447 626 q 299 597 334 626 q 246 522 265 568 q 221 422 228 475 q 215 319 215 369 q 221 217 215 271 q 246 117 228 164 q 299 42 265 71 q 390 13 334 13 m 348 765 l 331 783 l 472 935 q 501 951 485 950 q 530 946 516 953 q 549 927 543 939 q 556 902 556 916 q 549 877 555 888 q 531 859 542 865 l 348 765 z "},"ŏ":{"ha":779,"x_min":72,"x_max":708,"o":"m 390 -14 q 221 32 292 -14 q 110 153 149 78 q 72 319 72 229 q 110 485 72 410 q 221 607 149 561 q 390 652 292 652 q 559 607 488 652 q 669 485 631 561 q 708 319 708 410 q 669 153 708 229 q 559 32 631 78 q 390 -14 488 -14 m 390 13 q 481 42 447 13 q 534 117 516 71 q 559 217 553 164 q 566 319 566 271 q 559 422 566 369 q 534 522 553 475 q 481 597 516 568 q 390 626 447 626 q 299 597 334 626 q 246 522 265 568 q 221 422 228 475 q 215 319 215 369 q 221 217 215 271 q 246 117 228 164 q 299 42 265 71 q 390 13 334 13 m 390 764 q 294 791 327 764 q 250 859 262 818 q 238 943 238 901 l 253 943 q 272 886 253 909 q 322 852 290 863 q 390 840 353 840 q 459 852 427 840 q 509 886 490 863 q 528 943 528 909 l 543 943 q 531 859 543 901 q 485 791 519 818 q 390 764 452 764 z "},"ô":{"ha":779,"x_min":72,"x_max":708,"o":"m 390 -14 q 221 32 292 -14 q 110 153 149 78 q 72 319 72 229 q 110 485 72 410 q 221 607 149 561 q 390 652 292 652 q 559 607 488 652 q 669 485 631 561 q 708 319 708 410 q 669 153 708 229 q 559 32 631 78 q 390 -14 488 -14 m 390 13 q 481 42 447 13 q 534 117 516 71 q 559 217 553 164 q 566 319 566 271 q 559 422 566 369 q 534 522 553 475 q 481 597 516 568 q 390 626 447 626 q 299 597 334 626 q 246 522 265 568 q 221 422 228 475 q 215 319 215 369 q 221 217 215 271 q 246 117 228 164 q 299 42 265 71 q 390 13 334 13 m 206 776 l 192 791 l 345 944 l 435 944 l 588 791 l 574 776 l 390 881 l 206 776 z "},"ö":{"ha":779,"x_min":72,"x_max":708,"o":"m 390 -14 q 221 32 292 -14 q 110 153 149 78 q 72 319 72 229 q 110 485 72 410 q 221 607 149 561 q 390 652 292 652 q 559 607 488 652 q 669 485 631 561 q 708 319 708 410 q 669 153 708 229 q 559 32 631 78 q 390 -14 488 -14 m 390 13 q 481 42 447 13 q 534 117 516 71 q 559 217 553 164 q 566 319 566 271 q 559 422 566 369 q 534 522 553 475 q 481 597 516 568 q 390 626 447 626 q 299 597 334 626 q 246 522 265 568 q 221 422 228 475 q 215 319 215 369 q 221 217 215 271 q 246 117 228 164 q 299 42 265 71 q 390 13 334 13 m 500 771 q 453 790 472 771 q 433 838 433 810 q 453 885 433 865 q 500 905 472 905 q 547 885 528 905 q 567 838 567 865 q 547 790 567 810 q 500 771 528 771 m 278 771 q 231 790 250 771 q 211 838 211 810 q 231 885 211 865 q 278 905 250 905 q 325 885 306 905 q 344 838 344 865 q 325 790 344 810 q 278 771 306 771 z "},"ò":{"ha":779,"x_min":72,"x_max":708,"o":"m 390 -14 q 221 32 292 -14 q 110 153 149 78 q 72 319 72 229 q 110 485 72 410 q 221 607 149 561 q 390 652 292 652 q 559 607 488 652 q 669 485 631 561 q 708 319 708 410 q 669 153 708 229 q 559 32 631 78 q 390 -14 488 -14 m 390 13 q 481 42 447 13 q 534 117 516 71 q 559 217 553 164 q 566 319 566 271 q 559 422 566 369 q 534 522 553 475 q 481 597 516 568 q 390 626 447 626 q 299 597 334 626 q 246 522 265 568 q 221 422 228 475 q 215 319 215 369 q 221 217 215 271 q 246 117 228 164 q 299 42 265 71 q 390 13 334 13 m 432 765 l 249 859 q 232 877 238 865 q 225 902 225 888 q 231 927 224 916 q 251 946 238 939 q 280 951 264 953 q 308 935 295 950 l 449 783 l 432 765 z "},"ő":{"ha":779,"x_min":72,"x_max":708,"o":"m 390 -14 q 221 32 292 -14 q 110 153 149 78 q 72 319 72 229 q 110 485 72 410 q 221 607 149 561 q 390 652 292 652 q 559 607 488 652 q 669 485 631 561 q 708 319 708 410 q 669 153 708 229 q 559 32 631 78 q 390 -14 488 -14 m 390 13 q 481 42 447 13 q 534 117 516 71 q 559 217 553 164 q 566 319 566 271 q 559 422 566 369 q 534 522 553 475 q 481 597 516 568 q 390 626 447 626 q 299 597 334 626 q 246 522 265 568 q 221 422 228 475 q 215 319 215 369 q 221 217 215 271 q 246 117 228 164 q 299 42 265 71 q 390 13 334 13 m 209 765 l 192 783 l 333 935 q 362 951 347 950 q 391 946 377 953 q 410 927 404 939 q 417 902 417 916 q 410 877 416 888 q 392 859 403 865 l 209 765 m 494 765 l 477 783 l 617 935 q 647 951 631 950 q 675 946 662 953 q 695 927 689 939 q 701 902 702 916 q 694 877 701 888 q 676 859 688 865 l 494 765 z "},"ō":{"ha":779,"x_min":72,"x_max":708,"o":"m 390 -14 q 221 32 292 -14 q 110 153 149 78 q 72 319 72 229 q 110 485 72 410 q 221 607 149 561 q 390 652 292 652 q 559 607 488 652 q 669 485 631 561 q 708 319 708 410 q 669 153 708 229 q 559 32 631 78 q 390 -14 488 -14 m 390 13 q 481 42 447 13 q 534 117 516 71 q 559 217 553 164 q 566 319 566 271 q 559 422 566 369 q 534 522 553 475 q 481 597 516 568 q 390 626 447 626 q 299 597 334 626 q 246 522 265 568 q 221 422 228 475 q 215 319 215 369 q 221 217 215 271 q 246 117 228 164 q 299 42 265 71 q 390 13 334 13 m 223 778 l 223 805 l 556 805 l 556 778 l 223 778 z "},"ø":{"ha":779,"x_min":72,"x_max":708,"o":"m 78 -171 l 674 804 l 701 804 l 105 -171 l 78 -171 m 390 -14 q 221 32 292 -14 q 110 153 149 78 q 72 319 72 229 q 110 485 72 410 q 221 607 149 561 q 390 652 292 652 q 559 607 488 652 q 669 485 631 561 q 708 319 708 410 q 669 153 708 229 q 559 32 631 78 q 390 -14 488 -14 m 390 13 q 481 42 447 13 q 534 117 516 71 q 559 217 553 164 q 566 319 566 271 q 559 422 566 369 q 534 522 553 475 q 481 597 516 568 q 390 626 447 626 q 299 597 334 626 q 246 522 265 568 q 221 422 228 475 q 215 319 215 369 q 221 217 215 271 q 246 117 228 164 q 299 42 265 71 q 390 13 334 13 z "},"õ":{"ha":779,"x_min":72,"x_max":708,"o":"m 390 -14 q 221 32 292 -14 q 110 153 149 78 q 72 319 72 229 q 110 485 72 410 q 221 607 149 561 q 390 652 292 652 q 559 607 488 652 q 669 485 631 561 q 708 319 708 410 q 669 153 708 229 q 559 32 631 78 q 390 -14 488 -14 m 390 13 q 481 42 447 13 q 534 117 516 71 q 559 217 553 164 q 566 319 566 271 q 559 422 566 369 q 534 522 553 475 q 481 597 516 568 q 390 626 447 626 q 299 597 334 626 q 246 522 265 568 q 221 422 228 475 q 215 319 215 369 q 221 217 215 271 q 246 117 228 164 q 299 42 265 71 q 390 13 334 13 m 502 764 q 432 781 463 764 q 374 819 401 797 q 322 857 348 840 q 266 874 296 874 q 205 853 232 874 q 178 778 178 832 l 151 778 q 173 876 151 837 q 229 935 195 915 q 297 954 263 954 q 368 938 338 954 q 422 899 398 921 q 469 861 447 878 q 519 844 492 844 q 583 865 558 844 q 607 940 607 886 l 634 940 q 618 836 634 875 q 573 781 602 797 q 502 764 543 764 z "},"œ":{"ha":1224,"x_min":72,"x_max":1160,"o":"m 390 -14 q 221 32 292 -14 q 110 153 149 78 q 72 319 72 229 q 110 485 72 410 q 221 607 149 561 q 390 652 292 652 q 559 607 488 652 q 669 485 631 561 q 708 319 708 410 q 669 153 708 229 q 559 32 631 78 q 390 -14 488 -14 m 390 13 q 481 42 447 13 q 534 117 516 71 q 559 217 553 164 q 566 319 566 271 q 559 422 566 369 q 534 522 553 475 q 481 597 516 568 q 390 626 447 626 q 299 597 334 626 q 246 522 265 568 q 221 422 228 475 q 215 319 215 369 q 221 217 215 271 q 246 117 228 164 q 299 42 265 71 q 390 13 334 13 m 883 -14 q 724 26 795 -14 q 610 141 652 66 q 568 319 568 215 q 608 498 568 424 q 717 612 647 572 q 875 652 786 652 q 1036 612 976 652 q 1123 507 1096 572 q 1149 366 1149 442 l 662 366 l 662 393 l 1002 393 q 998 468 1002 428 q 982 544 994 508 q 944 603 970 580 q 875 626 919 626 q 793 601 825 626 q 743 532 761 576 q 718 434 726 489 q 711 319 711 379 q 719 205 711 260 q 747 108 727 151 q 802 41 767 65 q 891 16 837 16 q 1043 63 984 16 q 1128 181 1103 110 l 1160 181 q 1065 42 1133 97 q 883 -14 997 -14 z "},"p":{"ha":845,"x_min":51,"x_max":774,"o":"m 51 -347 l 51 -320 l 142 -320 l 142 612 l 51 612 l 51 639 l 266 639 l 266 436 q 347 593 289 535 q 489 651 405 651 q 627 612 562 651 q 733 498 692 572 q 774 319 774 424 q 733 141 774 215 q 627 26 692 66 q 489 -14 562 -14 q 347 45 405 -14 q 266 202 289 103 l 266 -320 l 356 -320 l 356 -347 l 51 -347 m 464 24 q 556 59 518 24 q 613 160 593 94 q 632 319 632 226 q 613 478 632 413 q 556 579 593 544 q 464 614 518 614 q 367 580 412 614 q 294 479 322 545 q 266 319 266 413 q 294 159 266 226 q 367 58 322 93 q 464 24 412 24 z "},"þ":{"ha":828,"x_min":40,"x_max":769,"o":"m 40 -347 l 40 -320 l 137 -320 l 137 1015 l 40 1015 l 40 1042 l 262 1042 l 262 436 q 342 593 284 535 q 483 651 399 651 q 622 612 557 651 q 728 498 688 572 q 769 319 769 424 q 728 141 769 215 q 622 26 688 66 q 483 -14 557 -14 q 342 45 399 -14 q 262 202 284 103 l 262 -320 l 358 -320 l 358 -347 l 40 -347 m 459 24 q 551 59 513 24 q 608 160 588 94 q 627 319 627 226 q 608 478 627 413 q 551 579 588 544 q 459 614 513 614 q 362 580 407 614 q 290 479 317 545 q 262 319 262 413 q 290 159 262 226 q 362 58 317 93 q 459 24 407 24 z "},"q":{"ha":845,"x_min":72,"x_max":795,"o":"m 488 -347 l 488 -320 l 579 -320 l 579 201 q 500 45 557 103 q 358 -13 442 -13 q 219 26 285 -13 q 113 140 154 66 q 72 319 72 215 q 113 498 72 423 q 219 612 154 572 q 358 652 285 652 q 500 594 442 652 q 579 436 557 535 l 579 639 l 795 639 l 795 612 l 705 612 l 705 -320 l 795 -320 l 795 -347 l 488 -347 m 382 24 q 479 59 434 24 q 551 159 524 94 q 579 319 579 225 q 551 479 579 413 q 479 580 524 545 q 382 615 434 615 q 291 580 328 615 q 234 478 253 544 q 215 319 215 412 q 234 160 215 226 q 291 59 253 94 q 382 24 328 24 z "},"r":{"ha":614,"x_min":51,"x_max":577,"o":"m 247 298 q 260 421 247 359 q 299 536 273 483 q 365 620 325 588 q 457 652 404 652 q 523 638 496 652 q 563 599 549 623 q 577 549 577 576 q 556 489 577 513 q 498 464 535 464 q 439 484 461 464 q 417 536 417 505 q 443 594 417 575 q 498 614 468 614 q 537 606 519 614 q 565 582 555 597 q 576 549 576 567 l 549 549 q 536 587 549 570 q 501 614 523 604 q 454 624 480 624 q 377 596 413 624 q 317 520 342 568 q 277 415 292 473 q 263 298 263 358 l 247 298 m 263 639 l 263 27 l 362 27 l 362 0 l 51 0 l 51 27 l 142 27 l 142 612 l 51 612 l 51 639 l 263 639 z "},"ŕ":{"ha":614,"x_min":51,"x_max":577,"o":"m 247 298 q 260 421 247 359 q 299 536 273 483 q 365 620 325 588 q 457 652 404 652 q 523 638 496 652 q 563 599 549 623 q 577 549 577 576 q 556 489 577 513 q 498 464 535 464 q 439 484 461 464 q 417 536 417 505 q 443 594 417 575 q 498 614 468 614 q 537 606 519 614 q 565 582 555 597 q 576 549 576 567 l 549 549 q 536 587 549 570 q 501 614 523 604 q 454 624 480 624 q 377 596 413 624 q 317 520 342 568 q 277 415 292 473 q 263 298 263 358 l 247 298 m 263 639 l 263 27 l 362 27 l 362 0 l 51 0 l 51 27 l 142 27 l 142 612 l 51 612 l 51 639 l 263 639 m 288 765 l 272 783 l 412 935 q 441 951 426 950 q 470 946 456 953 q 490 927 483 939 q 496 902 497 916 q 489 877 495 888 q 471 859 483 865 l 288 765 z "},"ř":{"ha":614,"x_min":51,"x_max":577,"o":"m 247 298 q 260 421 247 359 q 299 536 273 483 q 365 620 325 588 q 457 652 404 652 q 523 638 496 652 q 563 599 549 623 q 577 549 577 576 q 556 489 577 513 q 498 464 535 464 q 439 484 461 464 q 417 536 417 505 q 443 594 417 575 q 498 614 468 614 q 537 606 519 614 q 565 582 555 597 q 576 549 576 567 l 549 549 q 536 587 549 570 q 501 614 523 604 q 454 624 480 624 q 377 596 413 624 q 317 520 342 568 q 277 415 292 473 q 263 298 263 358 l 247 298 m 263 639 l 263 27 l 362 27 l 362 0 l 51 0 l 51 27 l 142 27 l 142 612 l 51 612 l 51 639 l 263 639 m 286 778 l 133 931 l 148 944 l 331 840 l 515 944 l 529 931 l 376 778 l 286 778 z "},"ŗ":{"ha":614,"x_min":51,"x_max":577,"o":"m 247 298 q 260 421 247 359 q 299 536 273 483 q 365 620 325 588 q 457 652 404 652 q 523 638 496 652 q 563 599 549 623 q 577 549 577 576 q 556 489 577 513 q 498 464 535 464 q 439 484 461 464 q 417 536 417 505 q 443 594 417 575 q 498 614 468 614 q 537 606 519 614 q 565 582 555 597 q 576 549 576 567 l 549 549 q 536 587 549 570 q 501 614 523 604 q 454 624 480 624 q 377 596 413 624 q 317 520 342 568 q 277 415 292 473 q 263 298 263 358 l 247 298 m 263 639 l 263 27 l 362 27 l 362 0 l 51 0 l 51 27 l 142 27 l 142 612 l 51 612 l 51 639 l 263 639 m 133 -428 l 133 -405 q 208 -379 176 -405 q 253 -311 239 -353 q 261 -220 268 -269 l 269 -220 q 263 -242 270 -230 q 240 -262 255 -253 q 206 -270 225 -270 q 152 -251 169 -270 q 135 -205 135 -232 q 145 -171 135 -186 q 172 -148 155 -156 q 210 -139 189 -139 q 265 -166 242 -139 q 288 -247 288 -194 q 270 -333 288 -291 q 218 -401 252 -374 q 133 -428 183 -428 z "},"ȓ":{"ha":614,"x_min":51,"x_max":577,"o":"m 247 298 q 260 421 247 359 q 299 536 273 483 q 365 620 325 588 q 457 652 404 652 q 523 638 496 652 q 563 599 549 623 q 577 549 577 576 q 556 489 577 513 q 498 464 535 464 q 439 484 461 464 q 417 536 417 505 q 443 594 417 575 q 498 614 468 614 q 537 606 519 614 q 565 582 555 597 q 576 549 576 567 l 549 549 q 536 587 549 570 q 501 614 523 604 q 454 624 480 624 q 377 596 413 624 q 317 520 342 568 q 277 415 292 473 q 263 298 263 358 l 247 298 m 263 639 l 263 27 l 362 27 l 362 0 l 51 0 l 51 27 l 142 27 l 142 612 l 51 612 l 51 639 l 263 639 m 179 764 q 191 848 179 806 q 236 916 203 889 q 332 943 269 943 q 427 916 394 943 q 472 848 460 889 q 484 764 484 806 l 469 764 q 450 821 469 798 q 401 855 432 844 q 332 867 369 867 q 264 855 295 867 q 213 821 232 844 q 194 764 194 798 l 179 764 z "},"s":{"ha":610,"x_min":65,"x_max":540,"o":"m 65 -14 l 65 189 l 92 189 q 130 102 100 142 q 205 39 160 63 q 301 15 249 15 q 374 28 340 15 q 431 66 409 40 q 452 133 452 92 q 425 202 452 176 q 357 244 399 228 q 268 276 315 260 q 179 314 221 292 q 111 373 138 336 q 84 471 84 410 q 104 557 84 515 q 166 625 124 598 q 274 651 208 651 q 360 636 321 651 q 430 595 400 621 l 482 652 l 506 652 l 506 458 l 478 458 q 448 537 475 499 q 377 599 422 574 q 275 623 333 623 q 215 611 242 623 q 170 578 187 600 q 154 527 154 557 q 182 465 154 489 q 254 424 210 441 q 347 389 298 406 q 441 348 397 372 q 513 287 485 324 q 540 192 540 250 q 510 84 540 131 q 428 12 480 38 q 312 -14 377 -14 q 221 3 264 -14 q 144 48 178 19 l 88 -14 l 65 -14 z "},"ś":{"ha":610,"x_min":65,"x_max":540,"o":"m 65 -14 l 65 189 l 92 189 q 130 102 100 142 q 205 39 160 63 q 301 15 249 15 q 374 28 340 15 q 431 66 409 40 q 452 133 452 92 q 425 202 452 176 q 357 244 399 228 q 268 276 315 260 q 179 314 221 292 q 111 373 138 336 q 84 471 84 410 q 104 557 84 515 q 166 625 124 598 q 274 651 208 651 q 360 636 321 651 q 430 595 400 621 l 482 652 l 506 652 l 506 458 l 478 458 q 448 537 475 499 q 377 599 422 574 q 275 623 333 623 q 215 611 242 623 q 170 578 187 600 q 154 527 154 557 q 182 465 154 489 q 254 424 210 441 q 347 389 298 406 q 441 348 397 372 q 513 287 485 324 q 540 192 540 250 q 510 84 540 131 q 428 12 480 38 q 312 -14 377 -14 q 221 3 264 -14 q 144 48 178 19 l 88 -14 l 65 -14 m 257 765 l 240 783 l 381 935 q 410 951 394 950 q 439 946 425 953 q 458 927 452 939 q 465 902 465 916 q 458 877 464 888 q 440 859 451 865 l 257 765 z "},"š":{"ha":610,"x_min":65,"x_max":540,"o":"m 65 -14 l 65 189 l 92 189 q 130 102 100 142 q 205 39 160 63 q 301 15 249 15 q 374 28 340 15 q 431 66 409 40 q 452 133 452 92 q 425 202 452 176 q 357 244 399 228 q 268 276 315 260 q 179 314 221 292 q 111 373 138 336 q 84 471 84 410 q 104 557 84 515 q 166 625 124 598 q 274 651 208 651 q 360 636 321 651 q 430 595 400 621 l 482 652 l 506 652 l 506 458 l 478 458 q 448 537 475 499 q 377 599 422 574 q 275 623 333 623 q 215 611 242 623 q 170 578 187 600 q 154 527 154 557 q 182 465 154 489 q 254 424 210 441 q 347 389 298 406 q 441 348 397 372 q 513 287 485 324 q 540 192 540 250 q 510 84 540 131 q 428 12 480 38 q 312 -14 377 -14 q 221 3 264 -14 q 144 48 178 19 l 88 -14 l 65 -14 m 255 778 l 102 931 l 117 944 l 299 840 l 483 944 l 498 931 l 345 778 l 255 778 z "},"ş":{"ha":610,"x_min":65,"x_max":540,"o":"m 65 -14 l 65 189 l 92 189 q 130 102 100 142 q 205 39 160 63 q 301 15 249 15 q 374 28 340 15 q 431 66 409 40 q 452 133 452 92 q 425 202 452 176 q 357 244 399 228 q 268 276 315 260 q 179 314 221 292 q 111 373 138 336 q 84 471 84 410 q 104 557 84 515 q 166 625 124 598 q 274 651 208 651 q 360 636 321 651 q 430 595 400 621 l 482 652 l 506 652 l 506 458 l 478 458 q 448 537 475 499 q 377 599 422 574 q 275 623 333 623 q 215 611 242 623 q 170 578 187 600 q 154 527 154 557 q 182 465 154 489 q 254 424 210 441 q 347 389 298 406 q 441 348 397 372 q 513 287 485 324 q 540 192 540 250 q 510 84 540 131 q 428 12 480 38 q 312 -14 377 -14 q 221 3 264 -14 q 144 48 178 19 l 88 -14 l 65 -14 m 189 -349 l 189 -322 q 288 -300 251 -322 q 325 -245 325 -278 q 305 -195 325 -212 q 250 -172 285 -178 q 169 -165 215 -165 l 291 -2 l 325 -2 l 244 -110 q 335 -124 295 -112 q 400 -159 376 -135 q 424 -222 424 -183 q 400 -286 424 -257 q 325 -332 376 -315 q 189 -349 273 -349 z "},"ŝ":{"ha":610,"x_min":65,"x_max":540,"o":"m 65 -14 l 65 189 l 92 189 q 130 102 100 142 q 205 39 160 63 q 301 15 249 15 q 374 28 340 15 q 431 66 409 40 q 452 133 452 92 q 425 202 452 176 q 357 244 399 228 q 268 276 315 260 q 179 314 221 292 q 111 373 138 336 q 84 471 84 410 q 104 557 84 515 q 166 625 124 598 q 274 651 208 651 q 360 636 321 651 q 430 595 400 621 l 482 652 l 506 652 l 506 458 l 478 458 q 448 537 475 499 q 377 599 422 574 q 275 623 333 623 q 215 611 242 623 q 170 578 187 600 q 154 527 154 557 q 182 465 154 489 q 254 424 210 441 q 347 389 298 406 q 441 348 397 372 q 513 287 485 324 q 540 192 540 250 q 510 84 540 131 q 428 12 480 38 q 312 -14 377 -14 q 221 3 264 -14 q 144 48 178 19 l 88 -14 l 65 -14 m 116 776 l 102 791 l 255 944 l 345 944 l 498 791 l 484 776 l 299 881 l 116 776 z "},"ș":{"ha":610,"x_min":65,"x_max":540,"o":"m 65 -14 l 65 189 l 92 189 q 130 102 100 142 q 205 39 160 63 q 301 15 249 15 q 374 28 340 15 q 431 66 409 40 q 452 133 452 92 q 425 202 452 176 q 357 244 399 228 q 268 276 315 260 q 179 314 221 292 q 111 373 138 336 q 84 471 84 410 q 104 557 84 515 q 166 625 124 598 q 274 651 208 651 q 360 636 321 651 q 430 595 400 621 l 482 652 l 506 652 l 506 458 l 478 458 q 448 537 475 499 q 377 599 422 574 q 275 623 333 623 q 215 611 242 623 q 170 578 187 600 q 154 527 154 557 q 182 465 154 489 q 254 424 210 441 q 347 389 298 406 q 441 348 397 372 q 513 287 485 324 q 540 192 540 250 q 510 84 540 131 q 428 12 480 38 q 312 -14 377 -14 q 221 3 264 -14 q 144 48 178 19 l 88 -14 l 65 -14 m 225 -433 l 225 -410 q 299 -385 268 -410 q 345 -317 331 -359 q 353 -226 360 -274 l 360 -226 q 354 -247 362 -235 q 332 -267 347 -259 q 297 -276 317 -276 q 244 -257 261 -276 q 227 -210 227 -237 q 237 -177 227 -192 q 264 -153 247 -162 q 301 -144 281 -144 q 357 -172 334 -144 q 379 -252 379 -199 q 361 -338 379 -297 q 309 -407 344 -380 q 225 -433 275 -433 z "},"ß":{"ha":945,"x_min":20,"x_max":890,"o":"m 146 0 l 146 682 q 172 842 146 772 q 247 959 198 911 q 365 1031 296 1006 q 518 1056 433 1056 q 653 1035 592 1056 q 758 980 715 1015 q 826 900 802 944 q 849 807 849 856 q 814 682 849 738 q 698 593 779 626 q 476 560 616 560 l 476 576 q 589 598 544 576 q 660 652 633 619 q 697 723 686 685 q 708 794 708 760 q 699 873 708 831 q 667 950 689 914 q 609 1008 646 986 q 518 1031 572 1031 q 401 1002 449 1031 q 325 923 353 974 q 284 808 297 873 q 272 668 272 742 l 272 0 l 146 0 m 20 0 l 20 27 l 396 27 l 396 0 l 20 0 m 626 -14 q 500 39 552 -14 q 449 188 449 92 q 474 255 449 231 q 535 279 499 279 q 588 259 567 279 q 610 201 610 239 q 599 162 610 179 q 569 135 588 144 q 531 125 551 125 q 497 132 515 125 q 465 153 478 139 q 450 188 451 167 l 476 188 q 497 91 476 129 q 550 33 517 52 q 620 14 583 14 q 687 34 661 14 q 726 85 713 53 q 745 152 740 116 q 750 222 750 189 q 740 328 750 272 q 701 435 730 385 q 619 518 673 485 q 476 550 565 550 l 476 567 q 683 539 602 567 q 809 462 764 510 q 872 352 854 414 q 890 222 890 290 q 869 127 890 170 q 811 52 848 83 q 727 3 774 21 q 626 -14 679 -14 z "},"ſ":{"ha":553,"x_min":44,"x_max":607,"o":"m 436 1056 q 530 1035 492 1056 q 588 982 568 1014 q 607 918 607 951 q 583 854 607 876 q 527 832 559 832 q 492 839 510 832 q 462 863 474 847 q 450 908 450 880 q 463 950 450 933 q 493 976 475 967 q 529 985 512 985 q 551 975 540 983 q 565 955 562 967 q 539 992 557 975 q 495 1018 521 1008 q 436 1028 469 1028 q 348 995 381 1028 q 301 900 315 963 q 288 750 288 838 l 288 27 l 447 27 l 447 0 l 44 0 l 44 27 l 163 27 l 163 710 q 193 880 163 801 q 285 1007 224 959 q 436 1056 346 1056 z "},"t":{"ha":466,"x_min":37,"x_max":444,"o":"m 265 -10 q 179 16 208 -10 q 140 79 150 41 q 130 155 130 117 l 130 778 q 197 791 161 778 q 254 819 233 804 l 254 122 q 267 53 254 70 q 309 35 279 35 q 372 65 342 35 q 421 131 402 94 l 444 116 q 373 25 416 60 q 265 -10 331 -10 m 37 612 l 37 639 l 403 639 l 403 612 l 37 612 z "},"ŧ":{"ha":466,"x_min":36,"x_max":444,"o":"m 36 410 l 36 437 l 408 437 l 408 410 l 36 410 m 265 -10 q 179 16 208 -10 q 140 79 150 41 q 130 155 130 117 l 130 778 q 197 791 161 778 q 254 819 233 804 l 254 122 q 267 53 254 70 q 309 35 279 35 q 372 65 342 35 q 421 131 402 94 l 444 116 q 373 25 416 60 q 265 -10 331 -10 m 37 612 l 37 639 l 403 639 l 403 612 l 37 612 z "},"ť":{"ha":466,"x_min":37,"x_max":519,"o":"m 265 -10 q 179 16 208 -10 q 140 79 150 41 q 130 155 130 117 l 130 778 q 197 791 161 778 q 254 819 233 804 l 254 122 q 267 53 254 70 q 309 35 279 35 q 372 65 342 35 q 421 131 402 94 l 444 116 q 373 25 416 60 q 265 -10 331 -10 m 37 612 l 37 639 l 403 639 l 403 612 l 37 612 m 326 751 l 326 778 q 399 797 367 778 q 453 849 431 816 q 484 923 475 881 q 486 1010 493 964 l 495 1010 q 488 983 497 998 q 460 958 478 969 q 417 947 442 947 q 351 971 372 947 q 329 1029 329 995 q 356 1088 329 1064 q 422 1111 383 1111 q 491 1077 463 1111 q 519 977 519 1043 q 497 869 519 922 q 432 784 475 817 q 326 751 389 751 z "},"ţ":{"ha":466,"x_min":37,"x_max":444,"o":"m 265 -10 q 179 16 208 -10 q 140 79 150 41 q 130 155 130 117 l 130 778 q 197 791 161 778 q 254 819 233 804 l 254 122 q 267 53 254 70 q 309 35 279 35 q 372 65 342 35 q 421 131 402 94 l 444 116 q 373 25 416 60 q 265 -10 331 -10 m 37 612 l 37 639 l 403 639 l 403 612 l 37 612 m 151 -343 l 151 -316 q 250 -294 213 -316 q 287 -240 287 -272 q 267 -190 287 -207 q 211 -166 247 -172 q 131 -160 176 -160 l 253 3 l 287 3 l 206 -104 q 297 -118 257 -106 q 361 -154 338 -130 q 385 -217 385 -178 q 362 -280 385 -251 q 286 -326 338 -309 q 151 -343 235 -343 z "},"ț":{"ha":466,"x_min":37,"x_max":444,"o":"m 265 -10 q 179 16 208 -10 q 140 79 150 41 q 130 155 130 117 l 130 778 q 197 791 161 778 q 254 819 233 804 l 254 122 q 267 53 254 70 q 309 35 279 35 q 372 65 342 35 q 421 131 402 94 l 444 116 q 373 25 416 60 q 265 -10 331 -10 m 37 612 l 37 639 l 403 639 l 403 612 l 37 612 m 187 -428 l 187 -405 q 261 -379 230 -405 q 307 -311 292 -353 q 315 -220 322 -269 l 322 -220 q 316 -242 324 -230 q 293 -262 308 -253 q 259 -270 278 -270 q 206 -251 223 -270 q 189 -205 189 -232 q 199 -171 189 -186 q 225 -148 208 -156 q 263 -139 242 -139 q 318 -166 296 -139 q 341 -247 341 -194 q 323 -333 341 -291 q 271 -401 306 -374 q 187 -428 237 -428 z "},"u":{"ha":831,"x_min":51,"x_max":781,"o":"m 333 -14 q 211 14 253 -14 q 156 88 170 41 q 142 196 142 135 l 142 612 l 51 612 l 51 639 l 266 639 l 266 216 q 272 114 266 158 q 295 45 277 69 q 351 20 314 20 q 448 51 408 20 q 515 129 489 81 q 552 230 540 176 q 565 327 565 283 l 581 331 q 570 226 581 285 q 532 112 559 167 q 457 22 506 58 q 333 -14 408 -14 m 565 0 l 565 612 l 467 612 l 467 639 l 690 639 l 690 27 l 781 27 l 781 0 l 565 0 z "},"ú":{"ha":831,"x_min":51,"x_max":781,"o":"m 333 -14 q 211 14 253 -14 q 156 88 170 41 q 142 196 142 135 l 142 612 l 51 612 l 51 639 l 266 639 l 266 216 q 272 114 266 158 q 295 45 277 69 q 351 20 314 20 q 448 51 408 20 q 515 129 489 81 q 552 230 540 176 q 565 327 565 283 l 581 331 q 570 226 581 285 q 532 112 559 167 q 457 22 506 58 q 333 -14 408 -14 m 565 0 l 565 612 l 467 612 l 467 639 l 690 639 l 690 27 l 781 27 l 781 0 l 565 0 m 338 765 l 321 783 l 461 935 q 490 951 475 950 q 519 946 506 953 q 539 927 533 939 q 545 902 546 916 q 538 877 544 888 q 520 859 532 865 l 338 765 z "},"ŭ":{"ha":831,"x_min":51,"x_max":781,"o":"m 333 -14 q 211 14 253 -14 q 156 88 170 41 q 142 196 142 135 l 142 612 l 51 612 l 51 639 l 266 639 l 266 216 q 272 114 266 158 q 295 45 277 69 q 351 20 314 20 q 448 51 408 20 q 515 129 489 81 q 552 230 540 176 q 565 327 565 283 l 581 331 q 570 226 581 285 q 532 112 559 167 q 457 22 506 58 q 333 -14 408 -14 m 565 0 l 565 612 l 467 612 l 467 639 l 690 639 l 690 27 l 781 27 l 781 0 l 565 0 m 379 764 q 284 791 317 764 q 240 859 251 818 q 228 943 228 901 l 242 943 q 261 886 242 909 q 311 852 280 863 q 379 840 342 840 q 448 852 417 840 q 499 886 480 863 q 517 943 517 909 l 533 943 q 520 859 533 901 q 475 791 508 818 q 379 764 442 764 z "},"û":{"ha":831,"x_min":51,"x_max":781,"o":"m 333 -14 q 211 14 253 -14 q 156 88 170 41 q 142 196 142 135 l 142 612 l 51 612 l 51 639 l 266 639 l 266 216 q 272 114 266 158 q 295 45 277 69 q 351 20 314 20 q 448 51 408 20 q 515 129 489 81 q 552 230 540 176 q 565 327 565 283 l 581 331 q 570 226 581 285 q 532 112 559 167 q 457 22 506 58 q 333 -14 408 -14 m 565 0 l 565 612 l 467 612 l 467 639 l 690 639 l 690 27 l 781 27 l 781 0 l 565 0 m 196 776 l 182 791 l 335 944 l 425 944 l 578 791 l 564 776 l 379 881 l 196 776 z "},"ü":{"ha":831,"x_min":51,"x_max":781,"o":"m 333 -14 q 211 14 253 -14 q 156 88 170 41 q 142 196 142 135 l 142 612 l 51 612 l 51 639 l 266 639 l 266 216 q 272 114 266 158 q 295 45 277 69 q 351 20 314 20 q 448 51 408 20 q 515 129 489 81 q 552 230 540 176 q 565 327 565 283 l 581 331 q 570 226 581 285 q 532 112 559 167 q 457 22 506 58 q 333 -14 408 -14 m 565 0 l 565 612 l 467 612 l 467 639 l 690 639 l 690 27 l 781 27 l 781 0 l 565 0 m 490 771 q 442 790 462 771 q 423 838 423 810 q 442 885 423 865 q 490 905 462 905 q 537 885 517 905 q 556 838 556 865 q 537 790 556 810 q 490 771 517 771 m 267 771 q 220 790 240 771 q 201 838 201 810 q 220 885 201 865 q 267 905 240 905 q 315 885 295 905 q 334 838 334 865 q 315 790 334 810 q 267 771 295 771 z "},"ù":{"ha":831,"x_min":51,"x_max":781,"o":"m 333 -14 q 211 14 253 -14 q 156 88 170 41 q 142 196 142 135 l 142 612 l 51 612 l 51 639 l 266 639 l 266 216 q 272 114 266 158 q 295 45 277 69 q 351 20 314 20 q 448 51 408 20 q 515 129 489 81 q 552 230 540 176 q 565 327 565 283 l 581 331 q 570 226 581 285 q 532 112 559 167 q 457 22 506 58 q 333 -14 408 -14 m 565 0 l 565 612 l 467 612 l 467 639 l 690 639 l 690 27 l 781 27 l 781 0 l 565 0 m 422 765 l 239 859 q 221 877 228 865 q 214 902 215 888 q 220 927 214 916 q 240 946 227 939 q 269 951 253 953 q 298 935 285 950 l 438 783 l 422 765 z "},"ű":{"ha":831,"x_min":51,"x_max":781,"o":"m 333 -14 q 211 14 253 -14 q 156 88 170 41 q 142 196 142 135 l 142 612 l 51 612 l 51 639 l 266 639 l 266 216 q 272 114 266 158 q 295 45 277 69 q 351 20 314 20 q 448 51 408 20 q 515 129 489 81 q 552 230 540 176 q 565 327 565 283 l 581 331 q 570 226 581 285 q 532 112 559 167 q 457 22 506 58 q 333 -14 408 -14 m 565 0 l 565 612 l 467 612 l 467 639 l 690 639 l 690 27 l 781 27 l 781 0 l 565 0 m 199 765 l 182 783 l 322 935 q 351 951 336 950 q 380 946 367 953 q 400 927 394 939 q 406 902 407 916 q 399 877 406 888 q 381 859 393 865 l 199 765 m 483 765 l 467 783 l 607 935 q 636 951 621 950 q 665 946 651 953 q 685 927 678 939 q 691 902 692 916 q 684 877 690 888 q 666 859 678 865 l 483 765 z "},"ū":{"ha":831,"x_min":51,"x_max":781,"o":"m 333 -14 q 211 14 253 -14 q 156 88 170 41 q 142 196 142 135 l 142 612 l 51 612 l 51 639 l 266 639 l 266 216 q 272 114 266 158 q 295 45 277 69 q 351 20 314 20 q 448 51 408 20 q 515 129 489 81 q 552 230 540 176 q 565 327 565 283 l 581 331 q 570 226 581 285 q 532 112 559 167 q 457 22 506 58 q 333 -14 408 -14 m 565 0 l 565 612 l 467 612 l 467 639 l 690 639 l 690 27 l 781 27 l 781 0 l 565 0 m 213 778 l 213 805 l 546 805 l 546 778 l 213 778 z "},"ų":{"ha":831,"x_min":51,"x_max":790,"o":"m 333 -14 q 211 14 253 -14 q 156 88 170 41 q 142 196 142 135 l 142 612 l 51 612 l 51 639 l 266 639 l 266 216 q 272 114 266 158 q 295 45 277 69 q 351 20 314 20 q 448 51 408 20 q 515 129 489 81 q 552 230 540 176 q 565 327 565 283 l 581 331 q 570 226 581 285 q 532 112 559 167 q 457 22 506 58 q 333 -14 408 -14 m 565 0 l 565 612 l 467 612 l 467 639 l 690 639 l 690 27 l 781 27 l 781 0 l 565 0 m 631 -291 q 561 -278 596 -291 q 504 -240 527 -266 q 481 -172 481 -213 q 499 -98 481 -130 q 547 -42 517 -66 q 610 -1 576 -17 q 676 26 644 16 l 684 12 q 646 -23 663 0 q 620 -76 629 -45 q 610 -144 610 -107 q 629 -216 610 -187 q 683 -244 647 -244 q 737 -225 716 -244 q 773 -178 758 -205 l 790 -190 q 762 -233 781 -210 q 712 -274 744 -257 q 631 -291 681 -291 z "},"ů":{"ha":831,"x_min":51,"x_max":781,"o":"m 333 -14 q 211 14 253 -14 q 156 88 170 41 q 142 196 142 135 l 142 612 l 51 612 l 51 639 l 266 639 l 266 216 q 272 114 266 158 q 295 45 277 69 q 351 20 314 20 q 448 51 408 20 q 515 129 489 81 q 552 230 540 176 q 565 327 565 283 l 581 331 q 570 226 581 285 q 532 112 559 167 q 457 22 506 58 q 333 -14 408 -14 m 565 0 l 565 612 l 467 612 l 467 639 l 690 639 l 690 27 l 781 27 l 781 0 l 565 0 m 379 764 q 291 800 326 764 q 255 888 255 835 q 291 978 255 942 q 379 1014 326 1014 q 468 978 433 1014 q 504 888 504 942 q 468 800 504 835 q 379 764 433 764 m 379 792 q 421 805 405 792 q 445 840 438 818 q 453 888 453 862 q 445 938 453 915 q 421 973 438 960 q 379 987 405 987 q 338 973 353 987 q 314 938 322 960 q 306 888 306 915 q 314 840 306 862 q 338 805 322 818 q 379 792 353 792 z "},"ũ":{"ha":831,"x_min":51,"x_max":781,"o":"m 333 -14 q 211 14 253 -14 q 156 88 170 41 q 142 196 142 135 l 142 612 l 51 612 l 51 639 l 266 639 l 266 216 q 272 114 266 158 q 295 45 277 69 q 351 20 314 20 q 448 51 408 20 q 515 129 489 81 q 552 230 540 176 q 565 327 565 283 l 581 331 q 570 226 581 285 q 532 112 559 167 q 457 22 506 58 q 333 -14 408 -14 m 565 0 l 565 612 l 467 612 l 467 639 l 690 639 l 690 27 l 781 27 l 781 0 l 565 0 m 492 764 q 421 781 452 764 q 364 819 390 797 q 311 857 338 840 q 256 874 285 874 q 195 853 222 874 q 168 778 168 832 l 140 778 q 163 876 140 837 q 218 935 185 915 q 286 954 252 954 q 357 938 327 954 q 412 899 388 921 q 459 861 436 878 q 508 844 482 844 q 572 865 548 844 q 597 940 597 886 l 624 940 q 608 836 624 875 q 562 781 592 797 q 492 764 533 764 z "},"v":{"ha":753,"x_min":23,"x_max":723,"o":"m 723 639 l 723 612 l 642 612 l 388 -14 l 358 -14 l 101 612 l 23 612 l 23 639 l 356 639 l 356 612 l 238 612 l 419 142 l 610 612 l 485 612 l 485 639 l 723 639 z "},"w":{"ha":1058,"x_min":23,"x_max":1028,"o":"m 1028 639 l 1028 612 l 930 612 l 720 -14 l 693 -14 l 528 474 l 326 -14 l 297 -14 l 101 612 l 23 612 l 23 639 l 325 639 l 325 612 l 221 612 l 364 153 l 570 652 l 601 652 l 752 174 l 899 612 l 776 612 l 776 639 l 1028 639 z "},"ẃ":{"ha":1058,"x_min":23,"x_max":1028,"o":"m 1028 639 l 1028 612 l 930 612 l 720 -14 l 693 -14 l 528 474 l 326 -14 l 297 -14 l 101 612 l 23 612 l 23 639 l 325 639 l 325 612 l 221 612 l 364 153 l 570 652 l 601 652 l 752 174 l 899 612 l 776 612 l 776 639 l 1028 639 m 483 765 l 467 783 l 607 935 q 636 951 621 950 q 665 946 651 953 q 685 927 678 939 q 691 902 692 916 q 684 877 690 888 q 666 859 678 865 l 483 765 z "},"ŵ":{"ha":1058,"x_min":23,"x_max":1028,"o":"m 1028 639 l 1028 612 l 930 612 l 720 -14 l 693 -14 l 528 474 l 326 -14 l 297 -14 l 101 612 l 23 612 l 23 639 l 325 639 l 325 612 l 221 612 l 364 153 l 570 652 l 601 652 l 752 174 l 899 612 l 776 612 l 776 639 l 1028 639 m 342 776 l 328 791 l 481 944 l 571 944 l 724 791 l 710 776 l 525 881 l 342 776 z "},"ẅ":{"ha":1058,"x_min":23,"x_max":1028,"o":"m 1028 639 l 1028 612 l 930 612 l 720 -14 l 693 -14 l 528 474 l 326 -14 l 297 -14 l 101 612 l 23 612 l 23 639 l 325 639 l 325 612 l 221 612 l 364 153 l 570 652 l 601 652 l 752 174 l 899 612 l 776 612 l 776 639 l 1028 639 m 635 771 q 588 790 608 771 q 569 838 569 810 q 588 885 569 865 q 635 905 608 905 q 683 885 663 905 q 702 838 702 865 q 683 790 702 810 q 635 771 663 771 m 413 771 q 366 790 385 771 q 347 838 347 810 q 366 885 347 865 q 413 905 385 905 q 460 885 441 905 q 480 838 480 865 q 460 790 480 810 q 413 771 441 771 z "},"ẇ":{"ha":1058,"x_min":23,"x_max":1028,"o":"m 1028 639 l 1028 612 l 930 612 l 720 -14 l 693 -14 l 528 474 l 326 -14 l 297 -14 l 101 612 l 23 612 l 23 639 l 325 639 l 325 612 l 221 612 l 364 153 l 570 652 l 601 652 l 752 174 l 899 612 l 776 612 l 776 639 l 1028 639 m 526 885 q 467 910 492 885 q 442 969 442 935 q 467 1028 442 1003 q 526 1052 492 1052 q 585 1028 560 1052 q 609 969 609 1003 q 585 910 609 935 q 526 885 560 885 z "},"ẉ":{"ha":1058,"x_min":23,"x_max":1028,"o":"m 1028 639 l 1028 612 l 930 612 l 720 -14 l 693 -14 l 528 474 l 326 -14 l 297 -14 l 101 612 l 23 612 l 23 639 l 325 639 l 325 612 l 221 612 l 364 153 l 570 652 l 601 652 l 752 174 l 899 612 l 776 612 l 776 639 l 1028 639 m 526 -285 q 467 -260 492 -285 q 442 -201 442 -235 q 467 -142 442 -166 q 526 -117 492 -117 q 585 -142 560 -117 q 609 -201 609 -166 q 585 -260 609 -235 q 526 -285 560 -285 z "},"ẁ":{"ha":1058,"x_min":23,"x_max":1028,"o":"m 1028 639 l 1028 612 l 930 612 l 720 -14 l 693 -14 l 528 474 l 326 -14 l 297 -14 l 101 612 l 23 612 l 23 639 l 325 639 l 325 612 l 221 612 l 364 153 l 570 652 l 601 652 l 752 174 l 899 612 l 776 612 l 776 639 l 1028 639 m 567 765 l 385 859 q 367 877 374 865 q 360 902 360 888 q 366 927 360 916 q 386 946 373 939 q 415 951 399 953 q 444 935 431 950 l 584 783 l 567 765 z "},"x":{"ha":801,"x_min":37,"x_max":765,"o":"m 465 0 l 465 27 l 542 27 l 139 612 l 51 612 l 51 639 l 379 639 l 379 612 l 288 612 l 690 27 l 765 27 l 765 0 l 465 0 m 37 0 l 37 27 l 128 27 l 606 612 l 495 612 l 495 639 l 744 639 l 744 612 l 640 612 l 162 27 l 293 27 l 293 0 l 37 0 z "},"y":{"ha":759,"x_min":23,"x_max":751,"o":"m 226 612 l 459 127 l 392 -27 l 87 612 l 23 612 l 23 639 l 335 639 l 335 612 l 226 612 m 751 639 l 751 612 l 672 612 l 298 -275 q 257 -342 279 -317 q 196 -366 235 -366 q 160 -358 178 -366 q 130 -334 142 -351 q 117 -292 117 -318 q 127 -251 117 -269 q 155 -224 138 -234 q 194 -215 172 -215 q 227 -222 212 -215 q 252 -242 242 -229 q 266 -272 263 -255 l 640 612 l 530 612 l 530 639 l 751 639 z "},"ý":{"ha":759,"x_min":23,"x_max":751,"o":"m 226 612 l 459 127 l 392 -27 l 87 612 l 23 612 l 23 639 l 335 639 l 335 612 l 226 612 m 751 639 l 751 612 l 672 612 l 298 -275 q 257 -342 279 -317 q 196 -366 235 -366 q 160 -358 178 -366 q 130 -334 142 -351 q 117 -292 117 -318 q 127 -251 117 -269 q 155 -224 138 -234 q 194 -215 172 -215 q 227 -222 212 -215 q 252 -242 242 -229 q 266 -272 263 -255 l 640 612 l 530 612 l 530 639 l 751 639 m 378 765 l 362 783 l 502 935 q 531 951 516 950 q 560 946 547 953 q 580 927 574 939 q 586 902 587 916 q 579 877 585 888 q 561 859 573 865 l 378 765 z "},"ŷ":{"ha":759,"x_min":23,"x_max":751,"o":"m 226 612 l 459 127 l 392 -27 l 87 612 l 23 612 l 23 639 l 335 639 l 335 612 l 226 612 m 751 639 l 751 612 l 672 612 l 298 -275 q 257 -342 279 -317 q 196 -366 235 -366 q 160 -358 178 -366 q 130 -334 142 -351 q 117 -292 117 -318 q 127 -251 117 -269 q 155 -224 138 -234 q 194 -215 172 -215 q 227 -222 212 -215 q 252 -242 242 -229 q 266 -272 263 -255 l 640 612 l 530 612 l 530 639 l 751 639 m 238 776 l 224 791 l 376 944 l 467 944 l 619 791 l 606 776 l 421 881 l 238 776 z "},"ÿ":{"ha":759,"x_min":23,"x_max":751,"o":"m 226 612 l 459 127 l 392 -27 l 87 612 l 23 612 l 23 639 l 335 639 l 335 612 l 226 612 m 751 639 l 751 612 l 672 612 l 298 -275 q 257 -342 279 -317 q 196 -366 235 -366 q 160 -358 178 -366 q 130 -334 142 -351 q 117 -292 117 -318 q 127 -251 117 -269 q 155 -224 138 -234 q 194 -215 172 -215 q 227 -222 212 -215 q 252 -242 242 -229 q 266 -272 263 -255 l 640 612 l 530 612 l 530 639 l 751 639 m 531 771 q 484 790 503 771 q 465 838 465 810 q 484 885 465 865 q 531 905 503 905 q 578 885 559 905 q 598 838 598 865 q 578 790 598 810 q 531 771 559 771 m 309 771 q 262 790 281 771 q 242 838 242 810 q 262 885 242 865 q 309 905 281 905 q 356 885 337 905 q 376 838 376 865 q 356 790 376 810 q 309 771 337 771 z "},"ỳ":{"ha":759,"x_min":23,"x_max":751,"o":"m 226 612 l 459 127 l 392 -27 l 87 612 l 23 612 l 23 639 l 335 639 l 335 612 l 226 612 m 751 639 l 751 612 l 672 612 l 298 -275 q 257 -342 279 -317 q 196 -366 235 -366 q 160 -358 178 -366 q 130 -334 142 -351 q 117 -292 117 -318 q 127 -251 117 -269 q 155 -224 138 -234 q 194 -215 172 -215 q 227 -222 212 -215 q 252 -242 242 -229 q 266 -272 263 -255 l 640 612 l 530 612 l 530 639 l 751 639 m 463 765 l 280 859 q 262 877 269 865 q 255 902 256 888 q 261 927 255 916 q 281 946 268 939 q 310 951 294 953 q 339 935 326 950 l 479 783 l 463 765 z "},"z":{"ha":649,"x_min":44,"x_max":597,"o":"m 44 0 l 44 27 l 429 612 l 300 612 q 180 588 221 612 q 125 517 139 565 q 110 400 110 470 l 83 400 l 83 639 l 575 639 l 575 612 l 189 27 l 349 27 q 464 39 419 27 q 531 77 508 51 q 563 147 554 103 q 571 256 571 191 l 597 256 l 597 0 l 44 0 z "},"ź":{"ha":649,"x_min":44,"x_max":597,"o":"m 44 0 l 44 27 l 429 612 l 300 612 q 180 588 221 612 q 125 517 139 565 q 110 400 110 470 l 83 400 l 83 639 l 575 639 l 575 612 l 189 27 l 349 27 q 464 39 419 27 q 531 77 508 51 q 563 147 554 103 q 571 256 571 191 l 597 256 l 597 0 l 44 0 m 288 765 l 272 783 l 412 935 q 441 951 426 950 q 470 946 456 953 q 490 927 483 939 q 496 902 497 916 q 489 877 495 888 q 471 859 483 865 l 288 765 z "},"ž":{"ha":649,"x_min":44,"x_max":597,"o":"m 44 0 l 44 27 l 429 612 l 300 612 q 180 588 221 612 q 125 517 139 565 q 110 400 110 470 l 83 400 l 83 639 l 575 639 l 575 612 l 189 27 l 349 27 q 464 39 419 27 q 531 77 508 51 q 563 147 554 103 q 571 256 571 191 l 597 256 l 597 0 l 44 0 m 286 778 l 133 931 l 148 944 l 331 840 l 515 944 l 529 931 l 376 778 l 286 778 z "},"ż":{"ha":649,"x_min":44,"x_max":597,"o":"m 44 0 l 44 27 l 429 612 l 300 612 q 180 588 221 612 q 125 517 139 565 q 110 400 110 470 l 83 400 l 83 639 l 575 639 l 575 612 l 189 27 l 349 27 q 464 39 419 27 q 531 77 508 51 q 563 147 554 103 q 571 256 571 191 l 597 256 l 597 0 l 44 0 m 331 885 q 273 910 297 885 q 248 969 248 935 q 273 1028 248 1003 q 331 1052 297 1052 q 390 1028 366 1052 q 415 969 415 1003 q 390 910 415 935 q 331 885 366 885 z "},"ﬁ":{"ha":844,"x_min":44,"x_max":786,"o":"m 163 0 l 163 710 q 184 841 163 778 q 247 951 206 903 q 347 1027 288 999 q 478 1056 405 1056 q 591 1035 541 1056 q 669 982 640 1014 q 697 918 697 951 q 673 854 697 876 q 617 832 649 832 q 566 849 592 832 q 540 908 540 866 q 552 949 540 932 q 582 976 565 967 q 617 985 600 985 q 671 967 646 985 q 696 918 696 949 l 669 918 q 643 970 669 944 q 573 1012 617 995 q 478 1028 530 1028 q 373 995 415 1028 q 309 900 331 963 q 288 750 288 838 l 288 0 l 163 0 m 44 0 l 44 27 l 786 27 l 786 0 l 44 0 m 564 0 l 564 612 l 44 612 l 44 639 l 689 639 l 689 0 l 564 0 z "},"ﬂ":{"ha":858,"x_min":44,"x_max":808,"o":"m 163 0 l 163 710 q 195 880 163 801 q 290 1007 228 959 q 443 1056 353 1056 q 539 1035 501 1056 q 595 982 576 1014 q 614 918 614 951 q 590 854 614 876 q 534 832 566 832 q 483 849 508 832 q 457 908 457 866 q 483 965 457 944 q 534 985 508 985 q 588 967 563 985 q 613 918 613 949 l 586 918 q 569 971 586 946 q 520 1012 552 996 q 443 1028 488 1028 q 353 995 388 1028 q 303 900 319 963 q 288 750 288 838 l 288 0 l 163 0 m 44 0 l 44 27 l 808 27 l 808 0 l 44 0 m 44 612 l 44 639 l 475 639 l 475 612 l 44 612 m 565 0 l 565 1014 l 690 1069 l 690 0 l 565 0 z "},"ª":{"ha":430,"x_min":33,"x_max":424,"o":"m 346 661 q 295 677 316 661 q 274 734 274 694 l 274 923 q 269 981 274 953 q 248 1026 264 1008 q 198 1043 231 1043 q 146 1035 173 1043 q 101 1013 119 1028 q 83 974 83 998 l 63 974 q 77 1008 63 996 q 108 1020 91 1020 q 140 1009 126 1020 q 155 976 155 997 q 140 940 155 951 q 108 928 125 928 q 75 940 88 928 q 62 974 62 952 q 84 1020 62 1001 q 140 1049 106 1039 q 213 1060 175 1060 q 299 1040 270 1060 q 337 988 327 1019 q 347 923 347 957 l 347 718 q 351 695 347 705 q 372 685 356 685 q 395 694 382 685 q 415 717 408 703 l 424 702 q 393 673 413 685 q 346 661 373 661 m 151 661 q 65 689 97 661 q 33 764 33 717 q 81 851 33 819 q 217 883 129 883 l 312 883 l 312 869 l 217 869 q 158 854 181 869 q 125 816 135 839 q 115 770 115 793 q 130 713 115 739 q 177 686 144 686 q 243 720 212 686 q 274 822 274 753 l 283 822 q 249 706 283 751 q 151 661 215 661 z "},"º":{"ha":779,"x_min":202,"x_max":584,"o":"m 393 660 q 292 687 335 660 q 225 760 249 715 q 202 860 202 806 q 225 959 202 914 q 292 1032 249 1005 q 393 1060 335 1060 q 495 1032 452 1060 q 561 959 538 1005 q 584 860 584 914 q 561 760 584 806 q 495 687 538 715 q 393 660 452 660 m 393 676 q 461 706 438 676 q 491 778 483 735 q 499 860 499 821 q 491 942 499 899 q 461 1014 483 984 q 393 1043 438 1043 q 326 1014 349 1043 q 295 942 303 984 q 288 860 288 899 q 295 778 288 821 q 326 706 303 735 q 393 676 349 676 z "},"Δ":{"ha":880,"x_min":52,"x_max":838,"o":"m 52 0 l 428 1062 l 470 1062 l 838 0 l 685 0 l 393 883 l 84 0 l 52 0 m 71 0 l 71 27 l 799 27 l 799 0 l 71 0 z "},"Ω":{"ha":1078,"x_min":95,"x_max":983,"o":"m 435 208 q 316 256 376 222 q 206 345 256 291 q 126 469 156 399 q 95 625 95 540 q 150 852 95 756 q 305 1002 205 949 q 539 1056 405 1056 q 773 1002 674 1056 q 928 852 873 949 q 983 625 983 756 q 953 470 983 540 q 872 348 922 401 q 763 261 822 295 q 644 215 703 228 l 644 240 q 742 320 702 264 q 803 455 783 376 q 824 625 824 534 q 811 780 824 706 q 767 909 799 853 q 680 998 735 966 q 539 1031 624 1031 q 398 998 453 1031 q 311 909 342 966 q 267 780 280 853 q 254 625 254 706 q 275 454 254 534 q 336 316 296 374 q 435 233 376 258 l 435 208 m 130 0 l 130 208 l 157 208 q 179 136 157 160 q 254 113 201 113 l 408 113 l 408 223 l 435 222 l 435 0 l 130 0 m 644 0 l 644 229 l 670 229 l 670 113 l 824 113 q 900 136 878 113 q 922 208 922 160 l 949 208 l 949 0 l 644 0 z "},"μ":{"ha":831,"x_min":51,"x_max":781,"o":"m 690 639 l 690 27 l 781 27 l 781 0 l 565 0 l 565 214 q 526 106 553 158 q 453 20 500 53 q 333 -14 407 -14 q 221 13 258 -14 q 169 83 183 40 l 169 -168 q 188 -252 169 -217 q 240 -308 208 -287 q 310 -333 272 -328 q 289 -302 297 -324 q 281 -258 281 -280 q 307 -197 281 -224 q 367 -171 333 -171 q 427 -198 401 -171 q 452 -264 452 -224 q 424 -333 452 -304 q 336 -361 397 -361 q 243 -339 288 -361 q 170 -274 198 -317 q 142 -168 142 -231 l 142 612 l 51 612 l 51 639 l 266 639 l 266 216 q 272 114 266 158 q 295 45 277 69 q 351 20 314 20 q 448 51 408 20 q 515 129 489 81 q 552 230 540 176 q 565 327 565 283 l 565 612 l 467 612 l 467 639 l 690 639 z "},"π":{"ha":806,"x_min":57,"x_max":758,"o":"m 57 410 l 57 639 l 731 639 l 731 514 l 84 514 l 84 410 l 57 410 m 144 -14 q 82 7 102 -14 q 63 53 63 27 q 74 92 63 76 q 102 122 85 108 q 140 153 120 135 q 178 200 160 172 q 207 274 196 229 q 218 388 218 319 l 218 563 l 296 563 l 296 338 q 256 80 296 173 q 144 -14 216 -14 m 608 -14 q 520 13 560 -14 q 480 101 480 40 l 480 542 l 606 542 l 606 132 q 618 97 606 111 q 656 82 631 82 q 700 98 681 82 q 740 154 719 114 l 758 143 q 697 28 735 69 q 608 -14 658 -14 z "},"⁄":{"ha":744,"x_min":56,"x_max":678,"o":"m 56 -208 l 651 1084 l 678 1084 l 83 -208 l 56 -208 z "},"½":{"ha":930,"x_min":31,"x_max":902,"o":"m 49 -139 l 709 903 l 736 903 l 77 -139 l 49 -139 m 31 494 l 31 511 l 310 511 l 310 494 l 31 494 m 507 -140 l 507 -86 l 697 92 q 775 200 749 140 q 802 318 802 259 q 767 428 802 385 q 677 471 731 471 q 599 451 633 471 q 548 393 565 431 q 534 306 531 356 l 519 306 q 535 333 519 321 q 572 344 551 344 q 606 332 590 344 q 622 298 622 320 q 607 259 622 273 q 569 244 592 244 q 534 261 548 244 q 518 306 519 278 q 561 441 512 388 q 703 493 610 493 q 838 445 791 493 q 885 335 885 397 q 878 278 885 303 q 857 231 870 252 q 827 192 844 210 q 794 158 811 174 l 554 -65 l 886 -65 l 886 -3 l 902 -3 l 902 -140 l 507 -140 m 139 499 l 139 1103 l 44 1103 l 44 1119 l 218 1119 l 218 499 l 139 499 z "},"¼":{"ha":890,"x_min":31,"x_max":863,"o":"m 49 -139 l 709 903 l 736 903 l 77 -139 l 49 -139 m 31 494 l 31 511 l 310 511 l 310 494 l 31 494 m 613 -143 l 613 -126 l 692 -126 l 692 432 l 433 44 l 863 44 l 863 28 l 402 28 l 704 482 l 771 482 l 771 -126 l 833 -126 l 833 -143 l 613 -143 m 139 499 l 139 1103 l 44 1103 l 44 1119 l 218 1119 l 218 499 l 139 499 z "},"¾":{"ha":973,"x_min":28,"x_max":946,"o":"m 133 -139 l 792 903 l 819 903 l 160 -139 l 133 -139 m 199 483 q 102 501 140 483 q 46 546 65 518 q 28 603 28 574 q 42 643 28 629 q 78 657 56 657 q 110 645 97 657 q 122 610 122 633 q 108 579 122 591 q 75 567 94 567 q 43 577 58 567 q 28 603 28 588 l 44 603 q 61 553 44 576 q 108 515 77 529 q 183 501 140 501 q 290 548 257 501 q 324 658 324 595 q 312 730 324 692 q 265 795 300 768 q 160 822 230 822 l 160 832 q 314 808 260 832 q 388 744 367 783 q 408 658 408 705 q 380 565 408 604 q 305 505 352 526 q 199 483 258 483 m 696 -143 l 696 -126 l 775 -126 l 775 432 l 516 44 l 946 44 l 946 28 l 485 28 l 788 482 l 854 482 l 854 -126 l 917 -126 l 917 -143 l 696 -143 m 160 828 l 160 838 q 255 861 226 838 q 291 919 284 885 q 299 984 299 953 q 286 1048 299 1020 q 251 1091 274 1076 q 195 1107 228 1107 q 149 1100 172 1107 q 108 1080 126 1093 q 80 1049 90 1067 q 69 1010 69 1031 l 53 1010 q 69 1039 53 1029 q 101 1049 85 1049 q 133 1038 119 1049 q 148 1005 148 1027 q 132 969 148 980 q 101 959 117 959 q 67 972 81 959 q 52 1010 52 985 q 73 1067 52 1041 q 130 1108 94 1092 q 208 1124 165 1124 q 294 1108 254 1124 q 358 1061 334 1092 q 383 984 383 1031 q 367 907 383 942 q 304 850 351 872 q 160 828 256 828 z "},"¹":{"ha":735,"x_min":190,"x_max":469,"o":"m 299 638 l 299 1242 l 204 1242 l 204 1258 l 378 1258 l 378 638 l 299 638 m 190 633 l 190 650 l 469 650 l 469 633 l 190 633 z "},"²":{"ha":652,"x_min":139,"x_max":534,"o":"m 139 635 l 139 689 l 329 867 q 407 975 381 915 q 434 1093 434 1034 q 399 1203 434 1160 q 309 1246 363 1246 q 231 1226 265 1246 q 180 1168 197 1206 q 166 1081 163 1131 l 151 1081 q 167 1108 151 1096 q 204 1119 183 1119 q 238 1107 222 1119 q 253 1073 253 1095 q 239 1034 253 1048 q 201 1019 224 1019 q 166 1036 180 1019 q 150 1081 151 1053 q 193 1216 144 1163 q 335 1268 242 1268 q 470 1220 423 1268 q 517 1110 517 1172 q 510 1053 517 1078 q 489 1006 502 1027 q 459 967 476 985 q 426 933 443 949 l 186 710 l 518 710 l 518 772 l 534 772 l 534 635 l 139 635 z "},"³":{"ha":624,"x_min":111,"x_max":491,"o":"m 283 626 q 186 644 224 626 q 130 689 148 661 q 111 747 111 717 q 125 786 111 772 q 161 800 140 800 q 193 788 181 800 q 206 753 206 776 q 191 722 206 734 q 158 710 177 710 q 126 720 141 710 q 112 747 112 731 l 128 747 q 144 696 128 719 q 192 658 160 672 q 266 644 223 644 q 374 691 340 644 q 407 801 407 738 q 395 873 407 835 q 348 938 383 911 q 243 965 313 965 l 243 975 q 397 951 344 975 q 471 887 451 926 q 491 801 491 848 q 463 708 491 747 q 389 648 435 669 q 283 626 342 626 m 243 971 l 243 981 q 338 1004 309 981 q 375 1062 367 1028 q 382 1127 382 1096 q 370 1191 382 1163 q 335 1234 358 1219 q 278 1250 312 1250 q 232 1243 255 1250 q 192 1223 210 1236 q 163 1192 174 1210 q 153 1153 153 1174 l 137 1153 q 152 1182 137 1172 q 184 1192 168 1192 q 217 1181 202 1192 q 231 1148 231 1170 q 216 1113 231 1123 q 184 1102 200 1102 q 150 1115 165 1102 q 135 1153 135 1128 q 157 1210 135 1184 q 213 1251 178 1235 q 291 1267 249 1267 q 377 1251 338 1267 q 442 1205 417 1235 q 466 1127 466 1174 q 450 1050 466 1085 q 387 993 435 1015 q 243 971 340 971 z "},"⁴":{"ha":542,"x_min":41,"x_max":501,"o":"m 251 638 l 251 655 l 331 655 l 331 1213 l 72 826 l 501 826 l 501 809 l 41 809 l 343 1263 l 410 1263 l 410 655 l 472 655 l 472 638 l 251 638 z "}," ":{"ha":347,"x_min":0,"x_max":0,"o":""}," ":{"ha":347,"x_min":0,"x_max":0,"o":""}," ":{"ha":694,"x_min":0,"x_max":0,"o":""}," ":{"ha":1389,"x_min":0,"x_max":0,"o":""}," ":{"ha":694,"x_min":0,"x_max":0,"o":""}," ":{"ha":1389,"x_min":0,"x_max":0,"o":""}," ":{"ha":463,"x_min":0,"x_max":0,"o":""}," ":{"ha":347,"x_min":0,"x_max":0,"o":""}," ":{"ha":231,"x_min":0,"x_max":0,"o":""}," ":{"ha":806,"x_min":0,"x_max":0,"o":""}," ":{"ha":277,"x_min":0,"x_max":0,"o":""}," ":{"ha":231,"x_min":0,"x_max":0,"o":""}," ":{"ha":139,"x_min":0,"x_max":0,"o":""},"​":{"ha":0,"x_min":0,"x_max":0,"o":""},"\r":{"ha":347,"x_min":0,"x_max":0,"o":""},".":{"ha":277,"x_min":56,"x_max":222,"o":"m 139 -14 q 97 -3 116 -14 q 67 27 78 8 q 56 69 56 47 q 67 111 56 92 q 97 142 78 131 q 139 153 116 153 q 181 142 162 153 q 211 111 200 131 q 222 69 222 92 q 211 27 222 47 q 181 -3 200 8 q 139 -14 162 -14 z "},",":{"ha":298,"x_min":53,"x_max":246,"o":"m 53 -210 l 53 -183 q 125 -164 93 -183 q 180 -112 158 -145 q 210 -39 201 -80 q 213 49 219 3 l 222 49 q 214 22 224 37 q 186 -3 204 8 q 143 -14 168 -14 q 77 10 99 -14 q 56 68 56 34 q 68 110 56 91 q 101 139 80 128 q 149 150 122 150 q 198 135 176 150 q 233 90 220 119 q 246 16 246 60 q 224 -92 246 -40 q 158 -177 201 -144 q 53 -210 115 -210 z "},":":{"ha":274,"x_min":56,"x_max":222,"o":"m 139 569 q 97 581 116 569 q 67 611 78 592 q 56 653 56 630 q 67 695 56 676 q 97 725 78 714 q 139 737 116 737 q 181 725 162 737 q 211 695 200 714 q 222 653 222 676 q 211 611 222 630 q 181 581 200 592 q 139 569 162 569 m 139 -14 q 97 -3 116 -14 q 67 27 78 8 q 56 69 56 47 q 67 111 56 92 q 97 142 78 131 q 139 153 116 153 q 181 142 162 153 q 211 111 200 131 q 222 69 222 92 q 211 27 222 47 q 181 -3 200 8 q 139 -14 162 -14 z "},";":{"ha":298,"x_min":53,"x_max":246,"o":"m 139 569 q 97 581 116 569 q 67 611 78 592 q 56 653 56 630 q 67 695 56 676 q 97 725 78 714 q 139 737 116 737 q 181 725 162 737 q 211 695 200 714 q 222 653 222 676 q 211 611 222 630 q 181 581 200 592 q 139 569 162 569 m 53 -210 l 53 -183 q 125 -164 93 -183 q 180 -112 158 -145 q 210 -39 201 -80 q 213 49 219 3 l 222 49 q 214 22 224 37 q 186 -3 204 8 q 143 -14 168 -14 q 77 10 99 -14 q 56 68 56 34 q 68 110 56 91 q 101 139 80 128 q 149 150 122 150 q 198 135 176 150 q 233 90 220 119 q 246 16 246 60 q 224 -92 246 -40 q 158 -177 201 -144 q 53 -210 115 -210 z "},"…":{"ha":833,"x_min":56,"x_max":778,"o":"m 694 -14 q 653 -3 672 -14 q 623 27 634 8 q 611 69 611 47 q 623 111 611 92 q 653 142 634 131 q 694 153 672 153 q 736 142 717 153 q 767 111 756 131 q 778 69 778 92 q 767 27 778 47 q 736 -3 756 8 q 694 -14 717 -14 m 417 -14 q 375 -3 394 -14 q 345 27 356 8 q 333 69 333 47 q 345 111 333 92 q 375 142 356 131 q 417 153 394 153 q 459 142 440 153 q 489 111 478 131 q 500 69 500 92 q 489 27 500 47 q 459 -3 478 8 q 417 -14 440 -14 m 139 -14 q 97 -3 116 -14 q 67 27 78 8 q 56 69 56 47 q 67 111 56 92 q 97 142 78 131 q 139 153 116 153 q 181 142 162 153 q 211 111 200 131 q 222 69 222 92 q 211 27 222 47 q 181 -3 200 8 q 139 -14 162 -14 z "},"!":{"ha":441,"x_min":138,"x_max":304,"o":"m 206 289 q 197 441 206 367 q 177 589 189 514 q 154 743 165 663 q 138 915 143 824 q 138 929 138 923 q 138 941 138 935 q 154 1021 138 989 q 219 1053 171 1053 q 286 1021 269 1053 q 303 941 303 989 q 302 929 303 935 q 301 915 301 923 q 284 743 296 824 q 261 589 273 663 q 241 441 249 514 q 233 289 233 367 l 206 289 m 221 -14 q 179 -3 198 -14 q 149 27 160 8 q 138 69 138 47 q 149 111 138 92 q 179 142 160 131 q 221 153 198 153 q 263 142 244 153 q 293 111 282 131 q 304 69 304 92 q 293 27 304 47 q 263 -3 282 8 q 221 -14 244 -14 z "},"¡":{"ha":442,"x_min":140,"x_max":306,"o":"m 224 -331 q 158 -299 176 -331 q 141 -219 141 -267 q 142 -206 141 -212 q 142 -193 142 -200 q 159 -21 148 -101 q 183 134 171 59 q 203 282 194 208 q 211 433 211 356 l 238 433 q 247 282 238 356 q 267 134 255 208 q 290 -21 278 59 q 306 -193 301 -101 q 306 -206 306 -200 q 306 -219 306 -212 q 290 -299 306 -267 q 224 -331 274 -331 m 223 569 q 181 580 200 569 q 151 611 163 592 q 140 653 140 630 q 151 695 140 676 q 181 725 163 714 q 223 736 200 736 q 265 725 246 736 q 295 695 284 714 q 306 653 306 676 q 295 611 306 630 q 265 580 284 592 q 223 569 246 569 z "},"?":{"ha":763,"x_min":83,"x_max":694,"o":"m 329 290 l 329 488 q 455 552 406 508 q 530 655 505 596 q 554 778 554 713 q 547 872 554 827 q 519 952 540 917 q 460 1007 499 987 q 358 1028 421 1028 q 262 1010 307 1028 q 183 962 217 992 q 130 895 149 932 q 111 821 111 858 l 85 821 q 96 857 85 842 q 125 880 107 872 q 163 888 143 888 q 201 880 183 888 q 231 854 219 871 q 242 813 242 837 q 229 768 242 785 q 198 743 217 751 q 163 735 180 735 q 107 757 131 735 q 83 821 83 778 q 106 906 83 864 q 168 981 128 947 q 259 1035 208 1015 q 369 1056 311 1056 q 541 1021 467 1056 q 654 924 614 986 q 694 778 694 861 q 651 631 694 698 q 531 523 608 565 q 357 474 455 481 l 357 290 l 329 290 m 346 -14 q 304 -3 323 -14 q 274 27 285 8 q 263 69 263 47 q 274 111 263 92 q 304 142 285 131 q 346 153 323 153 q 388 142 369 153 q 418 111 407 131 q 429 69 429 92 q 418 27 429 47 q 388 -3 407 8 q 346 -14 369 -14 z "},"¿":{"ha":763,"x_min":63,"x_max":674,"o":"m 388 -333 q 217 -299 290 -333 q 103 -201 144 -264 q 63 -56 63 -139 q 106 91 63 24 q 226 200 149 158 q 400 248 302 242 l 400 432 l 428 432 l 428 234 q 302 170 352 215 q 227 68 252 126 q 203 -56 203 9 q 210 -149 203 -104 q 238 -230 217 -194 q 297 -285 258 -265 q 399 -306 336 -306 q 495 -287 450 -306 q 574 -240 540 -269 q 627 -173 608 -210 q 646 -99 646 -136 l 672 -99 q 661 -134 672 -119 q 632 -158 650 -149 q 594 -166 615 -166 q 556 -157 574 -166 q 526 -132 538 -149 q 515 -90 515 -115 q 528 -45 515 -62 q 559 -21 540 -28 q 594 -13 577 -13 q 650 -34 626 -13 q 674 -99 674 -56 q 651 -183 674 -141 q 589 -259 628 -225 q 498 -313 549 -292 q 388 -333 446 -333 m 411 569 q 369 580 388 569 q 339 611 350 592 q 328 653 328 630 q 339 695 328 676 q 369 725 350 714 q 411 736 388 736 q 453 725 434 736 q 483 695 472 714 q 494 653 494 676 q 483 611 494 630 q 453 580 472 592 q 411 569 434 569 z "},"·":{"ha":274,"x_min":56,"x_max":222,"o":"m 139 472 q 97 483 116 472 q 67 514 78 494 q 56 556 56 533 q 67 598 56 578 q 97 628 78 617 q 139 640 116 640 q 181 628 162 640 q 211 598 200 617 q 222 556 222 578 q 211 514 222 533 q 181 483 200 494 q 139 472 162 472 z "},"•":{"ha":277,"x_min":56,"x_max":222,"o":"m 139 424 q 97 435 116 424 q 67 465 78 446 q 56 507 56 484 q 67 549 56 530 q 97 580 78 568 q 139 591 116 591 q 181 580 162 591 q 211 549 200 568 q 222 507 222 530 q 211 465 222 484 q 181 435 200 446 q 139 424 162 424 z "},"*":{"ha":878,"x_min":97,"x_max":781,"o":"m 439 301 q 389 324 408 301 q 369 386 369 346 q 370 399 369 392 q 371 412 370 405 q 385 473 376 449 q 402 521 393 498 q 417 575 410 544 q 425 654 424 606 q 360 608 383 629 q 320 568 336 587 q 288 529 305 549 q 242 486 271 509 q 231 478 236 481 q 220 472 226 476 q 157 458 185 452 q 113 490 128 464 q 106 544 97 517 q 151 592 115 572 q 161 599 156 596 q 174 604 167 601 q 234 623 208 618 q 284 632 259 628 q 338 645 308 635 q 411 678 368 655 q 338 712 368 702 q 284 725 308 722 q 234 734 259 728 q 174 753 208 739 q 161 759 167 756 q 151 765 156 762 q 106 813 115 785 q 113 867 97 840 q 157 899 128 893 q 220 885 185 905 q 231 879 226 882 q 242 871 236 876 q 288 828 271 848 q 320 789 305 808 q 360 749 336 770 q 425 703 383 728 q 417 783 424 752 q 402 836 410 813 q 385 884 393 859 q 371 945 376 908 q 370 959 370 953 q 369 971 369 965 q 389 1034 369 1012 q 439 1056 408 1056 q 489 1034 469 1056 q 508 971 508 1012 q 508 959 508 965 q 507 945 508 953 q 493 884 502 908 q 476 836 485 859 q 461 783 467 813 q 453 703 454 752 q 518 749 494 728 q 557 789 542 770 q 590 828 573 808 q 636 871 607 848 q 647 879 642 876 q 658 885 653 882 q 722 899 693 905 q 765 867 750 893 q 772 813 781 840 q 727 765 763 785 q 717 759 722 762 q 704 753 711 756 q 644 734 670 739 q 594 725 619 728 q 540 712 569 722 q 467 678 510 702 q 540 645 510 655 q 594 632 569 635 q 644 623 619 628 q 704 604 670 618 q 717 599 711 601 q 727 592 722 596 q 772 544 763 572 q 765 490 781 517 q 722 458 750 464 q 658 472 693 452 q 647 478 653 476 q 636 486 642 481 q 590 529 607 509 q 557 568 573 549 q 518 608 542 587 q 453 654 494 629 q 461 575 454 606 q 476 521 467 544 q 493 473 485 498 q 507 412 502 449 q 508 399 508 405 q 508 386 508 392 q 489 324 508 346 q 439 301 469 301 z "},"‽":{"ha":833,"x_min":98,"x_max":792,"o":"m 447 465 l 447 490 q 535 522 495 495 q 604 591 575 549 q 649 681 633 632 q 665 778 665 729 q 635 899 665 843 q 551 988 606 954 q 420 1022 496 1022 q 316 1002 365 1022 q 230 949 268 982 q 168 876 192 916 q 134 797 143 836 q 152 814 140 808 q 176 819 165 819 q 215 810 197 819 q 244 784 233 801 q 256 743 256 767 q 243 698 256 715 q 212 673 231 681 q 176 665 194 665 q 121 687 144 665 q 98 751 98 709 q 122 852 98 799 q 191 951 145 905 q 303 1027 237 998 q 453 1056 369 1056 q 594 1035 531 1056 q 701 977 657 1015 q 769 886 746 940 q 792 764 792 832 q 774 669 792 714 q 722 587 755 624 q 644 522 688 549 q 550 480 601 495 q 447 465 500 465 m 415 -14 q 373 -3 392 -14 q 343 27 354 8 q 332 69 332 47 q 343 111 332 92 q 373 142 354 131 q 415 153 392 153 q 457 142 438 153 q 488 111 476 131 q 499 69 499 92 q 488 27 499 47 q 457 -3 476 8 q 415 -14 438 -14 m 399 289 q 389 402 399 338 q 365 536 378 466 q 344 672 352 606 q 343 686 344 680 q 343 699 343 692 q 350 743 343 719 q 375 785 357 767 q 426 803 393 803 q 477 785 458 803 q 502 743 495 767 q 510 699 510 719 q 510 686 510 692 q 508 672 510 680 q 490 570 503 622 q 462 467 476 518 q 437 371 447 417 q 426 289 426 326 l 399 289 z "},"#":{"ha":886,"x_min":42,"x_max":845,"o":"m 488 -8 l 627 1047 l 654 1049 l 515 -7 l 488 -8 m 42 337 l 42 364 l 803 364 l 803 337 l 42 337 m 219 -7 l 358 1049 l 385 1049 l 246 -7 l 219 -7 m 83 699 l 83 726 l 845 726 l 845 699 l 83 699 z "},"‾":{"ha":499,"x_min":-7,"x_max":507,"o":"m -7 1083 l -7 1110 l 507 1110 l 507 1083 l -7 1083 z "},"/":{"ha":733,"x_min":56,"x_max":678,"o":"m 56 -208 l 651 1084 l 678 1084 l 83 -208 l 56 -208 z "},"\\":{"ha":733,"x_min":56,"x_max":678,"o":"m 647 -208 l 56 1084 l 86 1084 l 678 -208 l 647 -208 z "},"-":{"ha":499,"x_min":83,"x_max":417,"o":"m 83 369 l 83 395 l 417 395 l 417 369 l 83 369 z "},"–":{"ha":751,"x_min":83,"x_max":667,"o":"m 83 369 l 83 395 l 667 395 l 667 369 l 83 369 z "},"—":{"ha":1090,"x_min":83,"x_max":1006,"o":"m 83 369 l 83 395 l 1006 395 l 1006 369 l 83 369 z "},"‒":{"ha":649,"x_min":83,"x_max":566,"o":"m 83 369 l 83 395 l 566 395 l 566 369 l 83 369 z "},"―":{"ha":1191,"x_min":83,"x_max":1108,"o":"m 83 369 l 83 395 l 1108 395 l 1108 369 l 83 369 z "},"‐":{"ha":499,"x_min":83,"x_max":417,"o":"m 83 369 l 83 395 l 417 395 l 417 369 l 83 369 z "},"‑":{"ha":499,"x_min":83,"x_max":417,"o":"m 83 369 l 83 395 l 417 395 l 417 369 l 83 369 z "},"_":{"ha":777,"x_min":-8,"x_max":784,"o":"m -8 -222 l -8 -195 l 784 -195 l 784 -222 l -8 -222 z "},"(":{"ha":502,"x_min":90,"x_max":489,"o":"m 476 -236 q 321 -133 392 -199 q 198 23 250 -67 q 118 222 147 113 q 90 451 90 330 q 140 744 90 613 q 276 969 189 875 q 476 1111 363 1063 l 489 1091 q 375 982 424 1049 q 291 830 325 915 q 240 648 257 744 q 222 451 222 551 q 240 251 222 351 q 291 60 257 151 q 375 -102 325 -31 q 489 -215 424 -174 l 476 -236 z "},")":{"ha":502,"x_min":15,"x_max":413,"o":"m 27 -236 l 15 -216 q 129 -107 79 -174 q 213 45 178 -40 q 264 227 247 131 q 281 424 281 324 q 264 624 281 524 q 213 816 247 725 q 129 977 178 906 q 15 1090 79 1049 l 27 1111 q 183 1008 112 1074 q 305 852 253 942 q 385 653 357 762 q 413 424 413 545 q 364 131 413 262 q 227 -93 315 0 q 27 -236 140 -187 z "},"{":{"ha":377,"x_min":76,"x_max":336,"o":"m 336 1084 l 336 1056 q 264 1035 293 1056 q 220 978 235 1014 q 206 899 206 942 q 217 804 206 846 q 241 715 229 763 q 252 598 252 667 q 232 514 252 544 q 175 467 211 483 q 91 438 139 451 q 175 409 139 425 q 232 363 211 393 q 252 278 252 333 q 241 161 252 208 q 217 72 229 114 q 206 -22 206 31 q 220 -102 206 -66 q 264 -160 235 -138 q 336 -181 293 -181 l 336 -208 q 179 -185 235 -208 q 99 -119 122 -162 q 76 -14 76 -76 q 89 107 76 57 q 118 195 101 158 q 147 263 134 232 q 160 327 160 294 q 134 392 160 370 q 76 424 108 414 l 76 451 q 134 485 108 462 q 160 550 160 508 q 147 614 160 583 q 118 682 134 645 q 89 769 101 719 q 76 890 76 819 q 99 995 76 952 q 179 1061 122 1039 q 336 1084 235 1084 z "},"}":{"ha":377,"x_min":42,"x_max":302,"o":"m 302 433 q 211 463 251 447 q 148 509 171 478 q 126 597 126 540 q 138 714 126 667 q 161 803 149 761 q 172 897 172 844 q 158 977 172 941 q 114 1035 143 1013 q 42 1056 85 1056 l 42 1083 q 199 1060 142 1083 q 279 994 256 1038 q 302 889 302 951 q 289 768 302 818 q 260 680 276 717 q 231 612 244 643 q 218 548 218 581 q 244 483 218 506 q 302 451 270 461 l 302 433 m 42 -209 l 42 -181 q 114 -159 85 -181 q 158 -103 143 -138 q 172 -24 172 -67 q 161 71 172 29 q 138 160 149 113 q 126 277 126 208 q 148 365 126 335 q 211 411 171 396 q 302 441 251 427 l 302 424 q 244 391 270 413 q 218 325 218 368 q 231 261 218 292 q 260 193 244 230 q 289 106 276 156 q 302 -15 302 56 q 279 -120 302 -77 q 199 -186 256 -164 q 42 -209 142 -209 z "},"[":{"ha":451,"x_min":76,"x_max":410,"o":"m 76 -208 l 76 1084 l 201 1084 l 201 -208 l 76 -208 m 76 -208 l 76 -181 l 410 -181 l 410 -208 l 76 -208 m 76 1056 l 76 1084 l 410 1084 l 410 1056 l 76 1056 z "},"]":{"ha":451,"x_min":42,"x_max":376,"o":"m 250 -209 l 250 1083 l 376 1083 l 376 -209 l 250 -209 m 42 -209 l 42 -181 l 376 -181 l 376 -209 l 42 -209 m 42 1056 l 42 1083 l 376 1083 l 376 1056 l 42 1056 z "}}}
